AnekKannada-Medium.ufo
<glyph name="six" format="2">
  <advance width="1096"/>
  <unicode hex="0036"/>
  <outline>
    <contour>
      <point x="566" y="-26" type="curve" smooth="yes"/>
      <point x="859" y="-26"/>
      <point x="1011" y="131"/>
      <point x="1011" y="373" type="curve" smooth="yes"/>
      <point x="1011" y="431" type="line" smooth="yes"/>
      <point x="1011" y="679"/>
      <point x="888" y="822"/>
      <point x="646" y="822" type="curve" smooth="yes"/>
      <point x="451" y="822"/>
      <point x="345" y="729"/>
      <point x="304" y="605" type="curve"/>
      <point x="271" y="605" type="line"/>
      <point x="285" y="433" type="line"/>
      <point x="327" y="575"/>
      <point x="439" y="662"/>
      <point x="587" y="662" type="curve" smooth="yes"/>
      <point x="752" y="662"/>
      <point x="813" y="571"/>
      <point x="813" y="428" type="curve" smooth="yes"/>
      <point x="813" y="376" type="line" smooth="yes"/>
      <point x="813" y="238"/>
      <point x="735" y="141"/>
      <point x="570" y="141" type="curve" smooth="yes"/>
      <point x="394" y="141"/>
      <point x="294" y="251"/>
      <point x="294" y="471" type="curve"/>
      <point x="294" y="762" type="line" smooth="yes"/>
      <point x="294" y="1005"/>
      <point x="404" y="1128"/>
      <point x="626" y="1128" type="curve" smooth="yes"/>
      <point x="776" y="1128"/>
      <point x="870" y="1092"/>
      <point x="957" y="1044" type="curve"/>
      <point x="937" y="1224" type="line"/>
      <point x="860" y="1263"/>
      <point x="750" y="1301"/>
      <point x="593" y="1301" type="curve" smooth="yes"/>
      <point x="266" y="1301"/>
      <point x="95" y="1106"/>
      <point x="95" y="768" type="curve" smooth="yes"/>
      <point x="95" y="494" type="line" smooth="yes"/>
      <point x="95" y="150"/>
      <point x="267" y="-26"/>
    </contour>
  </outline>
</glyph>
<glyph name="A" format="2">
  <advance width="1179"/>
  <unicode hex="0041"/>
  <anchor x="590" y="0" name="bottom"/>
  <anchor x="1176" y="0" name="ogonek"/>
  <anchor x="590" y="1278" name="top"/>
  <outline>
    <contour>
      <point x="245" y="0" type="line"/>
      <point x="577" y="1144" type="line"/>
      <point x="602" y="1144" type="line"/>
      <point x="934" y="0" type="line"/>
      <point x="1137" y="0" type="line"/>
      <point x="745" y="1278" type="line"/>
      <point x="434" y="1278" type="line"/>
      <point x="42" y="0" type="line"/>
    </contour>
    <contour>
      <point x="879" y="357" type="line"/>
      <point x="879" y="523" type="line"/>
      <point x="298" y="523" type="line"/>
      <point x="298" y="357" type="line"/>
    </contour>
  </outline>
</glyph>
<glyph name="U" format="2">
  <advance width="1234"/>
  <unicode hex="0055"/>
  <anchor x="617" y="0" name="bottom"/>
  <anchor x="876" y="5" name="ogonek"/>
  <anchor x="617" y="1278" name="top"/>
  <anchor x="1213" y="1278" name="topright"/>
  <outline>
    <contour>
      <point x="617" y="-26" type="curve" smooth="yes"/>
      <point x="950" y="-26"/>
      <point x="1102" y="144"/>
      <point x="1102" y="466" type="curve" smooth="yes"/>
      <point x="1102" y="1278" type="line"/>
      <point x="901" y="1278" type="line"/>
      <point x="901" y="460" type="line" smooth="yes"/>
      <point x="901" y="254"/>
      <point x="818" y="145"/>
      <point x="617" y="145" type="curve" smooth="yes"/>
      <point x="416" y="145"/>
      <point x="333" y="254"/>
      <point x="333" y="460" type="curve" smooth="yes"/>
      <point x="333" y="1278" type="line"/>
      <point x="132" y="1278" type="line"/>
      <point x="132" y="466" type="line" smooth="yes"/>
      <point x="132" y="144"/>
      <point x="285" y="-26"/>
    </contour>
  </outline>
</glyph>
<glyph name="bracketleft" format="2">
  <advance width="618"/>
  <unicode hex="005B"/>
  <outline>
    <contour>
      <point x="563" y="-244" type="line"/>
      <point x="563" y="-96" type="line"/>
      <point x="325" y="-96" type="line"/>
      <point x="325" y="1203" type="line"/>
      <point x="563" y="1203" type="line"/>
      <point x="563" y="1351" type="line"/>
      <point x="143" y="1351" type="line"/>
      <point x="143" y="-244" type="line"/>
    </contour>
  </outline>
</glyph>
<glyph name="underscore" format="2">
  <advance width="899"/>
  <unicode hex="005F"/>
  <outline>
    <contour>
      <point x="849" y="-223" type="line"/>
      <point x="849" y="-71" type="line"/>
      <point x="50" y="-71" type="line"/>
      <point x="50" y="-223" type="line"/>
    </contour>
  </outline>
</glyph>
<glyph name="c" format="2">
  <advance width="873"/>
  <unicode hex="0063"/>
  <anchor x="487" y="0" name="bottom"/>
  <anchor x="487" y="978" name="top"/>
  <outline>
    <contour>
      <point x="515" y="-23" type="curve" smooth="yes"/>
      <point x="638" y="-23"/>
      <point x="735" y="15"/>
      <point x="796" y="54" type="curve"/>
      <point x="813" y="224" type="line"/>
      <point x="744" y="179"/>
      <point x="659" y="143"/>
      <point x="546" y="143" type="curve" smooth="yes"/>
      <point x="367" y="143"/>
      <point x="283" y="244"/>
      <point x="283" y="424" type="curve" smooth="yes"/>
      <point x="283" y="556" type="line" smooth="yes"/>
      <point x="283" y="740"/>
      <point x="367" y="839"/>
      <point x="546" y="839" type="curve" smooth="yes"/>
      <point x="658" y="839"/>
      <point x="740" y="803"/>
      <point x="804" y="758" type="curve"/>
      <point x="787" y="926" type="line"/>
      <point x="729" y="964"/>
      <point x="634" y="1002"/>
      <point x="515" y="1002" type="curve" smooth="yes"/>
      <point x="225" y="1002"/>
      <point x="86" y="842"/>
      <point x="86" y="560" type="curve" smooth="yes"/>
      <point x="86" y="419" type="line" smooth="yes"/>
      <point x="86" y="138"/>
      <point x="224" y="-23"/>
    </contour>
  </outline>
</glyph>
<glyph name="g" format="2">
  <advance width="1035"/>
  <unicode hex="0067"/>
  <anchor x="518" y="-349" name="bottom"/>
  <anchor x="517" y="982" name="top"/>
  <outline>
    <contour>
      <point x="517" y="296" type="curve"/>
      <point x="789" y="296"/>
      <point x="930" y="408"/>
      <point x="930" y="613" type="curve" smooth="yes"/>
      <point x="930" y="624" type="line" smooth="yes"/>
      <point x="930" y="752"/>
      <point x="870" y="829"/>
      <point x="755" y="860" type="curve"/>
      <point x="755" y="871" type="line"/>
      <point x="1027" y="859" type="line"/>
      <point x="1027" y="1012" type="line"/>
      <point x="519" y="995" type="line" smooth="yes"/>
      <point x="212" y="985"/>
      <point x="91" y="857"/>
      <point x="91" y="651" type="curve" smooth="yes"/>
      <point x="91" y="635" type="line" smooth="yes"/>
      <point x="91" y="418"/>
      <point x="242" y="296"/>
    </contour>
    <contour>
      <point x="509" y="-221" type="line" smooth="yes"/>
      <point x="342" y="-221"/>
      <point x="244" y="-188"/>
      <point x="244" y="-95" type="curve"/>
      <point x="244" y="-93" type="line"/>
      <point x="244" y="-15"/>
      <point x="310" y="24"/>
      <point x="406" y="40" type="curve"/>
      <point x="357" y="38" type="line"/>
      <point x="639" y="11" type="line" smooth="yes"/>
      <point x="758" y="0"/>
      <point x="800" y="-31"/>
      <point x="800" y="-99" type="curve" smooth="yes"/>
      <point x="800" y="-102" type="line" smooth="yes"/>
      <point x="800" y="-188"/>
      <point x="703" y="-221"/>
      <point x="534" y="-221" type="curve" smooth="yes"/>
    </contour>
    <contour>
      <point x="530" y="-377" type="line" smooth="yes"/>
      <point x="813" y="-377"/>
      <point x="984" y="-295"/>
      <point x="984" y="-106" type="curve" smooth="yes"/>
      <point x="984" y="-101" type="line" smooth="yes"/>
      <point x="984" y="62"/>
      <point x="890" y="135"/>
      <point x="680" y="158" type="curve" smooth="yes"/>
      <point x="442" y="184" type="line" smooth="yes"/>
      <point x="335" y="196"/>
      <point x="295" y="212"/>
      <point x="295" y="252" type="curve"/>
      <point x="295" y="253" type="line"/>
      <point x="295" y="287"/>
      <point x="320" y="307"/>
      <point x="399" y="308" type="curve"/>
      <point x="474" y="305" type="line"/>
      <point x="268" y="355" type="line"/>
      <point x="268" y="333" type="line"/>
      <point x="163" y="323"/>
      <point x="113" y="278"/>
      <point x="113" y="202" type="curve"/>
      <point x="113" y="201" type="line"/>
      <point x="113" y="128"/>
      <point x="160" y="82"/>
      <point x="257" y="62" type="curve"/>
      <point x="257" y="52" type="line"/>
      <point x="146" y="35"/>
      <point x="62" y="-25"/>
      <point x="62" y="-138" type="curve" smooth="yes"/>
      <point x="62" y="-142" type="line" smooth="yes"/>
      <point x="62" y="-312"/>
      <point x="227" y="-377"/>
      <point x="497" y="-377" type="curve" smooth="yes"/>
    </contour>
    <contour>
      <point x="514" y="440" type="curve" smooth="yes"/>
      <point x="355" y="440"/>
      <point x="278" y="509"/>
      <point x="278" y="640" type="curve" smooth="yes"/>
      <point x="278" y="654" type="line" smooth="yes"/>
      <point x="278" y="775"/>
      <point x="345" y="853"/>
      <point x="512" y="853" type="curve" smooth="yes"/>
      <point x="517" y="853" type="line" smooth="yes"/>
      <point x="670" y="853"/>
      <point x="746" y="782"/>
      <point x="746" y="655" type="curve" smooth="yes"/>
      <point x="746" y="640" type="line" smooth="yes"/>
      <point x="746" y="509"/>
      <point x="668" y="440"/>
    </contour>
  </outline>
</glyph>
<glyph name="o" format="2">
  <advance width="1051"/>
  <unicode hex="006F"/>
  <anchor x="526" y="0" name="bottom"/>
  <anchor x="531" y="400" name="center"/>
  <anchor x="772" y="5" name="ogonek"/>
  <anchor x="526" y="978" name="top"/>
  <anchor x="953" y="978" name="topright"/>
  <outline>
    <contour>
      <point x="526" y="-25" type="curve" smooth="yes"/>
      <point x="814" y="-25"/>
      <point x="965" y="133"/>
      <point x="965" y="421" type="curve"/>
      <point x="965" y="560" type="line"/>
      <point x="965" y="847"/>
      <point x="814" y="1004"/>
      <point x="526" y="1004" type="curve" smooth="yes"/>
      <point x="238" y="1004"/>
      <point x="86" y="847"/>
      <point x="86" y="560" type="curve"/>
      <point x="86" y="421" type="line"/>
      <point x="86" y="133"/>
      <point x="238" y="-25"/>
    </contour>
    <contour>
      <point x="526" y="134" type="curve" smooth="yes"/>
      <point x="367" y="134"/>
      <point x="283" y="231"/>
      <point x="283" y="409" type="curve" smooth="yes"/>
      <point x="283" y="572" type="line" smooth="yes"/>
      <point x="283" y="748"/>
      <point x="367" y="845"/>
      <point x="526" y="845" type="curve" smooth="yes"/>
      <point x="685" y="845"/>
      <point x="769" y="748"/>
      <point x="769" y="572" type="curve" smooth="yes"/>
      <point x="769" y="409" type="line" smooth="yes"/>
      <point x="769" y="231"/>
      <point x="685" y="134"/>
    </contour>
  </outline>
</glyph>
<glyph name="q" format="2">
  <advance width="1086"/>
  <unicode hex="0071"/>
  <anchor x="535" y="0" name="bottom"/>
  <anchor x="535" y="978" name="top"/>
  <outline>
    <contour>
      <point x="445" y="-22" type="curve" smooth="yes"/>
      <point x="641" y="-22"/>
      <point x="728" y="78"/>
      <point x="761" y="201" type="curve"/>
      <point x="817" y="201" type="line"/>
      <point x="774" y="339" type="line"/>
      <point x="747" y="226"/>
      <point x="654" y="141"/>
      <point x="516" y="141" type="curve" smooth="yes"/>
      <point x="365" y="141"/>
      <point x="284" y="229"/>
      <point x="284" y="397" type="curve" smooth="yes"/>
      <point x="284" y="580" type="line" smooth="yes"/>
      <point x="284" y="753"/>
      <point x="365" y="841"/>
      <point x="514" y="841" type="curve" smooth="yes"/>
      <point x="661" y="841"/>
      <point x="764" y="760"/>
      <point x="771" y="596" type="curve"/>
      <point x="828" y="777" type="line"/>
      <point x="763" y="777" type="line"/>
      <point x="728" y="912"/>
      <point x="628" y="1000"/>
      <point x="453" y="1000" type="curve" smooth="yes"/>
      <point x="213" y="1000"/>
      <point x="87" y="848"/>
      <point x="87" y="564" type="curve" smooth="yes"/>
      <point x="87" y="409" type="line" smooth="yes"/>
      <point x="87" y="128"/>
      <point x="212" y="-22"/>
    </contour>
    <contour>
      <point x="962" y="-344" type="line"/>
      <point x="962" y="978" type="line"/>
      <point x="766" y="978" type="line"/>
      <point x="774" y="749" type="line"/>
      <point x="771" y="691" type="line"/>
      <point x="771" y="285" type="line"/>
      <point x="772" y="247" type="line"/>
      <point x="767" y="-34" type="line"/>
      <point x="767" y="-344" type="line"/>
    </contour>
  </outline>
</glyph>
<glyph name="acutecomb" format="2">
  <advance width="595"/>
  <unicode hex="0301"/>
  <anchor x="179" y="978" name="_top"/>
  <anchor x="182" y="1333" name="top"/>
  <outline>
    <contour>
      <point x="94" y="1096" type="line"/>
      <point x="94" y="1093" type="line"/>
      <point x="266" y="1093" type="line"/>
      <point x="499" y="1365" type="line"/>
      <point x="499" y="1368" type="line"/>
      <point x="283" y="1368" type="line"/>
    </contour>
  </outline>
</glyph>
<glyph name="cedillacomb" format="2">
  <advance width="588"/>
  <unicode hex="0327"/>
  <anchor x="295" y="0" name="_bottom"/>
  <anchor x="339" y="-389" name="bottom"/>
  <outline>
    <contour>
      <point x="234" y="21" type="line"/>
      <point x="212" y="-156" type="line"/>
      <point x="212" y="-156"/>
      <point x="217" y="-156"/>
      <point x="230" y="-157" type="curve" smooth="yes"/>
      <point x="343" y="-164"/>
      <point x="383" y="-177"/>
      <point x="383" y="-217" type="curve"/>
      <point x="383" y="-219" type="line"/>
      <point x="383" y="-253"/>
      <point x="347" y="-270"/>
      <point x="282" y="-270" type="curve" smooth="yes"/>
      <point x="229" y="-270"/>
      <point x="179" y="-261"/>
      <point x="138" y="-248" type="curve"/>
      <point x="160" y="-368" type="line"/>
      <point x="198" y="-378"/>
      <point x="252" y="-387"/>
      <point x="307" y="-387" type="curve" smooth="yes"/>
      <point x="450" y="-387"/>
      <point x="528" y="-338"/>
      <point x="528" y="-233" type="curve" smooth="yes"/>
      <point x="528" y="-227" type="line" smooth="yes"/>
      <point x="528" y="-134"/>
      <point x="464" y="-85"/>
      <point x="331" y="-79" type="curve" smooth="yes"/>
      <point x="308" y="-78"/>
      <point x="286" y="-79"/>
      <point x="263" y="-80" type="curve"/>
      <point x="345" y="-135" type="line"/>
      <point x="367" y="21" type="line"/>
    </contour>
  </outline>
</glyph>
<glyph name="Anuswara.kn" format="2">
  <advance width="1073"/>
  <unicode hex="0C82"/>
  <outline>
    <contour>
      <point x="104" y="495" type="line" smooth="yes"/>
      <point x="104" y="194"/>
      <point x="252" y="43"/>
      <point x="537" y="43" type="curve" smooth="yes"/>
      <point x="822" y="43"/>
      <point x="968" y="194"/>
      <point x="968" y="495" type="curve" smooth="yes"/>
      <point x="968" y="627" type="line" smooth="yes"/>
      <point x="968" y="929"/>
      <point x="822" y="1080"/>
      <point x="537" y="1080" type="curve" smooth="yes"/>
      <point x="252" y="1080"/>
      <point x="104" y="929"/>
      <point x="104" y="627" type="curve" smooth="yes"/>
    </contour>
    <contour>
      <point x="537" y="209" type="curve" smooth="yes"/>
      <point x="374" y="209"/>
      <point x="292" y="306"/>
      <point x="292" y="496" type="curve" smooth="yes"/>
      <point x="292" y="627" type="line" smooth="yes"/>
      <point x="292" y="819"/>
      <point x="374" y="915"/>
      <point x="537" y="915" type="curve" smooth="yes"/>
      <point x="698" y="915"/>
      <point x="780" y="819"/>
      <point x="780" y="627" type="curve" smooth="yes"/>
      <point x="780" y="496" type="line" smooth="yes"/>
      <point x="780" y="306"/>
      <point x="698" y="209"/>
    </contour>
  </outline>
  <guideline angle="90" x="292" y="0"/>
  <guideline angle="0" x="0" y="1114"/>
</glyph>
<glyph name="vowelA.kn" format="2">
  <advance width="1707"/>
  <unicode hex="0C85"/>
  <outline>
    <contour>
      <point x="1279" y="469" type="line"/>
      <point x="1279" y="627" type="line"/>
      <point x="735" y="627" type="line"/>
      <point x="735" y="469" type="line"/>
    </contour>
    <contour>
      <point x="1258" y="1202" type="curve" smooth="yes"/>
      <point x="1040" y="1202"/>
      <point x="929" y="1092"/>
      <point x="929" y="886" type="curve" smooth="yes"/>
      <point x="929" y="844" type="line" smooth="yes"/>
      <point x="929" y="714"/>
      <point x="981" y="651"/>
      <point x="1078" y="633" type="curve"/>
      <point x="1078" y="611" type="line"/>
      <point x="1265" y="611" type="line"/>
      <point x="1265" y="627" type="line"/>
      <point x="1164" y="627"/>
      <point x="1116" y="685"/>
      <point x="1116" y="806" type="curve" smooth="yes"/>
      <point x="1116" y="849" type="line" smooth="yes"/>
      <point x="1116" y="973"/>
      <point x="1163" y="1036"/>
      <point x="1260" y="1036" type="curve" smooth="yes"/>
      <point x="1374" y="1036"/>
      <point x="1418" y="960"/>
      <point x="1418" y="772" type="curve" smooth="yes"/>
      <point x="1418" y="626" type="line" smooth="yes"/>
      <point x="1418" y="304"/>
      <point x="1228" y="144"/>
      <point x="855" y="144" type="curve" smooth="yes"/>
      <point x="474" y="144"/>
      <point x="285" y="302"/>
      <point x="285" y="614" type="curve" smooth="yes"/>
      <point x="285" y="673" type="line"/>
      <point x="95" y="681" type="line"/>
      <point x="95" y="629" type="line" smooth="yes"/>
      <point x="95" y="193"/>
      <point x="351" y="-28"/>
      <point x="857" y="-28" type="curve" smooth="yes"/>
      <point x="1354" y="-28"/>
      <point x="1608" y="190"/>
      <point x="1608" y="623" type="curve" smooth="yes"/>
      <point x="1608" y="770" type="line" smooth="yes"/>
      <point x="1608" y="1066"/>
      <point x="1496" y="1202"/>
    </contour>
    <contour>
      <point x="446" y="1202" type="curve" smooth="yes"/>
      <point x="207" y="1202"/>
      <point x="96" y="1063"/>
      <point x="96" y="772" type="curve" smooth="yes"/>
      <point x="96" y="670" type="line"/>
      <point x="283" y="664" type="line"/>
      <point x="283" y="786" type="line" smooth="yes"/>
      <point x="283" y="960"/>
      <point x="328" y="1037"/>
      <point x="446" y="1037" type="curve" smooth="yes"/>
      <point x="542" y="1037"/>
      <point x="587" y="975"/>
      <point x="587" y="854" type="curve" smooth="yes"/>
      <point x="587" y="816" type="line" smooth="yes"/>
      <point x="587" y="706"/>
      <point x="544" y="657"/>
      <point x="457" y="657" type="curve" smooth="yes"/>
      <point x="364" y="657"/>
      <point x="299" y="700"/>
      <point x="263" y="778" type="curve"/>
      <point x="256" y="629" type="line"/>
      <point x="291" y="629" type="line"/>
      <point x="322" y="547"/>
      <point x="398" y="497"/>
      <point x="518" y="497" type="curve" smooth="yes"/>
      <point x="687" y="497"/>
      <point x="774" y="605"/>
      <point x="774" y="815" type="curve" smooth="yes"/>
      <point x="774" y="853" type="line" smooth="yes"/>
      <point x="774" y="1082"/>
      <point x="664" y="1202"/>
    </contour>
  </outline>
</glyph>
<glyph name="vowelAa.kn" format="2">
  <advance width="1683"/>
  <unicode hex="0C86"/>
  <outline>
    <contour>
      <point x="1236" y="456" type="line" smooth="yes"/>
      <point x="1315" y="456"/>
      <point x="1357" y="422"/>
      <point x="1357" y="350" type="curve" smooth="yes"/>
      <point x="1357" y="344" type="line" smooth="yes"/>
      <point x="1357" y="211"/>
      <point x="1197" y="144"/>
      <point x="901" y="144" type="curve" smooth="yes"/>
      <point x="495" y="144"/>
      <point x="292" y="296"/>
      <point x="292" y="604" type="curve" smooth="yes"/>
      <point x="292" y="671" type="line"/>
      <point x="102" y="679" type="line"/>
      <point x="102" y="619" type="line" smooth="yes"/>
      <point x="102" y="188"/>
      <point x="371" y="-28"/>
      <point x="903" y="-28" type="curve" smooth="yes"/>
      <point x="1324" y="-28"/>
      <point x="1549" y="94"/>
      <point x="1549" y="329" type="curve" smooth="yes"/>
      <point x="1549" y="338" type="line" smooth="yes"/>
      <point x="1549" y="446"/>
      <point x="1498" y="510"/>
      <point x="1398" y="524" type="curve"/>
      <point x="1398" y="530" type="line"/>
      <point x="1525" y="549"/>
      <point x="1598" y="644"/>
      <point x="1598" y="805" type="curve" smooth="yes"/>
      <point x="1598" y="870" type="line" smooth="yes"/>
      <point x="1598" y="1090"/>
      <point x="1482" y="1202"/>
      <point x="1265" y="1202" type="curve" smooth="yes"/>
      <point x="1049" y="1202"/>
      <point x="936" y="1091"/>
      <point x="936" y="879" type="curve" smooth="yes"/>
      <point x="936" y="826" type="line" smooth="yes"/>
      <point x="936" y="705"/>
      <point x="984" y="638"/>
      <point x="1062" y="620" type="curve"/>
      <point x="1062" y="614" type="line"/>
      <point x="731" y="614" type="line"/>
      <point x="731" y="456" type="line"/>
    </contour>
    <contour>
      <point x="1410" y="794" type="line" smooth="yes"/>
      <point x="1410" y="676"/>
      <point x="1360" y="616"/>
      <point x="1264" y="616" type="curve" smooth="yes"/>
      <point x="1171" y="616"/>
      <point x="1121" y="676"/>
      <point x="1121" y="794" type="curve" smooth="yes"/>
      <point x="1121" y="859" type="line" smooth="yes"/>
      <point x="1121" y="977"/>
      <point x="1170" y="1037"/>
      <point x="1265" y="1037" type="curve" smooth="yes"/>
      <point x="1360" y="1037"/>
      <point x="1410" y="977"/>
      <point x="1410" y="859" type="curve" smooth="yes"/>
    </contour>
    <contour>
      <point x="452" y="1202" type="curve" smooth="yes"/>
      <point x="213" y="1202"/>
      <point x="102" y="1063"/>
      <point x="102" y="772" type="curve" smooth="yes"/>
      <point x="102" y="670" type="line"/>
      <point x="289" y="664" type="line"/>
      <point x="289" y="786" type="line" smooth="yes"/>
      <point x="289" y="960"/>
      <point x="334" y="1037"/>
      <point x="452" y="1037" type="curve" smooth="yes"/>
      <point x="548" y="1037"/>
      <point x="593" y="975"/>
      <point x="593" y="854" type="curve" smooth="yes"/>
      <point x="593" y="816" type="line" smooth="yes"/>
      <point x="593" y="706"/>
      <point x="550" y="657"/>
      <point x="463" y="657" type="curve" smooth="yes"/>
      <point x="370" y="657"/>
      <point x="305" y="700"/>
      <point x="269" y="778" type="curve"/>
      <point x="262" y="629" type="line"/>
      <point x="297" y="629" type="line"/>
      <point x="328" y="547"/>
      <point x="404" y="497"/>
      <point x="524" y="497" type="curve" smooth="yes"/>
      <point x="693" y="497"/>
      <point x="780" y="605"/>
      <point x="780" y="815" type="curve" smooth="yes"/>
      <point x="780" y="853" type="line" smooth="yes"/>
      <point x="780" y="1082"/>
      <point x="670" y="1202"/>
    </contour>
  </outline>
</glyph>
<glyph name="Nga.kn" format="2">
  <advance width="1554"/>
  <unicode hex="0C99"/>
  <outline>
    <contour>
      <point x="1076" y="1202" type="curve" smooth="yes"/>
      <point x="856" y="1202"/>
      <point x="749" y="1098"/>
      <point x="734" y="919" type="curve"/>
      <point x="817" y="859" type="line"/>
      <point x="833" y="974"/>
      <point x="905" y="1041"/>
      <point x="1042" y="1041" type="curve" smooth="yes"/>
      <point x="1184" y="1041"/>
      <point x="1256" y="970"/>
      <point x="1256" y="827" type="curve" smooth="yes"/>
      <point x="1256" y="822" type="line" smooth="yes"/>
      <point x="1256" y="790"/>
      <point x="1254" y="761"/>
      <point x="1251" y="739" type="curve"/>
      <point x="1435" y="739" type="line"/>
      <point x="1440" y="764"/>
      <point x="1442" y="804"/>
      <point x="1442" y="843" type="curve" smooth="yes"/>
      <point x="1442" y="851" type="line" smooth="yes"/>
      <point x="1442" y="1077"/>
      <point x="1316" y="1202"/>
    </contour>
    <contour>
      <point x="1015" y="479" type="curve" smooth="yes"/>
      <point x="1079" y="479"/>
      <point x="1109" y="517"/>
      <point x="1109" y="612" type="curve" smooth="yes"/>
      <point x="1109" y="658" type="line" smooth="yes"/>
      <point x="1109" y="753"/>
      <point x="1079" y="792"/>
      <point x="1015" y="792" type="curve" smooth="yes"/>
      <point x="953" y="792"/>
      <point x="923" y="753"/>
      <point x="923" y="658" type="curve" smooth="yes"/>
      <point x="923" y="612" type="line" smooth="yes"/>
      <point x="923" y="517"/>
      <point x="953" y="479"/>
    </contour>
    <contour>
      <point x="1265" y="358" type="curve" smooth="yes"/>
      <point x="1265" y="347" type="line" smooth="yes"/>
      <point x="1265" y="215"/>
      <point x="1205" y="147"/>
      <point x="1080" y="147" type="curve" smooth="yes"/>
      <point x="950" y="147"/>
      <point x="888" y="218"/>
      <point x="883" y="366" type="curve" smooth="yes"/>
      <point x="880" y="451" type="line"/>
      <point x="778" y="451" type="line"/>
      <point x="788" y="213" type="line"/>
      <point x="802" y="60"/>
      <point x="907" y="-27"/>
      <point x="1110" y="-27" type="curve" smooth="yes"/>
      <point x="1338" y="-27"/>
      <point x="1457" y="96"/>
      <point x="1457" y="322" type="curve" smooth="yes"/>
      <point x="1457" y="336" type="line" smooth="yes"/>
      <point x="1457" y="389"/>
      <point x="1449" y="436"/>
      <point x="1434" y="477" type="curve"/>
      <point x="1249" y="477" type="line"/>
      <point x="1259" y="440"/>
      <point x="1265" y="400"/>
    </contour>
    <contour>
      <point x="471" y="1203" type="curve" smooth="yes"/>
      <point x="240" y="1203"/>
      <point x="117" y="1093"/>
      <point x="117" y="879" type="curve" smooth="yes"/>
      <point x="117" y="871" type="line" smooth="yes"/>
      <point x="117" y="791"/>
      <point x="134" y="727"/>
      <point x="156" y="686" type="curve"/>
      <point x="332" y="686" type="line"/>
      <point x="312" y="736"/>
      <point x="299" y="793"/>
      <point x="299" y="862" type="curve" smooth="yes"/>
      <point x="299" y="868" type="line" smooth="yes"/>
      <point x="299" y="983"/>
      <point x="356" y="1038"/>
      <point x="467" y="1038" type="curve" smooth="yes"/>
      <point x="578" y="1038"/>
      <point x="634" y="987"/>
      <point x="634" y="882" type="curve" smooth="yes"/>
      <point x="634" y="876" type="line" smooth="yes"/>
      <point x="634" y="784"/>
      <point x="591" y="736"/>
      <point x="469" y="681" type="curve" smooth="yes"/>
      <point x="375" y="639" type="line" smooth="yes"/>
      <point x="178" y="551"/>
      <point x="93" y="464"/>
      <point x="93" y="296" type="curve" smooth="yes"/>
      <point x="93" y="287" type="line" smooth="yes"/>
      <point x="93" y="81"/>
      <point x="217" y="-27"/>
      <point x="448" y="-27" type="curve" smooth="yes"/>
      <point x="656" y="-27"/>
      <point x="766" y="60"/>
      <point x="782" y="213" type="curve"/>
      <point x="796" y="213" type="line"/>
      <point x="796" y="451" type="line"/>
      <point x="691" y="451" type="line"/>
      <point x="687" y="366" type="line" smooth="yes"/>
      <point x="679" y="218"/>
      <point x="612" y="147"/>
      <point x="468" y="147" type="curve" smooth="yes"/>
      <point x="346" y="147"/>
      <point x="283" y="200"/>
      <point x="283" y="299" type="curve" smooth="yes"/>
      <point x="283" y="305" type="line" smooth="yes"/>
      <point x="283" y="398"/>
      <point x="335" y="442"/>
      <point x="468" y="505" type="curve" smooth="yes"/>
      <point x="565" y="550" type="line" smooth="yes"/>
      <point x="743" y="634"/>
      <point x="819" y="718"/>
      <point x="819" y="880" type="curve" smooth="yes"/>
      <point x="819" y="888" type="line" smooth="yes"/>
      <point x="819" y="1095"/>
      <point x="699" y="1203"/>
    </contour>
  </outline>
  <guideline angle="90" x="1184" y="0"/>
</glyph>
<glyph name="Ya.kn" format="2">
  <advance width="2532"/>
  <unicode hex="0CAF"/>
  <outline>
    <component base="matraU.kn" xOffset="1884"/>
    <contour>
      <point x="1254" y="1031" type="line"/>
      <point x="1254" y="1011" type="line"/>
      <point x="1467" y="1011"/>
      <point x="1569" y="899.302"/>
      <point x="1569" y="641" type="curve" smooth="yes"/>
      <point x="1569" y="457" type="line" smooth="yes"/>
      <point x="1569" y="245"/>
      <point x="1497" y="146"/>
      <point x="1333" y="146" type="curve" smooth="yes"/>
      <point x="1180" y="146"/>
      <point x="1103" y="233.997"/>
      <point x="1103" y="399" type="curve" smooth="yes"/>
      <point x="1103" y="517" type="line"/>
      <point x="1010" y="516" type="line"/>
      <point x="1010" y="315" type="line" smooth="yes"/>
      <point x="1010" y="98"/>
      <point x="1127" y="-27"/>
      <point x="1366" y="-27" type="curve" smooth="yes"/>
      <point x="1633" y="-27"/>
      <point x="1761" y="132"/>
      <point x="1761" y="451" type="curve" smooth="yes"/>
      <point x="1761" y="608" type="line" smooth="yes"/>
      <point x="1761" y="855.749"/>
      <point x="1687.69" y="972.161"/>
      <point x="1548" y="1004" type="curve"/>
      <point x="1548" y="1031" type="line"/>
    </contour>
    <contour>
      <point x="1205" y="1171" type="line"/>
      <point x="1205" y="1011" type="line"/>
      <point x="1488" y="1011" type="line"/>
      <point x="1488" y="1171" type="line"/>
    </contour>
    <contour>
      <point x="1104" y="694" type="line" smooth="yes"/>
      <point x="1104" y="1034"/>
      <point x="933" y="1208"/>
      <point x="608" y="1208" type="curve" smooth="yes"/>
      <point x="284" y="1208"/>
      <point x="114" y="1034"/>
      <point x="114" y="694" type="curve" smooth="yes"/>
      <point x="114" y="485" type="line" smooth="yes"/>
      <point x="114" y="146"/>
      <point x="285" y="-29"/>
      <point x="609" y="-29" type="curve" smooth="yes"/>
      <point x="934" y="-29"/>
      <point x="1104" y="147"/>
      <point x="1104" y="488" type="curve" smooth="yes"/>
    </contour>
    <contour>
      <point x="609" y="142" type="curve" smooth="yes"/>
      <point x="409" y="142"/>
      <point x="306" y="260"/>
      <point x="306" y="486" type="curve" smooth="yes"/>
      <point x="306" y="693" type="line" smooth="yes"/>
      <point x="306" y="919"/>
      <point x="408" y="1037"/>
      <point x="608" y="1037" type="curve" smooth="yes"/>
      <point x="808" y="1037"/>
      <point x="912" y="918"/>
      <point x="912" y="692" type="curve" smooth="yes"/>
      <point x="912" y="486" type="line" smooth="yes"/>
      <point x="912" y="260"/>
      <point x="809" y="142"/>
    </contour>
    <contour>
      <point x="1536" y="1535" type="line"/>
      <point x="1569" y="1463"/>
      <point x="1593" y="1384"/>
      <point x="1593" y="1306" type="curve" smooth="yes"/>
      <point x="1593" y="1210"/>
      <point x="1556" y="1171"/>
      <point x="1465" y="1171" type="curve" smooth="yes"/>
      <point x="1402" y="1171" type="line"/>
      <point x="1416" y="1010" type="line"/>
      <point x="1534" y="1010" type="line" smooth="yes"/>
      <point x="1693" y="1010"/>
      <point x="1770" y="1093.65"/>
      <point x="1770" y="1268" type="curve" smooth="yes"/>
      <point x="1770" y="1371"/>
      <point x="1742" y="1462"/>
      <point x="1693" y="1535" type="curve"/>
    </contour>
  </outline>
  <guideline angle="90" x="2309" y="0"/>
  <guideline angle="90" x="340" y="0"/>
</glyph>
<glyph name="RraObsolete.kn" format="2">
  <advance width="1740"/>
  <unicode hex="0CB1"/>
  <outline>
    <contour>
      <point x="111" y="672" type="line"/>
      <point x="111" y="457" type="line" smooth="yes"/>
      <point x="111" y="131"/>
      <point x="248" y="-27"/>
      <point x="517" y="-27" type="curve" smooth="yes"/>
      <point x="734" y="-27"/>
      <point x="849" y="69"/>
      <point x="867" y="240" type="curve"/>
      <point x="873" y="240" type="line"/>
      <point x="891" y="69"/>
      <point x="1006" y="-27"/>
      <point x="1223" y="-27" type="curve" smooth="yes"/>
      <point x="1492" y="-27"/>
      <point x="1629" y="131"/>
      <point x="1629" y="457" type="curve" smooth="yes"/>
      <point x="1629" y="770" type="line" smooth="yes"/>
      <point x="1629" y="1066"/>
      <point x="1516" y="1202"/>
      <point x="1276" y="1202" type="curve" smooth="yes"/>
      <point x="1056" y="1202"/>
      <point x="944" y="1091"/>
      <point x="944" y="883" type="curve" smooth="yes"/>
      <point x="944" y="868" type="line" smooth="yes"/>
      <point x="944" y="742"/>
      <point x="997" y="681"/>
      <point x="1098" y="664" type="curve"/>
      <point x="1098" y="642" type="line"/>
      <point x="1291" y="642" type="line"/>
      <point x="1291" y="658" type="line"/>
      <point x="1182" y="658"/>
      <point x="1131" y="715"/>
      <point x="1131" y="836" type="curve" smooth="yes"/>
      <point x="1131" y="846" type="line" smooth="yes"/>
      <point x="1131" y="972"/>
      <point x="1179" y="1036"/>
      <point x="1278" y="1036" type="curve" smooth="yes"/>
      <point x="1394" y="1036"/>
      <point x="1439" y="960"/>
      <point x="1439" y="772" type="curve" smooth="yes"/>
      <point x="1439" y="462" type="line" smooth="yes"/>
      <point x="1439" y="246"/>
      <point x="1360" y="147"/>
      <point x="1195" y="147" type="curve" smooth="yes"/>
      <point x="1044" y="147"/>
      <point x="979" y="225"/>
      <point x="969" y="389" type="curve" smooth="yes"/>
      <point x="966" y="433" type="line"/>
      <point x="774" y="433" type="line"/>
      <point x="771" y="389" type="line" smooth="yes"/>
      <point x="761" y="225"/>
      <point x="696" y="147"/>
      <point x="545" y="147" type="curve" smooth="yes"/>
      <point x="379" y="147"/>
      <point x="300" y="246"/>
      <point x="300" y="462" type="curve" smooth="yes"/>
      <point x="300" y="709" type="line"/>
    </contour>
    <contour>
      <point x="1321" y="503" type="line"/>
      <point x="1321" y="658" type="line"/>
      <point x="545" y="658" type="line"/>
      <point x="537" y="503" type="line"/>
    </contour>
    <contour>
      <point x="537" y="503" type="curve"/>
      <point x="709" y="572"/>
      <point x="798" y="634"/>
      <point x="798" y="829" type="curve" smooth="yes"/>
      <point x="798" y="851" type="line" smooth="yes"/>
      <point x="798" y="1082"/>
      <point x="686" y="1202"/>
      <point x="465" y="1202" type="curve" smooth="yes"/>
      <point x="223" y="1202"/>
      <point x="111" y="1064"/>
      <point x="111" y="771" type="curve" smooth="yes"/>
      <point x="111" y="644" type="line"/>
      <point x="298" y="669" type="line"/>
      <point x="298" y="785" type="line" smooth="yes"/>
      <point x="298" y="960"/>
      <point x="343" y="1037"/>
      <point x="464" y="1037" type="curve" smooth="yes"/>
      <point x="564" y="1037"/>
      <point x="611" y="975"/>
      <point x="611" y="854" type="curve" smooth="yes"/>
      <point x="611" y="826" type="line" smooth="yes"/>
      <point x="611" y="713"/>
      <point x="566" y="663"/>
      <point x="476" y="663" type="curve" smooth="yes"/>
      <point x="381" y="663"/>
      <point x="315" y="710"/>
      <point x="278" y="794" type="curve"/>
      <point x="271" y="645" type="line"/>
      <point x="306" y="645" type="line"/>
      <point x="338" y="557"/>
      <point x="415" y="503"/>
    </contour>
  </outline>
  <guideline angle="90" x="491" y="0"/>
  <guideline angle="90" x="912" y="0"/>
</glyph>
<glyph name="La.kn" format="2">
  <advance width="1481"/>
  <unicode hex="0CB2"/>
  <outline>
    <contour>
      <point x="291" y="650" type="line"/>
      <point x="291" y="777" type="line" smooth="yes"/>
      <point x="291" y="958"/>
      <point x="338" y="1037"/>
      <point x="466" y="1037" type="curve" smooth="yes"/>
      <point x="572" y="1037"/>
      <point x="622" y="972.063"/>
      <point x="622" y="845" type="curve" smooth="yes"/>
      <point x="622" y="816" type="line" smooth="yes"/>
      <point x="622" y="696.933"/>
      <point x="574" y="644"/>
      <point x="478" y="644" type="curve" smooth="yes"/>
      <point x="379" y="644"/>
      <point x="310" y="691"/>
      <point x="271" y="775" type="curve"/>
      <point x="264" y="626" type="line"/>
      <point x="299" y="626" type="line"/>
      <point x="332" y="538"/>
      <point x="412" y="484"/>
      <point x="539" y="484" type="curve" smooth="yes"/>
      <point x="717" y="484"/>
      <point x="809" y="596"/>
      <point x="809" y="813" type="curve" smooth="yes"/>
      <point x="809" y="842" type="line" smooth="yes"/>
      <point x="809" y="1079"/>
      <point x="694" y="1202"/>
      <point x="467" y="1202" type="curve" smooth="yes"/>
      <point x="219" y="1202"/>
      <point x="104" y="1061"/>
      <point x="104" y="763" type="curve" smooth="yes"/>
      <point x="104" y="640" type="line"/>
    </contour>
    <contour>
      <point x="104" y="657" type="line"/>
      <point x="104" y="573" type="line" smooth="yes"/>
      <point x="104" y="175"/>
      <point x="321" y="-29"/>
      <point x="743" y="-29" type="curve" smooth="yes"/>
      <point x="1158" y="-29"/>
      <point x="1371" y="170"/>
      <point x="1371" y="560" type="curve" smooth="yes"/>
      <point x="1371" y="712" type="line" smooth="yes"/>
      <point x="1371" y="1032"/>
      <point x="1249" y="1186"/>
      <point x="1001" y="1186" type="curve" smooth="yes"/>
      <point x="977" y="1186"/>
      <point x="952" y="1184"/>
      <point x="929" y="1181" type="curve"/>
      <point x="929" y="1011" type="line"/>
      <point x="942" y="1013"/>
      <point x="955" y="1013"/>
      <point x="967" y="1013" type="curve" smooth="yes"/>
      <point x="1111" y="1013"/>
      <point x="1179" y="921"/>
      <point x="1179" y="713" type="curve" smooth="yes"/>
      <point x="1179" y="562" type="line" smooth="yes"/>
      <point x="1179" y="286"/>
      <point x="1037" y="143"/>
      <point x="743" y="143" type="curve" smooth="yes"/>
      <point x="444" y="143"/>
      <point x="292" y="288"/>
      <point x="292" y="573" type="curve" smooth="yes"/>
      <point x="292" y="659" type="line"/>
    </contour>
  </outline>
</glyph>
<glyph name="Nukta1.kn" format="2">
  <unicode hex="0CBC"/>
  <anchor x="0" y="0" name="_nukta"/>
  <outline>
    <contour>
      <point x="-225" y="-129" type="curve" smooth="yes"/>
      <point x="-285" y="-129"/>
      <point x="-320" y="-164"/>
      <point x="-320" y="-236" type="curve" smooth="yes"/>
      <point x="-320" y="-308"/>
      <point x="-285" y="-344"/>
      <point x="-225" y="-344" type="curve" smooth="yes"/>
      <point x="-165" y="-344"/>
      <point x="-130" y="-308"/>
      <point x="-130" y="-236" type="curve" smooth="yes"/>
      <point x="-130" y="-164"/>
      <point x="-165" y="-129"/>
    </contour>
    <contour>
      <point x="226" y="-129" type="curve" smooth="yes"/>
      <point x="166" y="-129"/>
      <point x="130" y="-164"/>
      <point x="130" y="-236" type="curve" smooth="yes"/>
      <point x="130" y="-308"/>
      <point x="166" y="-344"/>
      <point x="226" y="-344" type="curve" smooth="yes"/>
      <point x="286" y="-344"/>
      <point x="320" y="-308"/>
      <point x="320" y="-236" type="curve" smooth="yes"/>
      <point x="320" y="-164"/>
      <point x="286" y="-129"/>
    </contour>
  </outline>
</glyph>
<glyph name="matraU.kn" format="2">
  <advance width="648"/>
  <unicode hex="0CC1"/>
  <outline>
    <contour>
      <point x="146" y="1184" type="curve" smooth="yes"/>
      <point x="119" y="1184"/>
      <point x="94" y="1182"/>
      <point x="67" y="1179" type="curve"/>
      <point x="67" y="1009" type="line"/>
      <point x="83" y="1011"/>
      <point x="98" y="1011"/>
      <point x="111" y="1011" type="curve" smooth="yes"/>
      <point x="267" y="1011"/>
      <point x="341" y="913"/>
      <point x="341" y="684" type="curve" smooth="yes"/>
      <point x="341" y="457" type="line" smooth="yes"/>
      <point x="341" y="245"/>
      <point x="269" y="146"/>
      <point x="105" y="146" type="curve" smooth="yes"/>
      <point x="-48" y="146"/>
      <point x="-125" y="234"/>
      <point x="-125" y="399" type="curve" smooth="yes"/>
      <point x="-125" y="407" type="line"/>
      <point x="-208" y="407" type="line"/>
      <point x="-208" y="325" type="line" smooth="yes"/>
      <point x="-208" y="101"/>
      <point x="-92" y="-27"/>
      <point x="143" y="-27" type="curve" smooth="yes"/>
      <point x="407" y="-27"/>
      <point x="533" y="132"/>
      <point x="533" y="451" type="curve" smooth="yes"/>
      <point x="533" y="684" type="line" smooth="yes"/>
      <point x="533" y="1023"/>
      <point x="405" y="1184"/>
    </contour>
  </outline>
  <guideline angle="90" x="-38" y="0"/>
  <guideline angle="90" x="-110" y="0"/>
  <guideline angle="90" x="344" y="0"/>
</glyph>
<glyph name="Halant.kn" format="2">
  <advance width="666"/>
  <unicode hex="0CCD"/>
  <outline>
    <contour>
      <point x="177" y="1061" type="line"/>
      <point x="177" y="1114" type="line" smooth="yes"/>
      <point x="177" y="1288"/>
      <point x="243" y="1371"/>
      <point x="398" y="1371" type="curve" smooth="yes"/>
      <point x="468" y="1371"/>
      <point x="534" y="1356"/>
      <point x="593" y="1325" type="curve"/>
      <point x="571" y="1487" type="line"/>
      <point x="516" y="1514"/>
      <point x="450" y="1530"/>
      <point x="370" y="1530" type="curve" smooth="yes"/>
      <point x="124" y="1530"/>
      <point x="0" y="1388"/>
      <point x="0" y="1111" type="curve" smooth="yes"/>
      <point x="0" y="1059" type="line"/>
    </contour>
    <contour>
      <point x="316" y="542" type="curve" smooth="yes"/>
      <point x="521" y="542"/>
      <point x="620" y="649"/>
      <point x="620" y="846" type="curve" smooth="yes"/>
      <point x="620" y="864" type="line" smooth="yes"/>
      <point x="620" y="1074"/>
      <point x="524" y="1171"/>
      <point x="307" y="1171" type="curve" smooth="yes"/>
      <point x="-524" y="1171" type="line"/>
      <point x="-524" y="1010" type="line"/>
      <point x="96" y="1010" type="line"/>
      <point x="101" y="1013" type="line"/>
      <point x="289" y="1013" type="line" smooth="yes"/>
      <point x="401" y="1013"/>
      <point x="443" y="968.6"/>
      <point x="443" y="865" type="curve" smooth="yes"/>
      <point x="443" y="849" type="line" smooth="yes"/>
      <point x="443" y="750"/>
      <point x="401" y="700"/>
      <point x="316" y="700" type="curve" smooth="yes"/>
      <point x="216" y="700"/>
      <point x="177" y="762"/>
      <point x="177" y="894" type="curve" smooth="yes"/>
      <point x="177" y="1066" type="line"/>
      <point x="0" y="1066" type="line"/>
      <point x="0" y="891" type="line" smooth="yes"/>
      <point x="0" y="655"/>
      <point x="105" y="542"/>
    </contour>
  </outline>
  <guideline angle="0" x="0" y="1808"/>
</glyph>
<glyph name="Ondu.kn" format="2">
  <advance width="1252"/>
  <unicode hex="0CE7"/>
  <outline>
    <contour>
      <point x="626" y="1208" type="curve" smooth="yes"/>
      <point x="288" y="1208"/>
      <point x="115" y="1026"/>
      <point x="115" y="667" type="curve" smooth="yes"/>
      <point x="115" y="489" type="line" smooth="yes"/>
      <point x="115" y="270"/>
      <point x="156" y="110"/>
      <point x="240" y="0" type="curve"/>
      <point x="444" y="0" type="line"/>
      <point x="358" y="133"/>
      <point x="307" y="283"/>
      <point x="307" y="490" type="curve" smooth="yes"/>
      <point x="307" y="664" type="line" smooth="yes"/>
      <point x="307" y="912"/>
      <point x="414" y="1037"/>
      <point x="626" y="1037" type="curve" smooth="yes"/>
      <point x="838" y="1037"/>
      <point x="945" y="912"/>
      <point x="945" y="664" type="curve" smooth="yes"/>
      <point x="945" y="490" type="line" smooth="yes"/>
      <point x="945" y="283"/>
      <point x="894" y="133"/>
      <point x="808" y="0" type="curve"/>
      <point x="1012" y="0" type="line"/>
      <point x="1096" y="110"/>
      <point x="1137" y="270"/>
      <point x="1137" y="489" type="curve" smooth="yes"/>
      <point x="1137" y="667" type="line" smooth="yes"/>
      <point x="1137" y="1026"/>
      <point x="964" y="1208"/>
    </contour>
  </outline>
</glyph>
<glyph name="Eradu.kn" format="2">
  <advance width="1416"/>
  <unicode hex="0CE8"/>
  <outline>
    <contour>
      <point x="279" y="726" type="line"/>
      <point x="279" y="679" type="line" smooth="yes"/>
      <point x="279" y="450"/>
      <point x="399" y="339"/>
      <point x="617" y="339" type="curve" smooth="yes"/>
      <point x="830" y="339"/>
      <point x="935" y="441"/>
      <point x="935" y="632" type="curve" smooth="yes"/>
      <point x="935" y="658" type="line" smooth="yes"/>
      <point x="935" y="838"/>
      <point x="851" y="933"/>
      <point x="686" y="933" type="curve" smooth="yes"/>
      <point x="573.996" y="933"/>
      <point x="502" y="876"/>
      <point x="471" y="791" type="curve"/>
      <point x="442" y="791" type="line"/>
      <point x="456" y="664" type="line"/>
      <point x="484" y="741"/>
      <point x="538" y="781"/>
      <point x="619" y="781" type="curve" smooth="yes"/>
      <point x="703" y="781"/>
      <point x="749" y="738"/>
      <point x="749" y="649" type="curve" smooth="yes"/>
      <point x="749" y="633" type="line" smooth="yes"/>
      <point x="749" y="540"/>
      <point x="703" y="497"/>
      <point x="615" y="497" type="curve" smooth="yes"/>
      <point x="516" y="497"/>
      <point x="465" y="556"/>
      <point x="465" y="670" type="curve" smooth="yes"/>
      <point x="465" y="751" type="line"/>
    </contour>
    <contour>
      <point x="465" y="747" type="line"/>
      <point x="465" y="771" type="line" smooth="yes"/>
      <point x="465" y="946"/>
      <point x="575" y="1041"/>
      <point x="775" y="1041" type="curve" smooth="yes"/>
      <point x="1008" y="1041"/>
      <point x="1125" y="917"/>
      <point x="1125" y="678" type="curve" smooth="yes"/>
      <point x="1125" y="589" type="line" smooth="yes"/>
      <point x="1125" y="300.675"/>
      <point x="982" y="162"/>
      <point x="666" y="162" type="curve" smooth="yes"/>
      <point x="6" y="162" type="line"/>
      <point x="32" y="0" type="line"/>
      <point x="704" y="0" type="line" smooth="yes"/>
      <point x="1114" y="0"/>
      <point x="1315" y="196"/>
      <point x="1315" y="583" type="curve" smooth="yes"/>
      <point x="1315" y="674" type="line" smooth="yes"/>
      <point x="1315" y="1022"/>
      <point x="1135" y="1201"/>
      <point x="783" y="1201" type="curve" smooth="yes"/>
      <point x="454" y="1201"/>
      <point x="279" y="1045"/>
      <point x="279" y="734" type="curve" smooth="yes"/>
      <point x="279" y="723" type="line"/>
    </contour>
  </outline>
  <guideline angle="90" x="403" y="0"/>
</glyph>
<glyph name="Nalku.kn" format="2">
  <advance width="1361"/>
  <unicode hex="0CEA"/>
  <outline>
    <contour>
      <point x="693" y="375" type="curve" smooth="yes"/>
      <point x="812" y="375"/>
      <point x="872" y="333"/>
      <point x="872" y="249" type="curve" smooth="yes"/>
      <point x="872" y="243" type="line" smooth="yes"/>
      <point x="872" y="158"/>
      <point x="812" y="117"/>
      <point x="693" y="117" type="curve" smooth="yes"/>
      <point x="575" y="117"/>
      <point x="514" y="158"/>
      <point x="514" y="243" type="curve" smooth="yes"/>
      <point x="514" y="249" type="line" smooth="yes"/>
      <point x="514" y="333"/>
      <point x="575" y="375"/>
    </contour>
    <contour>
      <point x="693" y="480" type="line"/>
      <point x="530" y="443" type="line"/>
      <point x="398" y="419"/>
      <point x="329" y="351"/>
      <point x="329" y="225" type="curve" smooth="yes"/>
      <point x="329" y="217" type="line" smooth="yes"/>
      <point x="329" y="48"/>
      <point x="459" y="-38"/>
      <point x="693" y="-38" type="curve" smooth="yes"/>
      <point x="928" y="-38"/>
      <point x="1057" y="48"/>
      <point x="1057" y="217" type="curve" smooth="yes"/>
      <point x="1057" y="225" type="line" smooth="yes"/>
      <point x="1057" y="351"/>
      <point x="988" y="419"/>
      <point x="856" y="443" type="curve"/>
    </contour>
    <contour>
      <point x="584" y="380" type="curve"/>
      <point x="703" y="437" type="line"/>
      <point x="818" y="385" type="line"/>
      <point x="1130" y="394"/>
      <point x="1295" y="536"/>
      <point x="1295" y="791" type="curve" smooth="yes"/>
      <point x="1295" y="813" type="line" smooth="yes"/>
      <point x="1295" y="1059"/>
      <point x="1177" y="1186"/>
      <point x="943" y="1186" type="curve" smooth="yes"/>
      <point x="915" y="1186"/>
      <point x="889" y="1184"/>
      <point x="865" y="1180" type="curve"/>
      <point x="865" y="1017" type="line"/>
      <point x="879" y="1018"/>
      <point x="893" y="1019"/>
      <point x="912" y="1019" type="curve" smooth="yes"/>
      <point x="1040" y="1019"/>
      <point x="1104" y="950"/>
      <point x="1104" y="809" type="curve" smooth="yes"/>
      <point x="1104" y="794" type="line" smooth="yes"/>
      <point x="1104" y="611"/>
      <point x="964" y="519"/>
      <point x="690" y="519" type="curve" smooth="yes"/>
      <point x="391" y="519"/>
      <point x="249" y="609"/>
      <point x="249" y="782" type="curve" smooth="yes"/>
      <point x="249" y="805" type="line"/>
      <point x="63" y="826" type="line"/>
      <point x="63" y="801" type="line" smooth="yes"/>
      <point x="63" y="518"/>
      <point x="246" y="385"/>
    </contour>
    <contour>
      <point x="247" y="798" type="line"/>
      <point x="247" y="845" type="line" smooth="yes"/>
      <point x="247" y="972"/>
      <point x="297" y="1042"/>
      <point x="407" y="1042" type="curve" smooth="yes"/>
      <point x="500" y="1042"/>
      <point x="545" y="996"/>
      <point x="545" y="911" type="curve" smooth="yes"/>
      <point x="545" y="904" type="line" smooth="yes"/>
      <point x="545" y="823"/>
      <point x="500" y="782"/>
      <point x="416" y="782" type="curve" smooth="yes"/>
      <point x="331" y="782"/>
      <point x="270" y="819"/>
      <point x="238" y="882" type="curve"/>
      <point x="212" y="764" type="line"/>
      <point x="254" y="764" type="line"/>
      <point x="289" y="685"/>
      <point x="367" y="634"/>
      <point x="484" y="634" type="curve" smooth="yes"/>
      <point x="645" y="634"/>
      <point x="730" y="725"/>
      <point x="730" y="897" type="curve" smooth="yes"/>
      <point x="730" y="910" type="line" smooth="yes"/>
      <point x="730" y="1100"/>
      <point x="620" y="1203"/>
      <point x="408" y="1203" type="curve" smooth="yes"/>
      <point x="182" y="1203"/>
      <point x="63" y="1073"/>
      <point x="63" y="839" type="curve" smooth="yes"/>
      <point x="63" y="819" type="line"/>
    </contour>
  </outline>
</glyph>
<glyph name="endash" format="2">
  <advance width="1026"/>
  <unicode hex="2013"/>
  <outline>
    <contour>
      <point x="912" y="442" type="line"/>
      <point x="912" y="602" type="line"/>
      <point x="114" y="602" type="line"/>
      <point x="114" y="442" type="line"/>
    </contour>
  </outline>
</glyph>
<glyph name="guilsinglright" format="2">
  <advance width="570"/>
  <unicode hex="203A"/>
  <outline>
    <contour>
      <point x="41" y="886" type="line"/>
      <point x="233" y="886" type="line"/>
      <point x="505" y="512" type="line"/>
      <point x="505" y="468" type="line"/>
      <point x="233" y="88" type="line"/>
      <point x="41" y="88" type="line"/>
      <point x="324" y="490" type="line"/>
    </contour>
  </outline>
</glyph>
<glyph name="foursuperior" format="2">
  <advance width="655"/>
  <unicode hex="2074"/>
  <outline>
    <contour>
      <point x="545" y="726" type="line"/>
      <point x="545" y="1404" type="line"/>
      <point x="322" y="1404" type="line"/>
      <point x="30" y="967" type="line"/>
      <point x="30" y="839" type="line"/>
      <point x="638" y="839" type="line"/>
      <point x="638" y="955" type="line"/>
      <point x="111" y="955" type="line"/>
      <point x="178" y="915" type="line"/>
      <point x="178" y="963" type="line"/>
      <point x="400" y="1305" type="line"/>
      <point x="414" y="1305" type="line"/>
      <point x="409" y="1134" type="line"/>
      <point x="409" y="726" type="line"/>
    </contour>
  </outline>
</glyph>
<glyph name="BamatraI.kn" format="2">
  <advance width="1622"/>
  <outline>
    <contour>
      <point x="471" y="1203" type="curve" smooth="yes"/>
      <point x="240" y="1203"/>
      <point x="117" y="1093"/>
      <point x="117" y="879" type="curve" smooth="yes"/>
      <point x="117" y="871" type="line" smooth="yes"/>
      <point x="117" y="791"/>
      <point x="134" y="727"/>
      <point x="156" y="686" type="curve"/>
      <point x="332" y="686" type="line"/>
      <point x="312" y="736"/>
      <point x="299" y="793"/>
      <point x="299" y="862" type="curve" smooth="yes"/>
      <point x="299" y="868" type="line" smooth="yes"/>
      <point x="299" y="983"/>
      <point x="356" y="1038"/>
      <point x="467" y="1038" type="curve" smooth="yes"/>
      <point x="578" y="1038"/>
      <point x="634" y="987"/>
      <point x="634" y="882" type="curve" smooth="yes"/>
      <point x="634" y="876" type="line" smooth="yes"/>
      <point x="634" y="784"/>
      <point x="591" y="736"/>
      <point x="469" y="681" type="curve" smooth="yes"/>
      <point x="375" y="639" type="line" smooth="yes"/>
      <point x="178" y="551"/>
      <point x="93" y="464"/>
      <point x="93" y="296" type="curve" smooth="yes"/>
      <point x="93" y="287" type="line" smooth="yes"/>
      <point x="93" y="81"/>
      <point x="220" y="-27"/>
      <point x="458" y="-27" type="curve" smooth="yes"/>
      <point x="672" y="-27"/>
      <point x="786" y="60"/>
      <point x="802" y="213" type="curve"/>
      <point x="817" y="213" type="line"/>
      <point x="814" y="451" type="line"/>
      <point x="711" y="451" type="line"/>
      <point x="707" y="366" type="line" smooth="yes"/>
      <point x="700" y="218"/>
      <point x="629" y="147"/>
      <point x="478" y="147" type="curve" smooth="yes"/>
      <point x="349" y="147"/>
      <point x="283" y="200"/>
      <point x="283" y="299" type="curve" smooth="yes"/>
      <point x="283" y="305" type="line" smooth="yes"/>
      <point x="283" y="398"/>
      <point x="335" y="442"/>
      <point x="468" y="505" type="curve" smooth="yes"/>
      <point x="565" y="550" type="line" smooth="yes"/>
      <point x="743" y="634"/>
      <point x="819" y="718"/>
      <point x="819" y="880" type="curve" smooth="yes"/>
      <point x="819" y="888" type="line" smooth="yes"/>
      <point x="819" y="1095"/>
      <point x="699" y="1203"/>
    </contour>
    <contour>
      <point x="1501" y="435" type="curve" smooth="yes"/>
      <point x="1501" y="827" type="line" smooth="yes"/>
      <point x="1501" y="903"/>
      <point x="1500" y="982"/>
      <point x="1495" y="1057" type="curve" smooth="yes"/>
      <point x="1482" y="1263"/>
      <point x="1412" y="1431"/>
      <point x="1143" y="1431" type="curve" smooth="yes"/>
      <point x="932" y="1431"/>
      <point x="819" y="1325"/>
      <point x="819" y="1127" type="curve" smooth="yes"/>
      <point x="819" y="1120" type="line" smooth="yes"/>
      <point x="819" y="935"/>
      <point x="916" y="839"/>
      <point x="1094" y="839" type="curve" smooth="yes"/>
      <point x="1209" y="839"/>
      <point x="1276" y="892"/>
      <point x="1303" y="955" type="curve"/>
      <point x="1322" y="955" type="line"/>
      <point x="1312" y="1097" type="line"/>
      <point x="1283" y="1036"/>
      <point x="1225" y="988"/>
      <point x="1138" y="988" type="curve" smooth="yes"/>
      <point x="1047" y="988"/>
      <point x="997" y="1031"/>
      <point x="997" y="1121" type="curve" smooth="yes"/>
      <point x="997" y="1128" type="line" smooth="yes"/>
      <point x="997" y="1226"/>
      <point x="1046" y="1277"/>
      <point x="1141" y="1277" type="curve" smooth="yes"/>
      <point x="1252" y="1277"/>
      <point x="1301" y="1210"/>
      <point x="1305" y="1040" type="curve" smooth="yes"/>
      <point x="1305" y="1030"/>
      <point x="1305" y="1024"/>
      <point x="1306" y="1013" type="curve"/>
      <point x="1308" y="1008"/>
      <point x="1306" y="1005"/>
      <point x="1308" y="999" type="curve"/>
      <point x="1308" y="996"/>
      <point x="1309" y="985"/>
      <point x="1309" y="982" type="curve" smooth="yes"/>
      <point x="1309" y="958" type="line" smooth="yes"/>
      <point x="1309" y="912"/>
      <point x="1309" y="876"/>
      <point x="1309" y="825" type="curve" smooth="yes"/>
      <point x="1309" y="438" type="line" smooth="yes"/>
      <point x="1309" y="237"/>
      <point x="1244" y="147"/>
      <point x="1103" y="147" type="curve" smooth="yes"/>
      <point x="970" y="147"/>
      <point x="908" y="217"/>
      <point x="903" y="365" type="curve" smooth="yes"/>
      <point x="900" y="451" type="line"/>
      <point x="797" y="451" type="line"/>
      <point x="808" y="213" type="line"/>
      <point x="825" y="60"/>
      <point x="933" y="-27"/>
      <point x="1137" y="-27" type="curve" smooth="yes"/>
      <point x="1381" y="-27"/>
      <point x="1501" y="124"/>
    </contour>
  </outline>
  <guideline angle="90" x="419" y="0"/>
  <guideline angle="0" x="0" y="888"/>
</glyph>
<glyph name="Basmall1.kn" format="2">
  <outline>
    <contour>
      <point x="-14" y="-133" type="curve" smooth="yes"/>
      <point x="-32" y="-133"/>
      <point x="-48" y="-134"/>
      <point x="-62" y="-136" type="curve"/>
      <point x="-62" y="-260" type="line"/>
      <point x="-52" y="-259"/>
      <point x="-45" y="-259"/>
      <point x="-38" y="-259" type="curve" smooth="yes"/>
      <point x="51" y="-259"/>
      <point x="82" y="-309"/>
      <point x="82" y="-410" type="curve" smooth="yes"/>
      <point x="82" y="-511" type="line" smooth="yes"/>
      <point x="82" y="-595"/>
      <point x="57" y="-640"/>
      <point x="-10" y="-640" type="curve" smooth="yes"/>
      <point x="-72" y="-640"/>
      <point x="-99" y="-607"/>
      <point x="-104" y="-538" type="curve" smooth="yes"/>
      <point x="-106" y="-505" type="line"/>
      <point x="-186" y="-505" type="line"/>
      <point x="-175" y="-646" type="line"/>
      <point x="-160" y="-725"/>
      <point x="-101" y="-766"/>
      <point x="8" y="-766" type="curve" smooth="yes"/>
      <point x="155" y="-766"/>
      <point x="227" y="-680"/>
      <point x="227" y="-519" type="curve" smooth="yes"/>
      <point x="227" y="-407" type="line" smooth="yes"/>
      <point x="227" y="-226"/>
      <point x="156" y="-133"/>
    </contour>
    <contour>
      <point x="-361" y="-122" type="curve" smooth="yes"/>
      <point x="-503" y="-122"/>
      <point x="-580" y="-183"/>
      <point x="-580" y="-299" type="curve"/>
      <point x="-580" y="-299"/>
      <point x="-580" y="-304"/>
      <point x="-580" y="-304" type="curve"/>
      <point x="-580" y="-335"/>
      <point x="-573" y="-367"/>
      <point x="-562" y="-387" type="curve"/>
      <point x="-435" y="-387" type="line"/>
      <point x="-443" y="-368.567"/>
      <point x="-448" y="-346.254"/>
      <point x="-448" y="-322" type="curve"/>
      <point x="-448" y="-322"/>
      <point x="-448" y="-319"/>
      <point x="-448" y="-319" type="curve"/>
      <point x="-448" y="-264.325"/>
      <point x="-422.591" y="-238"/>
      <point x="-362" y="-238" type="curve" smooth="yes"/>
      <point x="-309.646" y="-238"/>
      <point x="-281" y="-260"/>
      <point x="-281" y="-300" type="curve" smooth="yes"/>
      <point x="-281" y="-303" type="line" smooth="yes"/>
      <point x="-281" y="-339.575"/>
      <point x="-303.902" y="-358.331"/>
      <point x="-363" y="-380" type="curve" smooth="yes"/>
      <point x="-423" y="-402" type="line" smooth="yes"/>
      <point x="-538.975" y="-444.524"/>
      <point x="-590" y="-497.011"/>
      <point x="-590" y="-590" type="curve" smooth="yes"/>
      <point x="-590" y="-596" type="line" smooth="yes"/>
      <point x="-590" y="-706"/>
      <point x="-513" y="-766"/>
      <point x="-375" y="-766" type="curve" smooth="yes"/>
      <point x="-259" y="-766"/>
      <point x="-194" y="-724"/>
      <point x="-179" y="-646" type="curve"/>
      <point x="-149" y="-646" type="line"/>
      <point x="-164" y="-505" type="line"/>
      <point x="-247" y="-505" type="line"/>
      <point x="-250" y="-545" type="line" smooth="yes"/>
      <point x="-255" y="-607"/>
      <point x="-289" y="-642"/>
      <point x="-363" y="-642" type="curve" smooth="yes"/>
      <point x="-420" y="-642"/>
      <point x="-450" y="-621"/>
      <point x="-450" y="-582" type="curve" smooth="yes"/>
      <point x="-450" y="-578" type="line" smooth="yes"/>
      <point x="-450" y="-542.867"/>
      <point x="-422.762" y="-523.939"/>
      <point x="-356" y="-497" type="curve" smooth="yes"/>
      <point x="-299" y="-474" type="line" smooth="yes"/>
      <point x="-193.514" y="-431.435"/>
      <point x="-147" y="-390.474"/>
      <point x="-147" y="-306" type="curve" smooth="yes"/>
      <point x="-147" y="-300" type="line" smooth="yes"/>
      <point x="-147" y="-184.763"/>
      <point x="-222" y="-122"/>
    </contour>
  </outline>
  <guideline angle="90" x="227" y="0"/>
  <guideline angle="0" x="0" y="-381"/>
  <guideline angle="90" x="43" y="0"/>
  <guideline angle="0" x="0" y="-269"/>
</glyph>
<glyph name="BhaHalant.kn" format="2">
  <advance width="2255"/>
  <outline>
    <component base="BaHalant.kn"/>
    <contour>
      <point x="784" y="-408" type="curve" smooth="yes"/>
      <point x="852" y="-408"/>
      <point x="886" y="-366"/>
      <point x="886" y="-281" type="curve" smooth="yes"/>
      <point x="886" y="-272" type="line" smooth="yes"/>
      <point x="886" y="-141"/>
      <point x="851" y="-38"/>
      <point x="784" y="56" type="curve"/>
      <point x="718" y="-38"/>
      <point x="683" y="-141"/>
      <point x="683" y="-272" type="curve" smooth="yes"/>
      <point x="683" y="-281" type="line" smooth="yes"/>
      <point x="683" y="-366"/>
      <point x="716" y="-408"/>
    </contour>
  </outline>
  <guideline angle="90" x="1161" y="0"/>
  <guideline angle="90" x="838" y="0"/>
  <guideline angle="90" x="419" y="0"/>
  <guideline angle="90" x="82" y="0"/>
</glyph>
<glyph name="Bhasmall1.kn" format="2">
  <outline>
    <component base="Basmall1.kn"/>
    <contour>
      <point x="-177" y="-719" type="curve"/>
      <point x="-228" y="-771"/>
      <point x="-253" y="-828"/>
      <point x="-253" y="-895" type="curve" smooth="yes"/>
      <point x="-253" y="-901" type="line" smooth="yes"/>
      <point x="-253" y="-957"/>
      <point x="-227" y="-985"/>
      <point x="-177" y="-985" type="curve" smooth="yes"/>
      <point x="-126" y="-985"/>
      <point x="-101" y="-957"/>
      <point x="-101" y="-901" type="curve" smooth="yes"/>
      <point x="-101" y="-895" type="line" smooth="yes"/>
      <point x="-101" y="-828"/>
      <point x="-126" y="-772"/>
    </contour>
  </outline>
  <guideline angle="90" x="227" y="0"/>
  <guideline angle="0" x="0" y="-381"/>
  <guideline angle="90" x="43" y="0"/>
</glyph>
<glyph name="CamatraO.kn" format="2">
  <advance width="2969"/>
  <outline>
    <component base="CamatraE.kn"/>
    <contour>
      <point x="1623" y="146" type="curve" smooth="yes"/>
      <point x="1512" y="146"/>
      <point x="1458" y="211"/>
      <point x="1458" y="339" type="curve"/>
      <point x="1458" y="339"/>
      <point x="1458" y="342"/>
      <point x="1458" y="342" type="curve"/>
      <point x="1374" y="342" type="line"/>
      <point x="1374" y="289" type="line" smooth="yes"/>
      <point x="1374" y="81"/>
      <point x="1469" y="-27"/>
      <point x="1656" y="-27" type="curve" smooth="yes"/>
      <point x="1864" y="-27"/>
      <point x="1969" y="99"/>
      <point x="1969" y="342" type="curve" smooth="yes"/>
      <point x="1969" y="539" type="line"/>
      <point x="1779" y="539" type="line"/>
      <point x="1779" y="353" type="line" smooth="yes"/>
      <point x="1779" y="213"/>
      <point x="1728" y="146"/>
    </contour>
    <contour>
      <point x="2317" y="1202" type="curve" smooth="yes"/>
      <point x="1960" y="1202"/>
      <point x="1779" y="1013"/>
      <point x="1779" y="641" type="curve" smooth="yes"/>
      <point x="1779" y="525" type="line"/>
      <point x="1969" y="525" type="line"/>
      <point x="1969" y="639" type="line" smooth="yes"/>
      <point x="1969" y="900"/>
      <point x="2081" y="1031"/>
      <point x="2317" y="1031" type="curve" smooth="yes"/>
      <point x="2553" y="1031"/>
      <point x="2666" y="898"/>
      <point x="2666" y="639" type="curve" smooth="yes"/>
      <point x="2666" y="499" type="line"/>
      <point x="2856" y="509" type="line"/>
      <point x="2856" y="637" type="line" smooth="yes"/>
      <point x="2856" y="1011"/>
      <point x="2673" y="1202"/>
    </contour>
    <contour>
      <point x="2856" y="514" type="line"/>
      <point x="2667" y="504" type="line"/>
      <point x="2667" y="376" type="line" smooth="yes"/>
      <point x="2667" y="210"/>
      <point x="2625" y="139"/>
      <point x="2509" y="139" type="curve" smooth="yes"/>
      <point x="2404" y="139"/>
      <point x="2355" y="199"/>
      <point x="2355" y="317" type="curve" smooth="yes"/>
      <point x="2355" y="362" type="line" smooth="yes"/>
      <point x="2355" y="480"/>
      <point x="2403" y="534"/>
      <point x="2502" y="534" type="curve" smooth="yes"/>
      <point x="2588" y="534"/>
      <point x="2647" y="490"/>
      <point x="2680" y="411" type="curve"/>
      <point x="2694" y="552" type="line"/>
      <point x="2660" y="552" type="line"/>
      <point x="2630" y="643"/>
      <point x="2559" y="696"/>
      <point x="2443" y="696" type="curve" smooth="yes"/>
      <point x="2256" y="696"/>
      <point x="2167" y="582"/>
      <point x="2167" y="365" type="curve" smooth="yes"/>
      <point x="2167" y="316" type="line" smooth="yes"/>
      <point x="2167" y="91"/>
      <point x="2279" y="-27"/>
      <point x="2507" y="-27" type="curve" smooth="yes"/>
      <point x="2749" y="-27"/>
      <point x="2856" y="107"/>
      <point x="2856" y="395" type="curve" smooth="yes"/>
    </contour>
  </outline>
</glyph>
<glyph name="DdamatraO.kn" format="2">
  <advance width="2943"/>
  <outline>
    <component base="DdamatraE.kn"/>
    <contour>
      <point x="1597" y="146" type="curve" smooth="yes"/>
      <point x="1486" y="146"/>
      <point x="1432" y="211"/>
      <point x="1432" y="339" type="curve"/>
      <point x="1432" y="339"/>
      <point x="1432" y="342"/>
      <point x="1432" y="342" type="curve"/>
      <point x="1348" y="342" type="line"/>
      <point x="1348" y="289" type="line" smooth="yes"/>
      <point x="1348" y="81"/>
      <point x="1443" y="-27"/>
      <point x="1630" y="-27" type="curve" smooth="yes"/>
      <point x="1838" y="-27"/>
      <point x="1943" y="99"/>
      <point x="1943" y="342" type="curve" smooth="yes"/>
      <point x="1943" y="539" type="line"/>
      <point x="1753" y="539" type="line"/>
      <point x="1753" y="353" type="line" smooth="yes"/>
      <point x="1753" y="213"/>
      <point x="1702" y="146"/>
    </contour>
    <contour>
      <point x="2291" y="1202" type="curve" smooth="yes"/>
      <point x="1934" y="1202"/>
      <point x="1753" y="1013"/>
      <point x="1753" y="641" type="curve" smooth="yes"/>
      <point x="1753" y="525" type="line"/>
      <point x="1943" y="525" type="line"/>
      <point x="1943" y="639" type="line" smooth="yes"/>
      <point x="1943" y="900"/>
      <point x="2055" y="1031"/>
      <point x="2291" y="1031" type="curve" smooth="yes"/>
      <point x="2527" y="1031"/>
      <point x="2640" y="898"/>
      <point x="2640" y="639" type="curve" smooth="yes"/>
      <point x="2640" y="499" type="line"/>
      <point x="2830" y="509" type="line"/>
      <point x="2830" y="637" type="line" smooth="yes"/>
      <point x="2830" y="1011"/>
      <point x="2647" y="1202"/>
    </contour>
    <contour>
      <point x="2830" y="514" type="line"/>
      <point x="2641" y="504" type="line"/>
      <point x="2641" y="376" type="line" smooth="yes"/>
      <point x="2641" y="210"/>
      <point x="2599" y="139"/>
      <point x="2483" y="139" type="curve" smooth="yes"/>
      <point x="2378" y="139"/>
      <point x="2329" y="199"/>
      <point x="2329" y="317" type="curve" smooth="yes"/>
      <point x="2329" y="362" type="line" smooth="yes"/>
      <point x="2329" y="480"/>
      <point x="2377" y="534"/>
      <point x="2476" y="534" type="curve" smooth="yes"/>
      <point x="2562" y="534"/>
      <point x="2621" y="490"/>
      <point x="2654" y="411" type="curve"/>
      <point x="2668" y="552" type="line"/>
      <point x="2634" y="552" type="line"/>
      <point x="2604" y="643"/>
      <point x="2533" y="696"/>
      <point x="2417" y="696" type="curve" smooth="yes"/>
      <point x="2230" y="696"/>
      <point x="2141" y="582"/>
      <point x="2141" y="365" type="curve" smooth="yes"/>
      <point x="2141" y="316" type="line" smooth="yes"/>
      <point x="2141" y="91"/>
      <point x="2253" y="-27"/>
      <point x="2481" y="-27" type="curve" smooth="yes"/>
      <point x="2723" y="-27"/>
      <point x="2830" y="107"/>
      <point x="2830" y="395" type="curve" smooth="yes"/>
    </contour>
  </outline>
</glyph>
<glyph name="Ddasmall1.kn" format="2">
  <outline>
    <contour>
      <point x="-184" y="-124" type="curve" smooth="yes"/>
      <point x="-452" y="-124"/>
      <point x="-592" y="-245"/>
      <point x="-592" y="-480" type="curve" smooth="yes"/>
      <point x="-592" y="-525" type="line" smooth="yes"/>
      <point x="-592" y="-683"/>
      <point x="-517" y="-766"/>
      <point x="-375" y="-766" type="curve" smooth="yes"/>
      <point x="-271" y="-766"/>
      <point x="-213" y="-725"/>
      <point x="-197" y="-648" type="curve"/>
      <point x="-193" y="-648" type="line"/>
      <point x="-176" y="-726"/>
      <point x="-113" y="-767"/>
      <point x="1" y="-767" type="curve" smooth="yes"/>
      <point x="141" y="-767"/>
      <point x="214" y="-703"/>
      <point x="214" y="-584" type="curve"/>
      <point x="214" y="-582" type="line"/>
      <point x="214" y="-492"/>
      <point x="173" y="-444"/>
      <point x="90" y="-435" type="curve"/>
      <point x="90" y="-431" type="line"/>
      <point x="150" y="-422"/>
      <point x="180" y="-385"/>
      <point x="180" y="-321" type="curve"/>
      <point x="180" y="-319" type="line"/>
      <point x="180" y="-195"/>
      <point x="67" y="-124"/>
    </contour>
    <contour>
      <point x="-15" y="-643" type="curve" smooth="yes"/>
      <point x="-84" y="-643"/>
      <point x="-116" y="-608"/>
      <point x="-121" y="-543" type="curve" smooth="yes"/>
      <point x="-124" y="-506" type="line"/>
      <point x="-265" y="-506" type="line"/>
      <point x="-268" y="-543" type="line" smooth="yes"/>
      <point x="-273" y="-606"/>
      <point x="-299" y="-640"/>
      <point x="-357" y="-640" type="curve" smooth="yes"/>
      <point x="-416" y="-640"/>
      <point x="-447" y="-601"/>
      <point x="-447" y="-523" type="curve" smooth="yes"/>
      <point x="-447" y="-475" type="line" smooth="yes"/>
      <point x="-447" y="-323"/>
      <point x="-360" y="-249"/>
      <point x="-184" y="-249" type="curve" smooth="yes"/>
      <point x="-35" y="-249"/>
      <point x="36" y="-275"/>
      <point x="36" y="-328" type="curve"/>
      <point x="36" y="-329" type="line"/>
      <point x="36" y="-360"/>
      <point x="18" y="-373"/>
      <point x="-32" y="-375" type="curve" smooth="yes"/>
      <point x="-88" y="-377" type="line"/>
      <point x="-88" y="-491" type="line"/>
      <point x="-21" y="-493" type="line" smooth="yes"/>
      <point x="40" y="-495"/>
      <point x="70" y="-514"/>
      <point x="70" y="-566" type="curve"/>
      <point x="70" y="-568" type="line"/>
      <point x="70" y="-617"/>
      <point x="41" y="-643"/>
    </contour>
  </outline>
</glyph>
<glyph name="DdhamatraU.kn" format="2">
  <advance width="2206"/>
  <outline>
    <component base="DdamatraU.kn"/>
    <contour>
      <point x="768" y="-408" type="curve" smooth="yes"/>
      <point x="836" y="-408"/>
      <point x="870" y="-366"/>
      <point x="870" y="-281" type="curve" smooth="yes"/>
      <point x="870" y="-272" type="line" smooth="yes"/>
      <point x="870" y="-141"/>
      <point x="835" y="-38"/>
      <point x="768" y="56" type="curve"/>
      <point x="702" y="-38"/>
      <point x="667" y="-141"/>
      <point x="667" y="-272" type="curve" smooth="yes"/>
      <point x="667" y="-281" type="line" smooth="yes"/>
      <point x="667" y="-366"/>
      <point x="700" y="-408"/>
    </contour>
  </outline>
  <guideline angle="0" x="0" y="-274"/>
  <guideline angle="90" x="112" y="0"/>
</glyph>
<glyph name="Dhasmall1.kn" format="2">
  <outline>
    <component base="Dasmall1.kn"/>
    <contour>
      <point x="-193" y="-719" type="curve"/>
      <point x="-244" y="-771"/>
      <point x="-269" y="-828"/>
      <point x="-269" y="-895" type="curve" smooth="yes"/>
      <point x="-269" y="-901" type="line" smooth="yes"/>
      <point x="-269" y="-957"/>
      <point x="-243" y="-985"/>
      <point x="-193" y="-985" type="curve" smooth="yes"/>
      <point x="-142" y="-985"/>
      <point x="-117" y="-957"/>
      <point x="-117" y="-901" type="curve" smooth="yes"/>
      <point x="-117" y="-895" type="line" smooth="yes"/>
      <point x="-117" y="-828"/>
      <point x="-142" y="-772"/>
    </contour>
  </outline>
  <guideline angle="90" x="244" y="0"/>
</glyph>
<glyph name="GamatraAa.kn" format="2">
  <advance width="2144"/>
  <outline>
    <component base="matraAa.kn" xOffset="673"/>
    <contour>
      <point x="347" y="1030" type="line"/>
      <point x="347" y="1005" type="line"/>
      <point x="213" y="970"/>
      <point x="138" y="852"/>
      <point x="138" y="610" type="curve" smooth="yes"/>
      <point x="138" y="0" type="line"/>
      <point x="331" y="0" type="line"/>
      <point x="331" y="640" type="line" smooth="yes"/>
      <point x="331" y="897"/>
      <point x="431" y="1011"/>
      <point x="634" y="1011" type="curve" smooth="yes"/>
      <point x="837" y="1011"/>
      <point x="938" y="897"/>
      <point x="938" y="640" type="curve" smooth="yes"/>
      <point x="938" y="0" type="line"/>
      <point x="1131" y="0" type="line"/>
      <point x="1131" y="610" type="line" smooth="yes"/>
      <point x="1131" y="852.613"/>
      <point x="1056.71" y="968.911"/>
      <point x="923" y="1004" type="curve"/>
      <point x="923" y="1030" type="line"/>
    </contour>
    <contour>
      <point x="119" y="1171" type="line"/>
      <point x="119" y="1011" type="line"/>
      <point x="875" y="1011" type="line"/>
      <point x="874" y="1171" type="line"/>
    </contour>
  </outline>
  <guideline angle="90" x="603" y="0"/>
</glyph>
<glyph name="GhaHalant.kn" format="2">
  <advance width="2343"/>
  <outline>
    <component base="Halant.kn" xOffset="1677"/>
    <contour>
      <point x="879" y="367" type="curve" smooth="yes"/>
      <point x="874" y="469" type="line"/>
      <point x="687" y="469" type="line"/>
      <point x="682" y="367" type="line" smooth="yes"/>
      <point x="675" y="217"/>
      <point x="611" y="144"/>
      <point x="475" y="144" type="curve" smooth="yes"/>
      <point x="350" y="144"/>
      <point x="287" y="209"/>
      <point x="287" y="339" type="curve" smooth="yes"/>
      <point x="287" y="376" type="line" smooth="yes"/>
      <point x="287" y="494"/>
      <point x="333" y="552"/>
      <point x="435" y="552" type="curve" smooth="yes"/>
      <point x="483" y="552"/>
      <point x="524" y="538"/>
      <point x="556" y="519" type="curve"/>
      <point x="546" y="681" type="line"/>
      <point x="505" y="705"/>
      <point x="456" y="718"/>
      <point x="391" y="718" type="curve" smooth="yes"/>
      <point x="200" y="718"/>
      <point x="99" y="600"/>
      <point x="99" y="382" type="curve" smooth="yes"/>
      <point x="99" y="333" type="line" smooth="yes"/>
      <point x="99" y="96"/>
      <point x="221" y="-27"/>
      <point x="454" y="-27" type="curve" smooth="yes"/>
      <point x="656" y="-27"/>
      <point x="761" y="60"/>
      <point x="777" y="212" type="curve"/>
      <point x="783" y="212" type="line"/>
      <point x="799" y="60"/>
      <point x="903" y="-27"/>
      <point x="1099" y="-27" type="curve" smooth="yes"/>
      <point x="1334" y="-27"/>
      <point x="1453" y="87"/>
      <point x="1453" y="311" type="curve" smooth="yes"/>
      <point x="1453" y="329" type="line" smooth="yes"/>
      <point x="1453" y="487"/>
      <point x="1394" y="575"/>
      <point x="1272" y="596" type="curve"/>
      <point x="1272" y="628" type="line"/>
      <point x="1016" y="628" type="line"/>
      <point x="1016" y="541" type="line"/>
      <point x="1067" y="539" type="line" smooth="yes"/>
      <point x="1202.99" y="533.667"/>
      <point x="1262" y="482.62"/>
      <point x="1262" y="357" type="curve" smooth="yes"/>
      <point x="1262" y="342" type="line" smooth="yes"/>
      <point x="1262" y="211"/>
      <point x="1202" y="147"/>
      <point x="1077" y="147" type="curve" smooth="yes"/>
      <point x="947" y="147"/>
      <point x="886" y="218"/>
    </contour>
    <contour>
      <point x="782" y="630" type="curve" smooth="yes"/>
      <point x="851" y="630"/>
      <point x="883" y="673"/>
      <point x="883" y="774" type="curve" smooth="yes"/>
      <point x="883" y="818" type="line" smooth="yes"/>
      <point x="883" y="921"/>
      <point x="851" y="963"/>
      <point x="782" y="963" type="curve" smooth="yes"/>
      <point x="714" y="963"/>
      <point x="680" y="921"/>
      <point x="680" y="819" type="curve" smooth="yes"/>
      <point x="680" y="774" type="line" smooth="yes"/>
      <point x="680" y="673"/>
      <point x="714" y="630"/>
    </contour>
    <contour>
      <point x="1271" y="602" type="line" smooth="yes"/>
      <point x="1447" y="603"/>
      <point x="1523" y="671"/>
      <point x="1523" y="805" type="curve" smooth="yes"/>
      <point x="1523" y="865"/>
      <point x="1506" y="929"/>
      <point x="1474" y="980" type="curve"/>
      <point x="1301" y="980" type="line"/>
      <point x="1323" y="932"/>
      <point x="1335" y="882"/>
      <point x="1335" y="833" type="curve" smooth="yes"/>
      <point x="1335" y="744"/>
      <point x="1288" y="708"/>
      <point x="1176" y="705" type="curve" smooth="yes"/>
      <point x="1016" y="701" type="line"/>
      <point x="1016" y="600" type="line"/>
    </contour>
    <contour>
      <point x="1141" y="1010" type="line"/>
      <point x="1141" y="1171" type="line"/>
      <point x="143" y="1171" type="line"/>
      <point x="143" y="1010" type="line"/>
    </contour>
    <contour>
      <point x="781" y="-408" type="curve" smooth="yes"/>
      <point x="849" y="-408"/>
      <point x="883" y="-366"/>
      <point x="883" y="-281" type="curve" smooth="yes"/>
      <point x="883" y="-272" type="line" smooth="yes"/>
      <point x="883" y="-141"/>
      <point x="848" y="-38"/>
      <point x="781" y="56" type="curve"/>
      <point x="715" y="-38"/>
      <point x="680" y="-141"/>
      <point x="680" y="-272" type="curve" smooth="yes"/>
      <point x="680" y="-281" type="line" smooth="yes"/>
      <point x="680" y="-366"/>
      <point x="713" y="-408"/>
    </contour>
    <contour>
      <point x="1394" y="1010" type="line"/>
      <point x="1394" y="1171" type="line"/>
      <point x="921" y="1171" type="line"/>
      <point x="921" y="1010" type="line"/>
    </contour>
  </outline>
  <guideline angle="0" x="0" y="-274"/>
  <guideline angle="90" x="109" y="0"/>
</glyph>
<glyph name="HamatraI.kn" format="2">
  <advance width="1605"/>
  <outline>
    <contour>
      <point x="1143" y="829" type="curve" smooth="yes"/>
      <point x="962" y="829"/>
      <point x="838" y="742"/>
      <point x="824" y="565" type="curve"/>
      <point x="859" y="561" type="line"/>
      <point x="809" y="857" type="line"/>
      <point x="642" y="763" type="line"/>
      <point x="712" y="353" type="line"/>
      <point x="694.84" y="213"/>
      <point x="634.274" y="143"/>
      <point x="498" y="143" type="curve" smooth="yes"/>
      <point x="361" y="143"/>
      <point x="292" y="220"/>
      <point x="292" y="370" type="curve" smooth="yes"/>
      <point x="292" y="423" type="line" smooth="yes"/>
      <point x="292" y="590"/>
      <point x="361" y="661"/>
      <point x="507" y="661" type="curve" smooth="yes"/>
      <point x="542" y="661"/>
      <point x="679" y="661"/>
      <point x="714" y="661" type="curve"/>
      <point x="671" y="814" type="line"/>
      <point x="651" y="814"/>
      <point x="486" y="814"/>
      <point x="466" y="814" type="curve" smooth="yes"/>
      <point x="229" y="814"/>
      <point x="104" y="688"/>
      <point x="104" y="422" type="curve" smooth="yes"/>
      <point x="104" y="363" type="line" smooth="yes"/>
      <point x="104" y="105"/>
      <point x="229" y="-27"/>
      <point x="473" y="-27" type="curve" smooth="yes"/>
      <point x="676" y="-27"/>
      <point x="777" y="63"/>
      <point x="798" y="207" type="curve"/>
      <point x="804" y="207" type="line"/>
      <point x="843" y="54"/>
      <point x="947" y="-27"/>
      <point x="1143" y="-27" type="curve" smooth="yes"/>
      <point x="1381" y="-27"/>
      <point x="1502" y="106"/>
      <point x="1502" y="366" type="curve" smooth="yes"/>
      <point x="1502" y="433" type="line" smooth="yes"/>
      <point x="1502" y="690"/>
      <point x="1377" y="829"/>
    </contour>
    <contour>
      <point x="1120" y="144" type="curve" smooth="yes"/>
      <point x="991.819" y="144"/>
      <point x="925.365" y="206.683"/>
      <point x="903" y="343" type="curve" smooth="yes"/>
      <point x="882" y="471" type="line"/>
      <point x="904" y="589"/>
      <point x="981" y="663.023"/>
      <point x="1110" y="663" type="curve" smooth="yes"/>
      <point x="1247" y="662.975"/>
      <point x="1314" y="581"/>
      <point x="1314" y="433" type="curve" smooth="yes"/>
      <point x="1314" y="369" type="line" smooth="yes"/>
      <point x="1314" y="219"/>
      <point x="1250" y="144"/>
    </contour>
    <contour>
      <point x="516" y="814" type="curve"/>
      <point x="569" y="720" type="line"/>
      <point x="798" y="720"/>
      <point x="916" y="836.621"/>
      <point x="916" y="1078" type="curve" smooth="yes"/>
      <point x="916" y="1128" type="line" smooth="yes"/>
      <point x="916" y="1363.01"/>
      <point x="803" y="1479"/>
      <point x="585" y="1479" type="curve" smooth="yes"/>
      <point x="387" y="1479"/>
      <point x="278" y="1381"/>
      <point x="278" y="1201" type="curve" smooth="yes"/>
      <point x="278" y="1194" type="line" smooth="yes"/>
      <point x="278" y="1029"/>
      <point x="369" y="941"/>
      <point x="534" y="941" type="curve" smooth="yes"/>
      <point x="637" y="941"/>
      <point x="708" y="984"/>
      <point x="734" y="1053" type="curve"/>
      <point x="758" y="1053" type="line"/>
      <point x="750" y="1186" type="line"/>
      <point x="720" y="1124"/>
      <point x="663" y="1085"/>
      <point x="583" y="1085" type="curve" smooth="yes"/>
      <point x="496" y="1085"/>
      <point x="455" y="1123"/>
      <point x="455" y="1196" type="curve" smooth="yes"/>
      <point x="455" y="1203" type="line" smooth="yes"/>
      <point x="455" y="1285"/>
      <point x="503" y="1328"/>
      <point x="587" y="1328" type="curve" smooth="yes"/>
      <point x="689" y="1328"/>
      <point x="740" y="1268"/>
      <point x="740" y="1149" type="curve" smooth="yes"/>
      <point x="740" y="1056" type="line" smooth="yes"/>
      <point x="740" y="890.582"/>
      <point x="664" y="814"/>
    </contour>
  </outline>
  <guideline angle="90" x="120" y="0"/>
  <guideline angle="90" x="294" y="0"/>
</glyph>
<glyph name="Hasmall1.kn" format="2">
  <outline>
    <contour>
      <point x="-355" y="-140" type="curve" smooth="yes"/>
      <point x="-506" y="-140"/>
      <point x="-585" y="-226"/>
      <point x="-585" y="-390" type="curve" smooth="yes"/>
      <point x="-585" y="-449" type="line" smooth="yes"/>
      <point x="-585" y="-614"/>
      <point x="-506" y="-700"/>
      <point x="-355" y="-700" type="curve" smooth="yes"/>
      <point x="-258" y="-700"/>
      <point x="-191" y="-663"/>
      <point x="-166" y="-585" type="curve"/>
      <point x="-163" y="-585" type="line"/>
      <point x="-138" y="-663"/>
      <point x="-72" y="-700"/>
      <point x="25" y="-700" type="curve" smooth="yes"/>
      <point x="177" y="-700"/>
      <point x="256" y="-614"/>
      <point x="256" y="-449" type="curve" smooth="yes"/>
      <point x="256" y="-390" type="line" smooth="yes"/>
      <point x="256" y="-226"/>
      <point x="177" y="-140"/>
      <point x="25" y="-140" type="curve" smooth="yes"/>
      <point x="-72" y="-140"/>
      <point x="-137" y="-176"/>
      <point x="-163" y="-254" type="curve"/>
      <point x="-167" y="-254" type="line"/>
      <point x="-192" y="-176"/>
      <point x="-258" y="-140"/>
    </contour>
    <contour>
      <point x="-339" y="-573" type="curve" smooth="yes"/>
      <point x="-407" y="-573"/>
      <point x="-441" y="-532"/>
      <point x="-441" y="-449" type="curve" smooth="yes"/>
      <point x="-441" y="-390" type="line" smooth="yes"/>
      <point x="-441" y="-308"/>
      <point x="-407" y="-267"/>
      <point x="-339" y="-267" type="curve" smooth="yes"/>
      <point x="-271" y="-267"/>
      <point x="-237" y="-308"/>
      <point x="-237" y="-390" type="curve" smooth="yes"/>
      <point x="-237" y="-449" type="line" smooth="yes"/>
      <point x="-237" y="-532"/>
      <point x="-271" y="-573"/>
    </contour>
    <contour>
      <point x="10" y="-573" type="curve" smooth="yes"/>
      <point x="-58" y="-573"/>
      <point x="-92" y="-532"/>
      <point x="-92" y="-449" type="curve" smooth="yes"/>
      <point x="-92" y="-390" type="line" smooth="yes"/>
      <point x="-92" y="-308"/>
      <point x="-58" y="-267"/>
      <point x="10" y="-267" type="curve" smooth="yes"/>
      <point x="78" y="-267"/>
      <point x="112" y="-308"/>
      <point x="112" y="-390" type="curve" smooth="yes"/>
      <point x="112" y="-449" type="line" smooth="yes"/>
      <point x="112" y="-532"/>
      <point x="78" y="-573"/>
    </contour>
  </outline>
</glyph>
<glyph name="JhamatraAa.kn" format="2">
  <advance width="3478"/>
  <outline>
    <component base="matraAa.kn" xOffset="2007"/>
    <component base="Ra.kn" yOffset="1"/>
    <component base="matraU.kn" xOffset="1294"/>
    <contour>
      <point x="2292" y="641" type="curve" smooth="yes"/>
      <point x="2292" y="457" type="line" smooth="yes"/>
      <point x="2292" y="245"/>
      <point x="2220" y="146"/>
      <point x="2056" y="146" type="curve" smooth="yes"/>
      <point x="1903" y="146"/>
      <point x="1826" y="233.997"/>
      <point x="1826" y="399" type="curve" smooth="yes"/>
      <point x="1826" y="407" type="line"/>
      <point x="1743" y="406" type="line"/>
      <point x="1743" y="325" type="line" smooth="yes"/>
      <point x="1743" y="101"/>
      <point x="1859" y="-27"/>
      <point x="2094" y="-27" type="curve" smooth="yes"/>
      <point x="2358" y="-27"/>
      <point x="2484" y="132"/>
      <point x="2484" y="451" type="curve" smooth="yes"/>
      <point x="2484" y="608" type="line" smooth="yes"/>
      <point x="2484" y="855.749"/>
      <point x="2410.69" y="972.161"/>
      <point x="2271" y="1004" type="curve"/>
      <point x="2271" y="1030" type="line"/>
      <point x="1977" y="1030" type="line"/>
      <point x="1977" y="1011" type="line"/>
      <point x="2190" y="1011"/>
      <point x="2292" y="899.302"/>
    </contour>
    <contour>
      <point x="2211" y="1011" type="line"/>
      <point x="2211" y="1171" type="line"/>
      <point x="1928" y="1171" type="line"/>
      <point x="1928" y="1011" type="line"/>
    </contour>
    <contour>
      <point x="1768" y="-408" type="curve" smooth="yes"/>
      <point x="1836" y="-408"/>
      <point x="1870" y="-366"/>
      <point x="1870" y="-281" type="curve" smooth="yes"/>
      <point x="1870" y="-272" type="line" smooth="yes"/>
      <point x="1870" y="-141"/>
      <point x="1835" y="-38"/>
      <point x="1768" y="56" type="curve"/>
      <point x="1702" y="-38"/>
      <point x="1667" y="-141"/>
      <point x="1667" y="-272" type="curve" smooth="yes"/>
      <point x="1667" y="-281" type="line" smooth="yes"/>
      <point x="1667" y="-366"/>
      <point x="1700" y="-408"/>
    </contour>
    <contour>
      <point x="1104" y="376" type="line"/>
      <point x="1169" y="377" type="line"/>
      <point x="1169" y="453" type="line"/>
      <point x="1104" y="453" type="line"/>
    </contour>
  </outline>
  <guideline angle="0" x="0" y="-274"/>
  <guideline angle="90" x="-101" y="0"/>
  <guideline angle="90" x="-173" y="0"/>
  <guideline angle="90" x="281" y="0"/>
  <guideline angle="90" x="1277" y="0"/>
</glyph>
<glyph name="JhamatraI.kn" format="2">
  <advance width="2602"/>
  <outline>
    <component base="RamatraI.kn"/>
    <component base="matraU.kn" xOffset="1299"/>
    <component base="matraU.kn" xOffset="1954"/>
    <contour>
      <point x="1091" y="381" type="line"/>
      <point x="1174" y="382" type="line"/>
      <point x="1174" y="488" type="line"/>
      <point x="1091" y="488" type="line"/>
    </contour>
    <contour>
      <point x="1772" y="-408" type="curve" smooth="yes"/>
      <point x="1840" y="-408"/>
      <point x="1874" y="-366"/>
      <point x="1874" y="-281" type="curve" smooth="yes"/>
      <point x="1874" y="-272" type="line" smooth="yes"/>
      <point x="1874" y="-141"/>
      <point x="1839" y="-38"/>
      <point x="1772" y="56" type="curve"/>
      <point x="1706" y="-38"/>
      <point x="1671" y="-141"/>
      <point x="1671" y="-272" type="curve" smooth="yes"/>
      <point x="1671" y="-281" type="line" smooth="yes"/>
      <point x="1671" y="-366"/>
      <point x="1704" y="-408"/>
    </contour>
  </outline>
  <guideline angle="0" x="0" y="-273"/>
  <guideline angle="90" x="1043" y="0"/>
  <guideline angle="90" x="971" y="0"/>
  <guideline angle="90" x="1425" y="0"/>
</glyph>
<glyph name="JhamatraUu.kn" format="2">
  <advance width="3326"/>
  <outline>
    <component base="Ra.kn"/>
    <component base="matraUu.kn" xOffset="1941" yOffset="-1"/>
    <component base="matraU.kn" xOffset="1294"/>
    <contour>
      <point x="1752" y="-413" type="curve" smooth="yes"/>
      <point x="1820" y="-413"/>
      <point x="1854" y="-371"/>
      <point x="1854" y="-286" type="curve" smooth="yes"/>
      <point x="1854" y="-277" type="line" smooth="yes"/>
      <point x="1854" y="-146"/>
      <point x="1819" y="-43"/>
      <point x="1752" y="51" type="curve"/>
      <point x="1686" y="-43"/>
      <point x="1651" y="-146"/>
      <point x="1651" y="-277" type="curve" smooth="yes"/>
      <point x="1651" y="-286" type="line" smooth="yes"/>
      <point x="1651" y="-371"/>
      <point x="1684" y="-413"/>
    </contour>
    <contour>
      <point x="1086" y="387" type="line"/>
      <point x="1169" y="388" type="line"/>
      <point x="1169" y="463" type="line"/>
      <point x="1086" y="463" type="line"/>
    </contour>
  </outline>
  <guideline angle="0" x="0" y="-349"/>
  <guideline angle="90" x="899" y="0"/>
  <guideline angle="0" x="0" y="1195"/>
</glyph>
<glyph name="KaSsamatraI.kn" format="2">
  <advance width="1192"/>
  <outline>
    <component base="KamatraI.kn"/>
    <contour>
      <point x="1165" y="-623" type="line"/>
      <point x="1130" y="-404"/>
      <point x="1102" y="-247"/>
      <point x="1062" y="-74" type="curve"/>
      <point x="903" y="-74" type="line"/>
      <point x="914" y="-138"/>
      <point x="919" y="-189"/>
      <point x="919" y="-227" type="curve" smooth="yes"/>
      <point x="919" y="-318"/>
      <point x="879" y="-362"/>
      <point x="801" y="-362" type="curve" smooth="yes"/>
      <point x="720" y="-362"/>
      <point x="683" y="-319"/>
      <point x="677" y="-229" type="curve" smooth="yes"/>
      <point x="673" y="-166" type="line"/>
      <point x="577" y="-166" type="line"/>
      <point x="582" y="-211"/>
      <point x="596" y="-321"/>
      <point x="599" y="-356" type="curve"/>
      <point x="615" y="-452"/>
      <point x="686" y="-502"/>
      <point x="804" y="-502" type="curve" smooth="yes"/>
      <point x="910" y="-502"/>
      <point x="979" y="-458"/>
      <point x="998" y="-365" type="curve"/>
      <point x="1003" y="-365" type="line"/>
      <point x="1003" y="-408"/>
      <point x="998" y="-573"/>
      <point x="996" y="-623" type="curve"/>
    </contour>
    <contour>
      <point x="300" y="-90" type="curve"/>
      <point x="148" y="-90" type="line"/>
      <point x="122" y="-138"/>
      <point x="108" y="-191"/>
      <point x="108" y="-252" type="curve" smooth="yes"/>
      <point x="108" y="-260" type="line" smooth="yes"/>
      <point x="108" y="-419"/>
      <point x="198" y="-502"/>
      <point x="364" y="-502" type="curve" smooth="yes"/>
      <point x="501" y="-502"/>
      <point x="578" y="-450"/>
      <point x="594" y="-356" type="curve"/>
      <point x="632" y="-356" type="line"/>
      <point x="605" y="-166" type="line"/>
      <point x="520" y="-166" type="line"/>
      <point x="516" y="-230" type="line" smooth="yes"/>
      <point x="511" y="-318"/>
      <point x="475" y="-362"/>
      <point x="388" y="-362" type="curve" smooth="yes"/>
      <point x="310" y="-362"/>
      <point x="265" y="-321"/>
      <point x="265" y="-237" type="curve" smooth="yes"/>
      <point x="265" y="-231" type="line" smooth="yes"/>
      <point x="265" y="-177"/>
      <point x="280" y="-129"/>
    </contour>
  </outline>
</glyph>
<glyph name="KaSsamatraUu.kn" format="2">
  <advance width="2556"/>
  <outline>
    <component base="KamatraUu.kn"/>
    <contour>
      <point x="1164" y="-623" type="line"/>
      <point x="1129" y="-404"/>
      <point x="1101" y="-247"/>
      <point x="1061" y="-74" type="curve"/>
      <point x="902" y="-74" type="line"/>
      <point x="913" y="-138"/>
      <point x="918" y="-189"/>
      <point x="918" y="-227" type="curve" smooth="yes"/>
      <point x="918" y="-318"/>
      <point x="878" y="-362"/>
      <point x="800" y="-362" type="curve" smooth="yes"/>
      <point x="719" y="-362"/>
      <point x="682" y="-319"/>
      <point x="676" y="-229" type="curve" smooth="yes"/>
      <point x="672" y="-166" type="line"/>
      <point x="576" y="-166" type="line"/>
      <point x="581" y="-211"/>
      <point x="595" y="-321"/>
      <point x="598" y="-356" type="curve"/>
      <point x="614" y="-452"/>
      <point x="685" y="-502"/>
      <point x="803" y="-502" type="curve" smooth="yes"/>
      <point x="909" y="-502"/>
      <point x="978" y="-458"/>
      <point x="997" y="-365" type="curve"/>
      <point x="1002" y="-365" type="line"/>
      <point x="1002" y="-408"/>
      <point x="997" y="-573"/>
      <point x="995" y="-623" type="curve"/>
    </contour>
    <contour>
      <point x="299" y="-90" type="curve"/>
      <point x="147" y="-90" type="line"/>
      <point x="121" y="-138"/>
      <point x="107" y="-191"/>
      <point x="107" y="-252" type="curve" smooth="yes"/>
      <point x="107" y="-260" type="line" smooth="yes"/>
      <point x="107" y="-419"/>
      <point x="197" y="-502"/>
      <point x="363" y="-502" type="curve" smooth="yes"/>
      <point x="500" y="-502"/>
      <point x="577" y="-450"/>
      <point x="593" y="-356" type="curve"/>
      <point x="631" y="-356" type="line"/>
      <point x="604" y="-166" type="line"/>
      <point x="519" y="-166" type="line"/>
      <point x="515" y="-230" type="line" smooth="yes"/>
      <point x="510" y="-318"/>
      <point x="474" y="-362"/>
      <point x="387" y="-362" type="curve" smooth="yes"/>
      <point x="309" y="-362"/>
      <point x="264" y="-321"/>
      <point x="264" y="-237" type="curve" smooth="yes"/>
      <point x="264" y="-231" type="line" smooth="yes"/>
      <point x="264" y="-177"/>
      <point x="279" y="-129"/>
    </contour>
  </outline>
  <guideline angle="90" x="342" y="0"/>
</glyph>
<glyph name="KaSsasmall.kn" format="2">
  <advance width="144"/>
  <outline>
    <contour>
      <point x="43" y="-213" type="curve" smooth="yes"/>
      <point x="132" y="-213"/>
      <point x="179" y="-250"/>
      <point x="179" y="-321" type="curve" smooth="yes"/>
      <point x="179" y="-324" type="line" smooth="yes"/>
      <point x="179" y="-395"/>
      <point x="132" y="-431"/>
      <point x="43" y="-431" type="curve" smooth="yes"/>
      <point x="-46" y="-431"/>
      <point x="-93" y="-395"/>
      <point x="-93" y="-324" type="curve" smooth="yes"/>
      <point x="-93" y="-321" type="line" smooth="yes"/>
      <point x="-93" y="-251"/>
      <point x="-46" y="-213"/>
    </contour>
    <contour>
      <point x="-146" y="-180" type="line"/>
      <point x="-146" y="-216" type="line"/>
      <point x="-204" y="-232"/>
      <point x="-237" y="-276"/>
      <point x="-237" y="-349" type="curve" smooth="yes"/>
      <point x="-237" y="-354" type="line" smooth="yes"/>
      <point x="-237" y="-483"/>
      <point x="-137" y="-554"/>
      <point x="43" y="-554" type="curve" smooth="yes"/>
      <point x="223" y="-554"/>
      <point x="323" y="-483"/>
      <point x="323" y="-354" type="curve" smooth="yes"/>
      <point x="323" y="-349" type="line" smooth="yes"/>
      <point x="323" y="-276"/>
      <point x="290" y="-232"/>
      <point x="232" y="-216" type="curve"/>
      <point x="232" y="-180" type="line"/>
    </contour>
    <contour>
      <point x="-17" y="183" type="line"/>
      <point x="4" y="144"/>
      <point x="14" y="97"/>
      <point x="14" y="41" type="curve" smooth="yes"/>
      <point x="14" y="37" type="line" smooth="yes"/>
      <point x="14" y="-23"/>
      <point x="-1" y="-70"/>
      <point x="-28" y="-96" type="curve"/>
      <point x="-273" y="-96" type="line"/>
      <point x="-273" y="-212" type="line"/>
      <point x="-118" y="-212" type="line"/>
      <point x="-94" y="-199" type="line"/>
      <point x="180" y="-199" type="line"/>
      <point x="204" y="-212" type="line"/>
      <point x="359" y="-212" type="line"/>
      <point x="359" y="-96" type="line"/>
      <point x="123" y="-96" type="line"/>
      <point x="146" y="-68"/>
      <point x="160" y="-22"/>
      <point x="160" y="35" type="curve" smooth="yes"/>
      <point x="160" y="39" type="line" smooth="yes"/>
      <point x="160" y="96"/>
      <point x="147" y="146"/>
      <point x="122" y="183" type="curve"/>
    </contour>
    <contour>
      <point x="-104" y="-716" type="curve" smooth="yes"/>
      <point x="-155" y="-716"/>
      <point x="-182" y="-692"/>
      <point x="-182" y="-644" type="curve" smooth="yes"/>
      <point x="-182" y="-640" type="line" smooth="yes"/>
      <point x="-182" y="-613"/>
      <point x="-177" y="-588"/>
      <point x="-170" y="-570" type="curve"/>
      <point x="-293" y="-570" type="line"/>
      <point x="-303" y="-595"/>
      <point x="-309" y="-626"/>
      <point x="-309" y="-658" type="curve" smooth="yes"/>
      <point x="-309" y="-664" type="line" smooth="yes"/>
      <point x="-309" y="-771"/>
      <point x="-244" y="-828"/>
      <point x="-120" y="-828" type="curve" smooth="yes"/>
      <point x="-25" y="-828"/>
      <point x="28" y="-791"/>
      <point x="39" y="-729" type="curve"/>
      <point x="72" y="-729" type="line"/>
      <point x="49" y="-606" type="line"/>
      <point x="-21" y="-606" type="line"/>
      <point x="-24" y="-637" type="line" smooth="yes"/>
      <point x="-29" y="-688"/>
      <point x="-51" y="-716"/>
    </contour>
    <contour>
      <point x="446" y="-879" type="line"/>
      <point x="423" y="-759"/>
      <point x="401" y="-663"/>
      <point x="374" y="-563" type="curve"/>
      <point x="251" y="-563" type="line"/>
      <point x="256" y="-591"/>
      <point x="259" y="-616"/>
      <point x="259" y="-638" type="curve" smooth="yes"/>
      <point x="259" y="-689"/>
      <point x="233" y="-716"/>
      <point x="183" y="-716" type="curve" smooth="yes"/>
      <point x="132" y="-716"/>
      <point x="110" y="-690"/>
      <point x="105" y="-637" type="curve" smooth="yes"/>
      <point x="102" y="-606" type="line"/>
      <point x="25" y="-606" type="line"/>
      <point x="43" y="-729" type="line"/>
      <point x="54" y="-792"/>
      <point x="102" y="-828"/>
      <point x="183" y="-828" type="curve" smooth="yes"/>
      <point x="255" y="-828"/>
      <point x="303" y="-798"/>
      <point x="317" y="-736" type="curve"/>
      <point x="322" y="-736" type="line"/>
      <point x="316" y="-879" type="line"/>
    </contour>
  </outline>
  <guideline angle="0" x="0" y="-610"/>
</glyph>
<glyph name="KamatraO.kn" format="2">
  <advance width="2557"/>
  <outline>
    <component base="KamatraE.kn"/>
    <contour>
      <point x="1211" y="146" type="curve" smooth="yes"/>
      <point x="1100" y="146"/>
      <point x="1046" y="211"/>
      <point x="1046" y="339" type="curve"/>
      <point x="1046" y="339"/>
      <point x="1046" y="342"/>
      <point x="1046" y="342" type="curve"/>
      <point x="962" y="342" type="line"/>
      <point x="962" y="289" type="line" smooth="yes"/>
      <point x="962" y="81"/>
      <point x="1057" y="-27"/>
      <point x="1244" y="-27" type="curve" smooth="yes"/>
      <point x="1452" y="-27"/>
      <point x="1557" y="99"/>
      <point x="1557" y="342" type="curve" smooth="yes"/>
      <point x="1557" y="539" type="line"/>
      <point x="1367" y="539" type="line"/>
      <point x="1367" y="353" type="line" smooth="yes"/>
      <point x="1367" y="213"/>
      <point x="1316" y="146"/>
    </contour>
    <contour>
      <point x="1905" y="1202" type="curve" smooth="yes"/>
      <point x="1548" y="1202"/>
      <point x="1367" y="1013"/>
      <point x="1367" y="641" type="curve" smooth="yes"/>
      <point x="1367" y="525" type="line"/>
      <point x="1557" y="525" type="line"/>
      <point x="1557" y="639" type="line" smooth="yes"/>
      <point x="1557" y="900"/>
      <point x="1669" y="1031"/>
      <point x="1905" y="1031" type="curve" smooth="yes"/>
      <point x="2141" y="1031"/>
      <point x="2254" y="898"/>
      <point x="2254" y="639" type="curve" smooth="yes"/>
      <point x="2254" y="499" type="line"/>
      <point x="2444" y="509" type="line"/>
      <point x="2444" y="637" type="line" smooth="yes"/>
      <point x="2444" y="1011"/>
      <point x="2261" y="1202"/>
    </contour>
    <contour>
      <point x="2444" y="514" type="line"/>
      <point x="2255" y="504" type="line"/>
      <point x="2255" y="376" type="line" smooth="yes"/>
      <point x="2255" y="210"/>
      <point x="2213" y="139"/>
      <point x="2097" y="139" type="curve" smooth="yes"/>
      <point x="1992" y="139"/>
      <point x="1943" y="199"/>
      <point x="1943" y="317" type="curve" smooth="yes"/>
      <point x="1943" y="362" type="line" smooth="yes"/>
      <point x="1943" y="480"/>
      <point x="1991" y="534"/>
      <point x="2090" y="534" type="curve" smooth="yes"/>
      <point x="2176" y="534"/>
      <point x="2235" y="490"/>
      <point x="2268" y="411" type="curve"/>
      <point x="2282" y="552" type="line"/>
      <point x="2248" y="552" type="line"/>
      <point x="2218" y="643"/>
      <point x="2147" y="696"/>
      <point x="2031" y="696" type="curve" smooth="yes"/>
      <point x="1844" y="696"/>
      <point x="1755" y="582"/>
      <point x="1755" y="365" type="curve" smooth="yes"/>
      <point x="1755" y="316" type="line" smooth="yes"/>
      <point x="1755" y="91"/>
      <point x="1867" y="-27"/>
      <point x="2095" y="-27" type="curve" smooth="yes"/>
      <point x="2337" y="-27"/>
      <point x="2444" y="107"/>
      <point x="2444" y="395" type="curve" smooth="yes"/>
    </contour>
  </outline>
</glyph>
<glyph name="KamatraU.kn" format="2">
  <advance width="1826"/>
  <outline>
    <component base="Ka.kn"/>
    <contour>
      <point x="1324" y="1184" type="curve" smooth="yes"/>
      <point x="1297" y="1184"/>
      <point x="1272" y="1182"/>
      <point x="1245" y="1179" type="curve"/>
      <point x="1245" y="1009" type="line"/>
      <point x="1261" y="1011"/>
      <point x="1276" y="1011"/>
      <point x="1289" y="1011" type="curve" smooth="yes"/>
      <point x="1445" y="1011"/>
      <point x="1519" y="913"/>
      <point x="1519" y="684" type="curve" smooth="yes"/>
      <point x="1519" y="467" type="line" smooth="yes"/>
      <point x="1519" y="249"/>
      <point x="1444" y="146"/>
      <point x="1275" y="146" type="curve" smooth="yes"/>
      <point x="1120" y="146"/>
      <point x="1043" y="235"/>
      <point x="1042" y="389" type="curve"/>
      <point x="959" y="386" type="line"/>
      <point x="959" y="318" type="line" smooth="yes"/>
      <point x="959" y="101"/>
      <point x="1075" y="-27"/>
      <point x="1311" y="-27" type="curve" smooth="yes"/>
      <point x="1582" y="-27"/>
      <point x="1711" y="135"/>
      <point x="1711" y="461" type="curve" smooth="yes"/>
      <point x="1711" y="684" type="line" smooth="yes"/>
      <point x="1711" y="1023"/>
      <point x="1583" y="1184"/>
    </contour>
  </outline>
</glyph>
<glyph name="KamatraUu.kn" format="2">
  <advance width="2556"/>
  <outline>
    <component base="Ka.kn"/>
    <contour>
      <point x="1210" y="146" type="curve" smooth="yes"/>
      <point x="1099" y="146"/>
      <point x="1045" y="211"/>
      <point x="1045" y="339" type="curve"/>
      <point x="1045" y="339"/>
      <point x="1045" y="342"/>
      <point x="1045" y="342" type="curve"/>
      <point x="961" y="342" type="line"/>
      <point x="961" y="289" type="line" smooth="yes"/>
      <point x="961" y="81"/>
      <point x="1056" y="-27"/>
      <point x="1243" y="-27" type="curve" smooth="yes"/>
      <point x="1451" y="-27"/>
      <point x="1556" y="99"/>
      <point x="1556" y="342" type="curve" smooth="yes"/>
      <point x="1556" y="539" type="line"/>
      <point x="1366" y="539" type="line"/>
      <point x="1366" y="353" type="line" smooth="yes"/>
      <point x="1366" y="213"/>
      <point x="1315" y="146"/>
    </contour>
    <contour>
      <point x="1904" y="1202" type="curve" smooth="yes"/>
      <point x="1547" y="1202"/>
      <point x="1366" y="1013"/>
      <point x="1366" y="641" type="curve" smooth="yes"/>
      <point x="1366" y="525" type="line"/>
      <point x="1556" y="525" type="line"/>
      <point x="1556" y="639" type="line" smooth="yes"/>
      <point x="1556" y="900"/>
      <point x="1668" y="1031"/>
      <point x="1904" y="1031" type="curve" smooth="yes"/>
      <point x="2140" y="1031"/>
      <point x="2253" y="898"/>
      <point x="2253" y="639" type="curve" smooth="yes"/>
      <point x="2253" y="499" type="line"/>
      <point x="2443" y="509" type="line"/>
      <point x="2443" y="637" type="line" smooth="yes"/>
      <point x="2443" y="1011"/>
      <point x="2260" y="1202"/>
    </contour>
    <contour>
      <point x="2443" y="514" type="line"/>
      <point x="2254" y="504" type="line"/>
      <point x="2254" y="376" type="line" smooth="yes"/>
      <point x="2254" y="210"/>
      <point x="2212" y="139"/>
      <point x="2096" y="139" type="curve" smooth="yes"/>
      <point x="1991" y="139"/>
      <point x="1942" y="199"/>
      <point x="1942" y="317" type="curve" smooth="yes"/>
      <point x="1942" y="362" type="line" smooth="yes"/>
      <point x="1942" y="480"/>
      <point x="1990" y="534"/>
      <point x="2089" y="534" type="curve" smooth="yes"/>
      <point x="2175" y="534"/>
      <point x="2234" y="490"/>
      <point x="2267" y="411" type="curve"/>
      <point x="2281" y="552" type="line"/>
      <point x="2247" y="552" type="line"/>
      <point x="2217" y="643"/>
      <point x="2146" y="696"/>
      <point x="2030" y="696" type="curve" smooth="yes"/>
      <point x="1843" y="696"/>
      <point x="1754" y="582"/>
      <point x="1754" y="365" type="curve" smooth="yes"/>
      <point x="1754" y="316" type="line" smooth="yes"/>
      <point x="1754" y="91"/>
      <point x="1866" y="-27"/>
      <point x="2094" y="-27" type="curve" smooth="yes"/>
      <point x="2336" y="-27"/>
      <point x="2443" y="107"/>
      <point x="2443" y="395" type="curve" smooth="yes"/>
    </contour>
  </outline>
</glyph>
<glyph name="Khasmall1.kn" format="2">
  <outline>
    <contour>
      <point x="-363" y="-766" type="curve" smooth="yes"/>
      <point x="-216" y="-766"/>
      <point x="-124" y="-702"/>
      <point x="-114" y="-585" type="curve"/>
      <point x="-160" y="-607" type="line"/>
      <point x="-97" y="-606" type="line"/>
      <point x="-85" y="-567"/>
      <point x="-80" y="-523"/>
      <point x="-80" y="-479" type="curve" smooth="yes"/>
      <point x="-80" y="-371" type="line" smooth="yes"/>
      <point x="-80" y="-208"/>
      <point x="-168" y="-122"/>
      <point x="-339" y="-122" type="curve" smooth="yes"/>
      <point x="-496" y="-122"/>
      <point x="-579" y="-189"/>
      <point x="-579" y="-315" type="curve" smooth="yes"/>
      <point x="-579" y="-318" type="line" smooth="yes"/>
      <point x="-579" y="-347"/>
      <point x="-574" y="-371"/>
      <point x="-565" y="-390" type="curve"/>
      <point x="-430" y="-390" type="line"/>
      <point x="-436" y="-375"/>
      <point x="-440" y="-356"/>
      <point x="-440" y="-334" type="curve" smooth="yes"/>
      <point x="-440" y="-331" type="line" smooth="yes"/>
      <point x="-440" y="-273"/>
      <point x="-405" y="-242"/>
      <point x="-337" y="-242" type="curve" smooth="yes"/>
      <point x="-260" y="-242"/>
      <point x="-221" y="-285"/>
      <point x="-221" y="-372" type="curve" smooth="yes"/>
      <point x="-221" y="-484" type="line" smooth="yes"/>
      <point x="-221" y="-507"/>
      <point x="-224" y="-529"/>
      <point x="-231" y="-545" type="curve"/>
      <point x="-232" y="-551"/>
      <point x="-231" y="-561"/>
      <point x="-233" y="-568" type="curve" smooth="yes"/>
      <point x="-247" y="-620"/>
      <point x="-291" y="-649"/>
      <point x="-357" y="-649" type="curve" smooth="yes"/>
      <point x="-421" y="-649"/>
      <point x="-452" y="-629"/>
      <point x="-452" y="-587" type="curve" smooth="yes"/>
      <point x="-452" y="-584" type="line" smooth="yes"/>
      <point x="-452" y="-542"/>
      <point x="-422" y="-522"/>
      <point x="-360" y="-522" type="curve" smooth="yes"/>
      <point x="-295" y="-522"/>
      <point x="-246" y="-548"/>
      <point x="-220" y="-592" type="curve"/>
      <point x="-195" y="-503" type="line"/>
      <point x="-223" y="-450"/>
      <point x="-277" y="-414"/>
      <point x="-380" y="-414" type="curve" smooth="yes"/>
      <point x="-519" y="-414"/>
      <point x="-590" y="-473"/>
      <point x="-590" y="-584" type="curve" smooth="yes"/>
      <point x="-590" y="-589" type="line" smooth="yes"/>
      <point x="-590" y="-708"/>
      <point x="-513" y="-766"/>
    </contour>
    <contour>
      <point x="33" y="-132" type="curve" smooth="yes"/>
      <point x="15" y="-132"/>
      <point x="-1" y="-132"/>
      <point x="-15" y="-135" type="curve"/>
      <point x="-15" y="-258" type="line"/>
      <point x="-6" y="-256"/>
      <point x="1" y="-257"/>
      <point x="9" y="-257" type="curve" smooth="yes"/>
      <point x="88" y="-257"/>
      <point x="128" y="-301"/>
      <point x="128" y="-407" type="curve" smooth="yes"/>
      <point x="128" y="-506" type="line" smooth="yes"/>
      <point x="128" y="-595"/>
      <point x="93" y="-640"/>
      <point x="22" y="-640" type="curve" smooth="yes"/>
      <point x="-43" y="-640"/>
      <point x="-81" y="-607"/>
      <point x="-87" y="-540" type="curve"/>
      <point x="-87" y="-519" type="line"/>
      <point x="-152" y="-529" type="line"/>
      <point x="-151" y="-602" type="line"/>
      <point x="-135" y="-710"/>
      <point x="-68" y="-766"/>
      <point x="53" y="-766" type="curve" smooth="yes"/>
      <point x="199" y="-766"/>
      <point x="272" y="-680"/>
      <point x="272" y="-515" type="curve" smooth="yes"/>
      <point x="272" y="-407" type="line" smooth="yes"/>
      <point x="272" y="-220"/>
      <point x="193" y="-132"/>
    </contour>
  </outline>
  <guideline angle="90" x="-7" y="0"/>
</glyph>
<glyph name="LamatraU.kn" format="2">
  <advance width="2140"/>
  <outline>
    <component base="La.kn"/>
    <contour>
      <point x="1638" y="1184" type="curve" smooth="yes"/>
      <point x="1611" y="1184"/>
      <point x="1586" y="1182"/>
      <point x="1559" y="1179" type="curve"/>
      <point x="1559" y="1009" type="line"/>
      <point x="1575" y="1011"/>
      <point x="1590" y="1011"/>
      <point x="1603" y="1011" type="curve" smooth="yes"/>
      <point x="1759" y="1011"/>
      <point x="1833" y="913"/>
      <point x="1833" y="684" type="curve" smooth="yes"/>
      <point x="1833" y="457" type="line" smooth="yes"/>
      <point x="1833" y="245"/>
      <point x="1763" y="146"/>
      <point x="1603" y="146" type="curve" smooth="yes"/>
      <point x="1447" y="146"/>
      <point x="1369" y="239.997"/>
      <point x="1369" y="415" type="curve" smooth="yes"/>
      <point x="1369" y="534" type="line"/>
      <point x="1269" y="533" type="line"/>
      <point x="1269" y="325" type="line" smooth="yes"/>
      <point x="1269" y="101"/>
      <point x="1387" y="-27"/>
      <point x="1628" y="-27" type="curve" smooth="yes"/>
      <point x="1897" y="-27"/>
      <point x="2025" y="132"/>
      <point x="2025" y="451" type="curve" smooth="yes"/>
      <point x="2025" y="684" type="line" smooth="yes"/>
      <point x="2025" y="1023"/>
      <point x="1897" y="1184"/>
    </contour>
  </outline>
  <guideline angle="90" x="783" y="0"/>
  <guideline angle="90" x="711" y="0"/>
  <guideline angle="90" x="1165" y="0"/>
</glyph>
<glyph name="LlamatraI.kn" format="2">
  <advance width="1392"/>
  <outline>
    <contour>
      <point x="700" y="375" type="curve" smooth="yes"/>
      <point x="819" y="375"/>
      <point x="879" y="333"/>
      <point x="879" y="249" type="curve" smooth="yes"/>
      <point x="879" y="243" type="line" smooth="yes"/>
      <point x="879" y="158"/>
      <point x="819" y="117"/>
      <point x="700" y="117" type="curve" smooth="yes"/>
      <point x="582" y="117"/>
      <point x="521" y="158"/>
      <point x="521" y="243" type="curve" smooth="yes"/>
      <point x="521" y="249" type="line" smooth="yes"/>
      <point x="521" y="333"/>
      <point x="582" y="375"/>
    </contour>
    <contour>
      <point x="700" y="480" type="line"/>
      <point x="537" y="446" type="line"/>
      <point x="405" y="422"/>
      <point x="336" y="353"/>
      <point x="336" y="225" type="curve" smooth="yes"/>
      <point x="336" y="217" type="line" smooth="yes"/>
      <point x="336" y="48"/>
      <point x="466" y="-38"/>
      <point x="700" y="-38" type="curve" smooth="yes"/>
      <point x="935" y="-38"/>
      <point x="1064" y="48"/>
      <point x="1064" y="217" type="curve" smooth="yes"/>
      <point x="1064" y="225" type="line" smooth="yes"/>
      <point x="1064" y="353"/>
      <point x="995" y="422"/>
      <point x="863" y="446" type="curve"/>
    </contour>
    <contour>
      <point x="584" y="380" type="curve"/>
      <point x="703" y="437" type="line"/>
      <point x="818" y="385" type="line"/>
      <point x="1154" y="397"/>
      <point x="1321" y="585.994"/>
      <point x="1321" y="921" type="curve" smooth="yes"/>
      <point x="1321" y="955" type="line" smooth="yes"/>
      <point x="1321" y="997"/>
      <point x="1319" y="1041"/>
      <point x="1316" y="1083" type="curve" smooth="yes"/>
      <point x="1302" y="1267"/>
      <point x="1234" y="1431"/>
      <point x="979" y="1431" type="curve" smooth="yes"/>
      <point x="780" y="1431"/>
      <point x="674" y="1330"/>
      <point x="674" y="1141" type="curve" smooth="yes"/>
      <point x="674" y="1134" type="line" smooth="yes"/>
      <point x="674" y="958"/>
      <point x="765" y="867"/>
      <point x="932" y="867" type="curve" smooth="yes"/>
      <point x="1039" y="867"/>
      <point x="1100" y="919"/>
      <point x="1125" y="981" type="curve"/>
      <point x="1143" y="981" type="line"/>
      <point x="1134" y="1122" type="line"/>
      <point x="1107" y="1061"/>
      <point x="1056" y="1014"/>
      <point x="976" y="1014" type="curve" smooth="yes"/>
      <point x="894" y="1014"/>
      <point x="850" y="1053"/>
      <point x="850" y="1135" type="curve" smooth="yes"/>
      <point x="850" y="1142" type="line" smooth="yes"/>
      <point x="850" y="1232"/>
      <point x="894" y="1279"/>
      <point x="979" y="1279" type="curve" smooth="yes"/>
      <point x="1078" y="1279"/>
      <point x="1125" y="1219"/>
      <point x="1128" y="1065" type="curve" smooth="yes"/>
      <point x="1128" y="1055"/>
      <point x="1127" y="1049"/>
      <point x="1128" y="1039" type="curve"/>
      <point x="1130" y="1034"/>
      <point x="1128" y="1031"/>
      <point x="1130" y="1025" type="curve"/>
      <point x="1130" y="1022"/>
      <point x="1130" y="1011"/>
      <point x="1130" y="1008" type="curve" smooth="yes"/>
      <point x="1130" y="984" type="line" smooth="yes"/>
      <point x="1130" y="972"/>
      <point x="1130" y="961"/>
      <point x="1130" y="948" type="curve" smooth="yes"/>
      <point x="1130" y="924" type="line" smooth="yes"/>
      <point x="1130" y="662"/>
      <point x="989" y="519"/>
      <point x="690" y="519" type="curve" smooth="yes"/>
      <point x="391" y="519"/>
      <point x="249" y="609"/>
      <point x="249" y="782" type="curve" smooth="yes"/>
      <point x="249" y="805" type="line"/>
      <point x="63" y="826" type="line"/>
      <point x="63" y="801" type="line" smooth="yes"/>
      <point x="63" y="518"/>
      <point x="246" y="385"/>
    </contour>
    <contour>
      <point x="247" y="798" type="line"/>
      <point x="247" y="845" type="line" smooth="yes"/>
      <point x="247" y="972"/>
      <point x="297" y="1042"/>
      <point x="407" y="1042" type="curve" smooth="yes"/>
      <point x="500" y="1042"/>
      <point x="545" y="996"/>
      <point x="545" y="911" type="curve" smooth="yes"/>
      <point x="545" y="904" type="line" smooth="yes"/>
      <point x="545" y="823"/>
      <point x="500" y="782"/>
      <point x="416" y="782" type="curve" smooth="yes"/>
      <point x="331" y="782"/>
      <point x="270" y="819"/>
      <point x="238" y="882" type="curve"/>
      <point x="212" y="764" type="line"/>
      <point x="254" y="764" type="line"/>
      <point x="289" y="685"/>
      <point x="367" y="634"/>
      <point x="484" y="634" type="curve" smooth="yes"/>
      <point x="645" y="634"/>
      <point x="730" y="725"/>
      <point x="730" y="897" type="curve" smooth="yes"/>
      <point x="730" y="910" type="line" smooth="yes"/>
      <point x="730" y="1100"/>
      <point x="620" y="1203"/>
      <point x="408" y="1203" type="curve" smooth="yes"/>
      <point x="182" y="1203"/>
      <point x="63" y="1073"/>
      <point x="63" y="839" type="curve" smooth="yes"/>
      <point x="63" y="819" type="line"/>
    </contour>
  </outline>
</glyph>
<glyph name="LlamatraO.kn" format="2">
  <advance width="2699"/>
  <outline>
    <component base="LlamatraE.kn"/>
    <contour>
      <point x="2047" y="1202" type="curve" smooth="yes"/>
      <point x="1690" y="1202"/>
      <point x="1509" y="1013"/>
      <point x="1509" y="641" type="curve" smooth="yes"/>
      <point x="1509" y="525" type="line"/>
      <point x="1699" y="525" type="line"/>
      <point x="1699" y="639" type="line" smooth="yes"/>
      <point x="1699" y="900"/>
      <point x="1811" y="1031"/>
      <point x="2047" y="1031" type="curve" smooth="yes"/>
      <point x="2283" y="1031"/>
      <point x="2396" y="898"/>
      <point x="2396" y="639" type="curve" smooth="yes"/>
      <point x="2396" y="499" type="line"/>
      <point x="2586" y="509" type="line"/>
      <point x="2586" y="637" type="line" smooth="yes"/>
      <point x="2586" y="1011"/>
      <point x="2403" y="1202"/>
    </contour>
    <contour>
      <point x="2586" y="514" type="line"/>
      <point x="2397" y="504" type="line"/>
      <point x="2397" y="376" type="line" smooth="yes"/>
      <point x="2397" y="210"/>
      <point x="2355" y="139"/>
      <point x="2239" y="139" type="curve" smooth="yes"/>
      <point x="2134" y="139"/>
      <point x="2085" y="199"/>
      <point x="2085" y="317" type="curve" smooth="yes"/>
      <point x="2085" y="362" type="line" smooth="yes"/>
      <point x="2085" y="480"/>
      <point x="2133" y="534"/>
      <point x="2232" y="534" type="curve" smooth="yes"/>
      <point x="2318" y="534"/>
      <point x="2377" y="490"/>
      <point x="2410" y="411" type="curve"/>
      <point x="2424" y="552" type="line"/>
      <point x="2390" y="552" type="line"/>
      <point x="2360" y="643"/>
      <point x="2289" y="696"/>
      <point x="2173" y="696" type="curve" smooth="yes"/>
      <point x="1986" y="696"/>
      <point x="1897" y="582"/>
      <point x="1897" y="365" type="curve" smooth="yes"/>
      <point x="1897" y="316" type="line" smooth="yes"/>
      <point x="1897" y="91"/>
      <point x="2009" y="-27"/>
      <point x="2237" y="-27" type="curve" smooth="yes"/>
      <point x="2479" y="-27"/>
      <point x="2586" y="107"/>
      <point x="2586" y="395" type="curve" smooth="yes"/>
    </contour>
    <contour>
      <point x="1509" y="557" type="line"/>
      <point x="1509" y="427" type="line" smooth="yes"/>
      <point x="1509" y="236"/>
      <point x="1437" y="146"/>
      <point x="1293" y="146" type="curve" smooth="yes"/>
      <point x="1175" y="146"/>
      <point x="1093" y="201"/>
      <point x="1051" y="301" type="curve"/>
      <point x="994" y="209" type="line"/>
      <point x="1035" y="59"/>
      <point x="1143" y="-27"/>
      <point x="1330" y="-27" type="curve" smooth="yes"/>
      <point x="1573" y="-27"/>
      <point x="1699" y="127"/>
      <point x="1699" y="416" type="curve" smooth="yes"/>
      <point x="1699" y="557" type="line"/>
    </contour>
  </outline>
</glyph>
<glyph name="LlamatraU.kn" format="2">
  <advance width="2012"/>
  <outline>
    <component base="Lla.kn"/>
    <contour>
      <point x="1510" y="1184" type="curve" smooth="yes"/>
      <point x="1483" y="1184"/>
      <point x="1458" y="1182"/>
      <point x="1431" y="1179" type="curve"/>
      <point x="1431" y="1009" type="line"/>
      <point x="1447" y="1011"/>
      <point x="1462" y="1011"/>
      <point x="1475" y="1011" type="curve" smooth="yes"/>
      <point x="1631" y="1011"/>
      <point x="1705" y="913"/>
      <point x="1705" y="684" type="curve" smooth="yes"/>
      <point x="1705" y="553" type="line" smooth="yes"/>
      <point x="1705" y="285"/>
      <point x="1591" y="146"/>
      <point x="1369" y="146" type="curve" smooth="yes"/>
      <point x="1197" y="146"/>
      <point x="1098" y="213"/>
      <point x="1049" y="309" type="curve"/>
      <point x="966" y="235" type="line"/>
      <point x="1016" y="79"/>
      <point x="1151" y="-27"/>
      <point x="1404" y="-27" type="curve" smooth="yes"/>
      <point x="1731" y="-27"/>
      <point x="1897" y="168"/>
      <point x="1897" y="547" type="curve" smooth="yes"/>
      <point x="1897" y="684" type="line" smooth="yes"/>
      <point x="1897" y="1023"/>
      <point x="1769" y="1184"/>
    </contour>
  </outline>
</glyph>
<glyph name="LllaObsoletesmall1.kn" format="2">
  <outline>
    <contour>
      <point x="-582" y="-425" type="line"/>
      <point x="-444" y="-413" type="line"/>
      <point x="-444" y="-351" type="line" smooth="yes"/>
      <point x="-444" y="-276"/>
      <point x="-423" y="-236"/>
      <point x="-362" y="-236" type="curve" smooth="yes"/>
      <point x="-317" y="-236"/>
      <point x="-292" y="-262"/>
      <point x="-292" y="-309" type="curve" smooth="yes"/>
      <point x="-292" y="-319" type="line" smooth="yes"/>
      <point x="-292" y="-365"/>
      <point x="-316" y="-387"/>
      <point x="-359" y="-387" type="curve" smooth="yes"/>
      <point x="-405" y="-387"/>
      <point x="-439" y="-366"/>
      <point x="-461" y="-325" type="curve"/>
      <point x="-473" y="-419" type="line"/>
      <point x="-439" y="-419" type="line"/>
      <point x="-421" y="-465"/>
      <point x="-380" y="-490"/>
      <point x="-316" y="-490" type="curve" smooth="yes"/>
      <point x="-214" y="-490"/>
      <point x="-157" y="-434"/>
      <point x="-157" y="-325" type="curve" smooth="yes"/>
      <point x="-157" y="-312" type="line" smooth="yes"/>
      <point x="-157" y="-187"/>
      <point x="-227" y="-122"/>
      <point x="-360" y="-122" type="curve" smooth="yes"/>
      <point x="-517" y="-122"/>
      <point x="-582" y="-210"/>
      <point x="-582" y="-379" type="curve" smooth="yes"/>
    </contour>
    <contour>
      <point x="-582" y="-498" type="line" smooth="yes"/>
      <point x="-582" y="-674"/>
      <point x="-493" y="-766"/>
      <point x="-330" y="-766" type="curve" smooth="yes"/>
      <point x="-211" y="-766"/>
      <point x="-145" y="-723"/>
      <point x="-130" y="-646" type="curve"/>
      <point x="-126" y="-646" type="line"/>
      <point x="-111" y="-723"/>
      <point x="-45" y="-766"/>
      <point x="74" y="-766" type="curve" smooth="yes"/>
      <point x="237" y="-766"/>
      <point x="326" y="-674"/>
      <point x="326" y="-498" type="curve" smooth="yes"/>
      <point x="326" y="-422" type="line"/>
      <point x="188" y="-402" type="line"/>
      <point x="188" y="-491" type="line" smooth="yes"/>
      <point x="188" y="-592"/>
      <point x="147" y="-641"/>
      <point x="59" y="-641" type="curve" smooth="yes"/>
      <point x="-15" y="-641"/>
      <point x="-51" y="-604"/>
      <point x="-55" y="-533" type="curve" smooth="yes"/>
      <point x="-57" y="-506" type="line"/>
      <point x="-199" y="-506" type="line"/>
      <point x="-201" y="-533" type="line" smooth="yes"/>
      <point x="-205" y="-604"/>
      <point x="-241" y="-641"/>
      <point x="-315" y="-641" type="curve" smooth="yes"/>
      <point x="-403" y="-641"/>
      <point x="-443" y="-592"/>
      <point x="-443" y="-491" type="curve" smooth="yes"/>
      <point x="-443" y="-402" type="line"/>
      <point x="-582" y="-422" type="line"/>
    </contour>
    <contour>
      <point x="326" y="-425" type="line"/>
      <point x="326" y="-379" type="line" smooth="yes"/>
      <point x="326" y="-210"/>
      <point x="261" y="-122"/>
      <point x="104" y="-122" type="curve" smooth="yes"/>
      <point x="-29" y="-122"/>
      <point x="-99" y="-187"/>
      <point x="-99" y="-312" type="curve" smooth="yes"/>
      <point x="-99" y="-325" type="line" smooth="yes"/>
      <point x="-99" y="-434"/>
      <point x="-42" y="-490"/>
      <point x="60" y="-490" type="curve" smooth="yes"/>
      <point x="124" y="-490"/>
      <point x="165" y="-465"/>
      <point x="183" y="-419" type="curve"/>
      <point x="217" y="-419" type="line"/>
      <point x="205" y="-325" type="line"/>
      <point x="183" y="-366"/>
      <point x="149" y="-387"/>
      <point x="103" y="-387" type="curve" smooth="yes"/>
      <point x="60" y="-387"/>
      <point x="36" y="-365"/>
      <point x="36" y="-319" type="curve" smooth="yes"/>
      <point x="36" y="-309" type="line" smooth="yes"/>
      <point x="36" y="-262"/>
      <point x="61" y="-236"/>
      <point x="106" y="-236" type="curve" smooth="yes"/>
      <point x="167" y="-236"/>
      <point x="188" y="-276"/>
      <point x="188" y="-351" type="curve" smooth="yes"/>
      <point x="188" y="-413" type="line"/>
    </contour>
  </outline>
</glyph>
<glyph name="NamatraI.kn" format="2">
  <advance width="1437"/>
  <outline>
    <contour>
      <point x="427" y="717" type="curve" smooth="yes"/>
      <point x="215" y="717"/>
      <point x="100" y="602"/>
      <point x="100" y="360" type="curve" smooth="yes"/>
      <point x="100" y="323" type="line" smooth="yes"/>
      <point x="100" y="178"/>
      <point x="125" y="66"/>
      <point x="173" y="-17" type="curve"/>
      <point x="365" y="-17" type="line"/>
      <point x="319" y="71"/>
      <point x="289" y="193"/>
      <point x="289" y="320" type="curve" smooth="yes"/>
      <point x="289" y="357" type="line" smooth="yes"/>
      <point x="289" y="485"/>
      <point x="336" y="546"/>
      <point x="432" y="546" type="curve" smooth="yes"/>
      <point x="516" y="546"/>
      <point x="558" y="502"/>
      <point x="586" y="378" type="curve" smooth="yes"/>
      <point x="614" y="253" type="line" smooth="yes"/>
      <point x="658" y="57"/>
      <point x="775" y="-27"/>
      <point x="967" y="-27" type="curve" smooth="yes"/>
      <point x="1199" y="-27"/>
      <point x="1322" y="115"/>
      <point x="1322" y="381" type="curve" smooth="yes"/>
      <point x="1322" y="464" type="line"/>
      <point x="1130" y="477" type="line"/>
      <point x="1130" y="394" type="line" smooth="yes"/>
      <point x="1130" y="231"/>
      <point x="1077" y="146"/>
      <point x="960" y="146" type="curve" smooth="yes"/>
      <point x="866" y="146"/>
      <point x="808" y="196"/>
      <point x="779" y="324" type="curve" smooth="yes"/>
      <point x="751" y="446" type="line" smooth="yes"/>
      <point x="708" y="634"/>
      <point x="607" y="717"/>
    </contour>
    <contour>
      <point x="1322" y="440" type="line"/>
      <point x="1322" y="622" type="line" smooth="yes"/>
      <point x="1322" y="1146"/>
      <point x="1097" y="1399"/>
      <point x="643" y="1399" type="curve" smooth="yes"/>
      <point x="362" y="1399"/>
      <point x="209" y="1286"/>
      <point x="209" y="1076" type="curve" smooth="yes"/>
      <point x="209" y="1066" type="line" smooth="yes"/>
      <point x="209" y="893"/>
      <point x="317" y="798"/>
      <point x="527" y="798" type="curve" smooth="yes"/>
      <point x="721" y="798"/>
      <point x="832" y="879"/>
      <point x="832" y="1038" type="curve" smooth="yes"/>
      <point x="832" y="1046" type="line" smooth="yes"/>
      <point x="832" y="1154"/>
      <point x="789" y="1209"/>
      <point x="707" y="1237" type="curve"/>
      <point x="712" y="1280" type="line"/>
      <point x="518" y="1242" type="line"/>
      <point x="605" y="1219"/>
      <point x="658" y="1171"/>
      <point x="658" y="1076" type="curve" smooth="yes"/>
      <point x="658" y="1069" type="line" smooth="yes"/>
      <point x="658" y="990"/>
      <point x="611" y="948"/>
      <point x="526" y="948" type="curve" smooth="yes"/>
      <point x="437" y="948"/>
      <point x="388" y="991"/>
      <point x="388" y="1070" type="curve" smooth="yes"/>
      <point x="388" y="1078" type="line" smooth="yes"/>
      <point x="388" y="1192"/>
      <point x="471" y="1246"/>
      <point x="646" y="1246" type="curve" smooth="yes"/>
      <point x="970" y="1246"/>
      <point x="1130" y="1052"/>
      <point x="1130" y="625" type="curve" smooth="yes"/>
      <point x="1130" y="455" type="line"/>
    </contour>
  </outline>
</glyph>
<glyph name="NnamatraAa.kn" format="2">
  <advance width="2470"/>
  <outline>
    <contour>
      <point x="1217" y="1013" type="line"/>
      <point x="1217" y="1171" type="line"/>
      <point x="108" y="1171" type="line"/>
      <point x="108" y="1013" type="line"/>
    </contour>
    <contour>
      <point x="1483" y="397" type="line"/>
      <point x="1483" y="544" type="line" smooth="yes"/>
      <point x="1483" y="825"/>
      <point x="1361" y="967"/>
      <point x="1102" y="967" type="curve" smooth="yes"/>
      <point x="908" y="967"/>
      <point x="808" y="895"/>
      <point x="790" y="779" type="curve"/>
      <point x="784" y="779" type="line"/>
      <point x="767" y="895"/>
      <point x="665" y="967"/>
      <point x="465" y="967" type="curve" smooth="yes"/>
      <point x="228" y="967"/>
      <point x="107" y="871"/>
      <point x="107" y="684" type="curve" smooth="yes"/>
      <point x="107" y="677" type="line" smooth="yes"/>
      <point x="107" y="546"/>
      <point x="176" y="471"/>
      <point x="311" y="457" type="curve"/>
      <point x="311" y="451" type="line"/>
      <point x="174" y="438"/>
      <point x="104" y="366"/>
      <point x="104" y="237" type="curve" smooth="yes"/>
      <point x="104" y="227" type="line" smooth="yes"/>
      <point x="104" y="60"/>
      <point x="223" y="-27"/>
      <point x="457" y="-27" type="curve" smooth="yes"/>
      <point x="529" y="-27"/>
      <point x="594" y="-16"/>
      <point x="653" y="4" type="curve"/>
      <point x="670" y="162" type="line"/>
      <point x="621" y="142"/>
      <point x="557" y="131"/>
      <point x="482" y="131" type="curve" smooth="yes"/>
      <point x="356" y="131"/>
      <point x="292" y="169"/>
      <point x="292" y="245" type="curve" smooth="yes"/>
      <point x="292" y="254" type="line" smooth="yes"/>
      <point x="292" y="335"/>
      <point x="357" y="369"/>
      <point x="496" y="372" type="curve" smooth="yes"/>
      <point x="596" y="374" type="line"/>
      <point x="596" y="530" type="line"/>
      <point x="495" y="532" type="line" smooth="yes"/>
      <point x="357" y="535"/>
      <point x="293" y="572"/>
      <point x="293" y="663" type="curve" smooth="yes"/>
      <point x="293" y="669" type="line" smooth="yes"/>
      <point x="293" y="758"/>
      <point x="359" y="801"/>
      <point x="487" y="801" type="curve" smooth="yes"/>
      <point x="620" y="801"/>
      <point x="683" y="746"/>
      <point x="690" y="633" type="curve" smooth="yes"/>
      <point x="693" y="587" type="line"/>
      <point x="880" y="587" type="line"/>
      <point x="884" y="629" type="line" smooth="yes"/>
      <point x="895" y="746"/>
      <point x="953" y="801"/>
      <point x="1084" y="801" type="curve" smooth="yes"/>
      <point x="1232" y="801"/>
      <point x="1297" y="717"/>
      <point x="1297" y="547" type="curve" smooth="yes"/>
      <point x="1297" y="380" type="line"/>
    </contour>
    <contour>
      <point x="1298" y="399" type="line"/>
      <point x="1298" y="335" type="line" smooth="yes"/>
      <point x="1298" y="193"/>
      <point x="1248" y="131"/>
      <point x="1131" y="131" type="curve" smooth="yes"/>
      <point x="1026" y="131"/>
      <point x="974" y="175"/>
      <point x="974" y="258" type="curve" smooth="yes"/>
      <point x="974" y="265" type="line" smooth="yes"/>
      <point x="974" y="355"/>
      <point x="1025" y="393"/>
      <point x="1122" y="393" type="curve" smooth="yes"/>
      <point x="1215" y="393"/>
      <point x="1281" y="351"/>
      <point x="1317" y="281" type="curve"/>
      <point x="1325" y="434" type="line"/>
      <point x="1291" y="434" type="line"/>
      <point x="1261" y="503"/>
      <point x="1190" y="547"/>
      <point x="1077" y="547" type="curve" smooth="yes"/>
      <point x="890" y="547"/>
      <point x="790" y="457"/>
      <point x="790" y="268" type="curve" smooth="yes"/>
      <point x="790" y="260" type="line" smooth="yes"/>
      <point x="790" y="74"/>
      <point x="906" y="-27"/>
      <point x="1130" y="-27" type="curve" smooth="yes"/>
      <point x="1368" y="-27"/>
      <point x="1483" y="96"/>
      <point x="1483" y="355" type="curve" smooth="yes"/>
      <point x="1483" y="413" type="line"/>
    </contour>
    <contour>
      <point x="1776" y="1171" type="curve" smooth="yes"/>
      <point x="1160" y="1171" type="line"/>
      <point x="1160" y="1013" type="line"/>
      <point x="1755" y="1013" type="line" smooth="yes"/>
      <point x="2035" y="1013"/>
      <point x="2166" y="879"/>
      <point x="2166" y="595" type="curve" smooth="yes"/>
      <point x="2166" y="499" type="line"/>
      <point x="2356" y="504" type="line"/>
      <point x="2356" y="594" type="line" smooth="yes"/>
      <point x="2356" y="980"/>
      <point x="2168" y="1171"/>
    </contour>
    <contour>
      <point x="2007" y="-27" type="curve" smooth="yes"/>
      <point x="2249" y="-27"/>
      <point x="2356" y="107"/>
      <point x="2356" y="395" type="curve" smooth="yes"/>
      <point x="2356" y="514" type="line"/>
      <point x="2167" y="504" type="line"/>
      <point x="2167" y="376" type="line" smooth="yes"/>
      <point x="2167" y="210"/>
      <point x="2125" y="139"/>
      <point x="2009" y="139" type="curve" smooth="yes"/>
      <point x="1904" y="139"/>
      <point x="1855" y="199"/>
      <point x="1855" y="317" type="curve" smooth="yes"/>
      <point x="1855" y="362" type="line" smooth="yes"/>
      <point x="1855" y="480"/>
      <point x="1903" y="534"/>
      <point x="2002" y="534" type="curve" smooth="yes"/>
      <point x="2088" y="534"/>
      <point x="2147" y="490"/>
      <point x="2180" y="411" type="curve"/>
      <point x="2194" y="552" type="line"/>
      <point x="2160" y="552" type="line"/>
      <point x="2130" y="643"/>
      <point x="2059" y="696"/>
      <point x="1943" y="696" type="curve" smooth="yes"/>
      <point x="1756" y="696"/>
      <point x="1667" y="582"/>
      <point x="1667" y="365" type="curve" smooth="yes"/>
      <point x="1667" y="316" type="line" smooth="yes"/>
      <point x="1667" y="91"/>
      <point x="1779" y="-27"/>
    </contour>
  </outline>
</glyph>
<glyph name="NnamatraE.kn" format="2">
  <advance width="1598"/>
  <outline>
    <contour>
      <point x="1217" y="1013" type="line"/>
      <point x="1217" y="1171" type="line"/>
      <point x="108" y="1171" type="line"/>
      <point x="108" y="1013" type="line"/>
    </contour>
    <contour>
      <point x="1483" y="397" type="line"/>
      <point x="1483" y="544" type="line" smooth="yes"/>
      <point x="1483" y="825"/>
      <point x="1361" y="967"/>
      <point x="1102" y="967" type="curve" smooth="yes"/>
      <point x="908" y="967"/>
      <point x="808" y="895"/>
      <point x="790" y="779" type="curve"/>
      <point x="784" y="779" type="line"/>
      <point x="767" y="895"/>
      <point x="665" y="967"/>
      <point x="465" y="967" type="curve" smooth="yes"/>
      <point x="228" y="967"/>
      <point x="107" y="871"/>
      <point x="107" y="684" type="curve" smooth="yes"/>
      <point x="107" y="677" type="line" smooth="yes"/>
      <point x="107" y="546"/>
      <point x="176" y="471"/>
      <point x="311" y="457" type="curve"/>
      <point x="311" y="451" type="line"/>
      <point x="174" y="438"/>
      <point x="104" y="366"/>
      <point x="104" y="237" type="curve" smooth="yes"/>
      <point x="104" y="227" type="line" smooth="yes"/>
      <point x="104" y="60"/>
      <point x="223" y="-27"/>
      <point x="457" y="-27" type="curve" smooth="yes"/>
      <point x="529" y="-27"/>
      <point x="594" y="-16"/>
      <point x="653" y="4" type="curve"/>
      <point x="670" y="162" type="line"/>
      <point x="621" y="142"/>
      <point x="557" y="131"/>
      <point x="482" y="131" type="curve" smooth="yes"/>
      <point x="356" y="131"/>
      <point x="292" y="169"/>
      <point x="292" y="245" type="curve" smooth="yes"/>
      <point x="292" y="254" type="line" smooth="yes"/>
      <point x="292" y="335"/>
      <point x="357" y="369"/>
      <point x="496" y="372" type="curve" smooth="yes"/>
      <point x="596" y="374" type="line"/>
      <point x="596" y="530" type="line"/>
      <point x="495" y="532" type="line" smooth="yes"/>
      <point x="357" y="535"/>
      <point x="293" y="572"/>
      <point x="293" y="663" type="curve" smooth="yes"/>
      <point x="293" y="669" type="line" smooth="yes"/>
      <point x="293" y="758"/>
      <point x="359" y="801"/>
      <point x="487" y="801" type="curve" smooth="yes"/>
      <point x="620" y="801"/>
      <point x="683" y="746"/>
      <point x="690" y="633" type="curve" smooth="yes"/>
      <point x="693" y="587" type="line"/>
      <point x="880" y="587" type="line"/>
      <point x="884" y="629" type="line" smooth="yes"/>
      <point x="895" y="746"/>
      <point x="953" y="801"/>
      <point x="1084" y="801" type="curve" smooth="yes"/>
      <point x="1232" y="801"/>
      <point x="1297" y="717"/>
      <point x="1297" y="547" type="curve" smooth="yes"/>
      <point x="1297" y="380" type="line"/>
    </contour>
    <contour>
      <point x="1298" y="399" type="line"/>
      <point x="1298" y="335" type="line" smooth="yes"/>
      <point x="1298" y="193"/>
      <point x="1248" y="131"/>
      <point x="1131" y="131" type="curve" smooth="yes"/>
      <point x="1026" y="131"/>
      <point x="974" y="175"/>
      <point x="974" y="258" type="curve" smooth="yes"/>
      <point x="974" y="265" type="line" smooth="yes"/>
      <point x="974" y="355"/>
      <point x="1025" y="393"/>
      <point x="1122" y="393" type="curve" smooth="yes"/>
      <point x="1215" y="393"/>
      <point x="1281" y="351"/>
      <point x="1317" y="281" type="curve"/>
      <point x="1325" y="434" type="line"/>
      <point x="1291" y="434" type="line"/>
      <point x="1261" y="503"/>
      <point x="1190" y="547"/>
      <point x="1077" y="547" type="curve" smooth="yes"/>
      <point x="890" y="547"/>
      <point x="790" y="457"/>
      <point x="790" y="268" type="curve" smooth="yes"/>
      <point x="790" y="260" type="line" smooth="yes"/>
      <point x="790" y="74"/>
      <point x="906" y="-27"/>
      <point x="1130" y="-27" type="curve" smooth="yes"/>
      <point x="1368" y="-27"/>
      <point x="1483" y="96"/>
      <point x="1483" y="355" type="curve" smooth="yes"/>
      <point x="1483" y="413" type="line"/>
    </contour>
    <contour>
      <point x="1228" y="1013" type="line" smooth="yes"/>
      <point x="1422" y="1013"/>
      <point x="1523" y="1118"/>
      <point x="1523" y="1337" type="curve" smooth="yes"/>
      <point x="1523" y="1366" type="line" smooth="yes"/>
      <point x="1523" y="1558"/>
      <point x="1422" y="1661"/>
      <point x="1233" y="1661" type="curve" smooth="yes"/>
      <point x="1046" y="1661"/>
      <point x="948" y="1573"/>
      <point x="948" y="1405" type="curve" smooth="yes"/>
      <point x="948" y="1399" type="line" smooth="yes"/>
      <point x="948" y="1348"/>
      <point x="959" y="1300"/>
      <point x="979" y="1269" type="curve"/>
      <point x="1145" y="1269" type="line"/>
      <point x="1132" y="1299"/>
      <point x="1123" y="1337"/>
      <point x="1123" y="1379" type="curve" smooth="yes"/>
      <point x="1123" y="1385" type="line" smooth="yes"/>
      <point x="1123" y="1464"/>
      <point x="1159" y="1503"/>
      <point x="1234" y="1503" type="curve" smooth="yes"/>
      <point x="1307" y="1503"/>
      <point x="1344" y="1458"/>
      <point x="1344" y="1372" type="curve" smooth="yes"/>
      <point x="1344" y="1348" type="line" smooth="yes"/>
      <point x="1344" y="1225"/>
      <point x="1295" y="1171"/>
      <point x="1188" y="1171" type="curve" smooth="yes"/>
      <point x="1077" y="1171" type="line"/>
      <point x="1078" y="1013" type="line"/>
    </contour>
  </outline>
</glyph>
<glyph name="Nnasmall1.kn" format="2">
  <outline>
    <contour>
      <point x="253" y="-481" type="line"/>
      <point x="253" y="-382" type="line" smooth="yes"/>
      <point x="253" y="-211"/>
      <point x="174" y="-122"/>
      <point x="17" y="-122" type="curve" smooth="yes"/>
      <point x="-90" y="-122"/>
      <point x="-153" y="-165"/>
      <point x="-165" y="-236" type="curve"/>
      <point x="-170" y="-236" type="line"/>
      <point x="-184" y="-165"/>
      <point x="-248" y="-122"/>
      <point x="-357" y="-122" type="curve" smooth="yes"/>
      <point x="-502" y="-122"/>
      <point x="-578" y="-185"/>
      <point x="-578" y="-307" type="curve" smooth="yes"/>
      <point x="-578" y="-310" type="line" smooth="yes"/>
      <point x="-578" y="-392"/>
      <point x="-540" y="-440"/>
      <point x="-459" y="-450" type="curve"/>
      <point x="-459" y="-450"/>
      <point x="-459" y="-454"/>
      <point x="-459" y="-454" type="curve"/>
      <point x="-543" y="-465"/>
      <point x="-580" y="-512"/>
      <point x="-580" y="-592" type="curve" smooth="yes"/>
      <point x="-580" y="-597" type="line" smooth="yes"/>
      <point x="-580" y="-707"/>
      <point x="-508" y="-765"/>
      <point x="-362" y="-765" type="curve" smooth="yes"/>
      <point x="-322" y="-765"/>
      <point x="-282" y="-760"/>
      <point x="-244" y="-747" type="curve"/>
      <point x="-230" y="-627" type="line"/>
      <point x="-262" y="-638"/>
      <point x="-301" y="-644"/>
      <point x="-342" y="-644" type="curve" smooth="yes"/>
      <point x="-405" y="-644"/>
      <point x="-436" y="-625"/>
      <point x="-436" y="-581" type="curve" smooth="yes"/>
      <point x="-436" y="-579" type="line" smooth="yes"/>
      <point x="-436" y="-531"/>
      <point x="-404" y="-514"/>
      <point x="-339" y="-512" type="curve" smooth="yes"/>
      <point x="-278" y="-510" type="line"/>
      <point x="-278" y="-398" type="line"/>
      <point x="-340" y="-397" type="line" smooth="yes"/>
      <point x="-402" y="-396"/>
      <point x="-433" y="-373"/>
      <point x="-433" y="-322" type="curve" smooth="yes"/>
      <point x="-433" y="-320" type="line" smooth="yes"/>
      <point x="-433" y="-271"/>
      <point x="-403" y="-245"/>
      <point x="-340" y="-245" type="curve" smooth="yes"/>
      <point x="-277" y="-245"/>
      <point x="-245" y="-276"/>
      <point x="-240" y="-335" type="curve" smooth="yes"/>
      <point x="-238" y="-367" type="line"/>
      <point x="-99" y="-367" type="line"/>
      <point x="-97" y="-341" type="line" smooth="yes"/>
      <point x="-94" y="-283"/>
      <point x="-66" y="-246"/>
      <point x="2" y="-246" type="curve" smooth="yes"/>
      <point x="74" y="-246"/>
      <point x="111" y="-292"/>
      <point x="111" y="-383" type="curve" smooth="yes"/>
      <point x="111" y="-495" type="line"/>
    </contour>
    <contour>
      <point x="113" y="-480" type="line"/>
      <point x="113" y="-538" type="line" smooth="yes"/>
      <point x="113" y="-613"/>
      <point x="95" y="-651"/>
      <point x="36" y="-651" type="curve" smooth="yes"/>
      <point x="-13" y="-651"/>
      <point x="-40" y="-626"/>
      <point x="-40" y="-578" type="curve" smooth="yes"/>
      <point x="-40" y="-575" type="line" smooth="yes"/>
      <point x="-40" y="-527"/>
      <point x="-14" y="-503"/>
      <point x="34" y="-503" type="curve" smooth="yes"/>
      <point x="80" y="-503"/>
      <point x="105" y="-521"/>
      <point x="128" y="-567" type="curve"/>
      <point x="143" y="-465" type="line"/>
      <point x="107" y="-465" type="line"/>
      <point x="93" y="-422"/>
      <point x="56" y="-397"/>
      <point x="-10" y="-397" type="curve" smooth="yes"/>
      <point x="-117" y="-397"/>
      <point x="-177" y="-458"/>
      <point x="-177" y="-574" type="curve" smooth="yes"/>
      <point x="-177" y="-580" type="line" smooth="yes"/>
      <point x="-177" y="-701"/>
      <point x="-104" y="-765"/>
      <point x="33" y="-765" type="curve" smooth="yes"/>
      <point x="187" y="-765"/>
      <point x="253" y="-688"/>
      <point x="253" y="-513" type="curve" smooth="yes"/>
      <point x="253" y="-467" type="line"/>
    </contour>
  </outline>
</glyph>
<glyph name="NyamatraAu.kn" format="2">
  <advance width="3290"/>
  <outline>
    <contour>
      <point x="1679" y="837" type="curve" smooth="yes"/>
      <point x="1679" y="646" type="line"/>
      <point x="1752" y="545"/>
      <point x="1878" y="489"/>
      <point x="2049" y="489" type="curve" smooth="yes"/>
      <point x="2265" y="489"/>
      <point x="2389" y="589"/>
      <point x="2389" y="783" type="curve" smooth="yes"/>
      <point x="2389" y="796" type="line" smooth="yes"/>
      <point x="2389" y="921.79"/>
      <point x="2340" y="986.171"/>
      <point x="2253" y="1004" type="curve"/>
      <point x="2253" y="1047" type="line"/>
      <point x="2012" y="1047" type="line"/>
      <point x="2005" y="1010" type="line"/>
      <point x="2140" y="1010"/>
      <point x="2200" y="954.633"/>
      <point x="2200" y="835" type="curve" smooth="yes"/>
      <point x="2200" y="821" type="line" smooth="yes"/>
      <point x="2200" y="711"/>
      <point x="2145" y="656"/>
      <point x="2034" y="656" type="curve" smooth="yes"/>
      <point x="1959" y="656"/>
      <point x="1899" y="681"/>
      <point x="1864" y="722" type="curve"/>
      <point x="1864" y="870" type="line" smooth="yes"/>
      <point x="1864" y="1094"/>
      <point x="1759" y="1202"/>
      <point x="1555" y="1202" type="curve" smooth="yes"/>
      <point x="1407" y="1202"/>
      <point x="1320" y="1138"/>
      <point x="1296" y="1030" type="curve"/>
      <point x="1272" y="1030" type="line"/>
      <point x="1293" y="716" type="line"/>
      <point x="1347" y="716" type="line"/>
      <point x="1347" y="826" type="line" smooth="yes"/>
      <point x="1347" y="964"/>
      <point x="1403" y="1029"/>
      <point x="1515" y="1029" type="curve" smooth="yes"/>
      <point x="1624" y="1029"/>
      <point x="1679" y="966"/>
    </contour>
    <contour>
      <point x="2202" y="1010" type="line"/>
      <point x="2206" y="1171" type="line"/>
      <point x="1976" y="1171" type="line"/>
      <point x="1976" y="1010" type="line"/>
    </contour>
    <contour>
      <point x="1387" y="-165" type="line"/>
      <point x="1347" y="18"/>
      <point x="1291" y="181"/>
      <point x="1213" y="308" type="curve"/>
      <point x="1106" y="180" type="line"/>
      <point x="1142" y="74"/>
      <point x="1167" y="-39"/>
      <point x="1180" y="-165" type="curve"/>
    </contour>
    <contour>
      <point x="974" y="1029" type="curve" smooth="yes"/>
      <point x="1095" y="1029"/>
      <point x="1155" y="953"/>
      <point x="1155" y="799" type="curve" smooth="yes"/>
      <point x="1155" y="693" type="line" smooth="yes"/>
      <point x="1155" y="556"/>
      <point x="1141" y="457"/>
      <point x="1093" y="367" type="curve"/>
      <point x="1076" y="337" type="line"/>
      <point x="1009" y="225"/>
      <point x="866" y="141"/>
      <point x="672" y="141" type="curve" smooth="yes"/>
      <point x="502" y="141"/>
      <point x="417" y="189"/>
      <point x="417" y="285" type="curve" smooth="yes"/>
      <point x="417" y="290" type="line" smooth="yes"/>
      <point x="417" y="387"/>
      <point x="499" y="436"/>
      <point x="666" y="436" type="curve" smooth="yes"/>
      <point x="852" y="436"/>
      <point x="983" y="370"/>
      <point x="1066" y="247" type="curve"/>
      <point x="1159" y="359" type="line"/>
      <point x="1066" y="513"/>
      <point x="907" y="598"/>
      <point x="654" y="598" type="curve" smooth="yes"/>
      <point x="374" y="598"/>
      <point x="225" y="498"/>
      <point x="225" y="289" type="curve" smooth="yes"/>
      <point x="225" y="284" type="line" smooth="yes"/>
      <point x="225" y="75"/>
      <point x="377" y="-26"/>
      <point x="665" y="-26" type="curve" smooth="yes"/>
      <point x="888" y="-26"/>
      <point x="1067" y="50"/>
      <point x="1166" y="173" type="curve"/>
      <point x="1215" y="214" type="line"/>
      <point x="1313" y="333"/>
      <point x="1347" y="487"/>
      <point x="1347" y="695" type="curve" smooth="yes"/>
      <point x="1347" y="817" type="line" smooth="yes"/>
      <point x="1347" y="893"/>
      <point x="1314" y="966"/>
      <point x="1291" y="1030" type="curve"/>
      <point x="1256" y="1141"/>
      <point x="1154" y="1202"/>
      <point x="1004" y="1202" type="curve" smooth="yes"/>
      <point x="817" y="1202"/>
      <point x="722" y="1120"/>
      <point x="705" y="981" type="curve"/>
      <point x="699" y="981" type="line"/>
      <point x="683" y="1120"/>
      <point x="588" y="1202"/>
      <point x="403" y="1202" type="curve" smooth="yes"/>
      <point x="181" y="1202"/>
      <point x="67" y="1091"/>
      <point x="67" y="868" type="curve" smooth="yes"/>
      <point x="67" y="861" type="line" smooth="yes"/>
      <point x="67" y="781"/>
      <point x="77" y="724"/>
      <point x="99" y="681" type="curve"/>
      <point x="280" y="681" type="line"/>
      <point x="266" y="719"/>
      <point x="254" y="772"/>
      <point x="254" y="839" type="curve" smooth="yes"/>
      <point x="254" y="846" type="line" smooth="yes"/>
      <point x="254" y="968"/>
      <point x="313" y="1029"/>
      <point x="428" y="1029" type="curve" smooth="yes"/>
      <point x="546" y="1029"/>
      <point x="601" y="961"/>
      <point x="605" y="821" type="curve" smooth="yes"/>
      <point x="609" y="706" type="line"/>
      <point x="796" y="706" type="line"/>
      <point x="800" y="821" type="line" smooth="yes"/>
      <point x="805" y="961"/>
      <point x="858" y="1029"/>
    </contour>
    <contour>
      <point x="2234" y="1010" type="line" smooth="yes"/>
      <point x="2399" y="1010"/>
      <point x="2485" y="1089.7"/>
      <point x="2485" y="1238" type="curve" smooth="yes"/>
      <point x="2485" y="1244" type="line" smooth="yes"/>
      <point x="2485" y="1344"/>
      <point x="2442" y="1406"/>
      <point x="2364" y="1424" type="curve"/>
      <point x="2364" y="1453" type="line"/>
      <point x="2161" y="1453" type="line"/>
      <point x="2161" y="1452"/>
      <point x="2160" y="1431"/>
      <point x="2160" y="1430" type="curve"/>
      <point x="2253" y="1430"/>
      <point x="2299" y="1388"/>
      <point x="2299" y="1303" type="curve" smooth="yes"/>
      <point x="2299" y="1297" type="line" smooth="yes"/>
      <point x="2299" y="1214"/>
      <point x="2253" y="1171"/>
      <point x="2159" y="1171" type="curve" smooth="yes"/>
      <point x="2080" y="1171" type="line"/>
      <point x="2080" y="1010" type="line"/>
    </contour>
    <contour>
      <point x="3051" y="992" type="line"/>
      <point x="3051" y="855" type="line" smooth="yes"/>
      <point x="3051" y="707"/>
      <point x="3008" y="645"/>
      <point x="2903" y="645" type="curve" smooth="yes"/>
      <point x="2807" y="645"/>
      <point x="2761" y="701"/>
      <point x="2761" y="810" type="curve" smooth="yes"/>
      <point x="2761" y="843" type="line" smooth="yes"/>
      <point x="2761" y="953"/>
      <point x="2806" y="1005"/>
      <point x="2896" y="1005" type="curve" smooth="yes"/>
      <point x="2980" y="1005"/>
      <point x="3035" y="961"/>
      <point x="3066" y="884" type="curve"/>
      <point x="3077" y="1027" type="line"/>
      <point x="3044" y="1027" type="line"/>
      <point x="3016" y="1112"/>
      <point x="2948" y="1163"/>
      <point x="2839" y="1163" type="curve" smooth="yes"/>
      <point x="2664" y="1163"/>
      <point x="2577" y="1051"/>
      <point x="2577" y="840" type="curve" smooth="yes"/>
      <point x="2577" y="806" type="line" smooth="yes"/>
      <point x="2577" y="592"/>
      <point x="2689" y="482"/>
      <point x="2904" y="482" type="curve" smooth="yes"/>
      <point x="3129" y="482"/>
      <point x="3237" y="606"/>
      <point x="3237" y="869" type="curve" smooth="yes"/>
      <point x="3237" y="992" type="line"/>
    </contour>
    <contour>
      <point x="1983" y="1590" type="line"/>
      <point x="1983" y="1430" type="line"/>
      <point x="2649" y="1430" type="line" smooth="yes"/>
      <point x="2918" y="1430"/>
      <point x="3050" y="1308"/>
      <point x="3050" y="1033" type="curve" smooth="yes"/>
      <point x="3050" y="983" type="line"/>
      <point x="3237" y="990" type="line"/>
      <point x="3237" y="1033" type="line" smooth="yes"/>
      <point x="3237" y="1409.35"/>
      <point x="3047" y="1590"/>
      <point x="2652" y="1590" type="curve" smooth="yes"/>
    </contour>
  </outline>
</glyph>
<glyph name="PamatraUu.kn" format="2">
  <advance width="2870"/>
  <outline>
    <component base="Pa.kn"/>
    <contour>
      <point x="2218" y="1202" type="curve" smooth="yes"/>
      <point x="1861" y="1202"/>
      <point x="1680" y="1013"/>
      <point x="1680" y="641" type="curve" smooth="yes"/>
      <point x="1680" y="525" type="line"/>
      <point x="1870" y="525" type="line"/>
      <point x="1870" y="639" type="line" smooth="yes"/>
      <point x="1870" y="900"/>
      <point x="1982" y="1031"/>
      <point x="2218" y="1031" type="curve" smooth="yes"/>
      <point x="2454" y="1031"/>
      <point x="2567" y="898"/>
      <point x="2567" y="639" type="curve" smooth="yes"/>
      <point x="2567" y="499" type="line"/>
      <point x="2757" y="509" type="line"/>
      <point x="2757" y="637" type="line" smooth="yes"/>
      <point x="2757" y="1011"/>
      <point x="2574" y="1202"/>
    </contour>
    <contour>
      <point x="2757" y="514" type="line"/>
      <point x="2568" y="504" type="line"/>
      <point x="2568" y="376" type="line" smooth="yes"/>
      <point x="2568" y="210"/>
      <point x="2526" y="139"/>
      <point x="2410" y="139" type="curve" smooth="yes"/>
      <point x="2305" y="139"/>
      <point x="2256" y="199"/>
      <point x="2256" y="317" type="curve" smooth="yes"/>
      <point x="2256" y="362" type="line" smooth="yes"/>
      <point x="2256" y="480"/>
      <point x="2304" y="534"/>
      <point x="2403" y="534" type="curve" smooth="yes"/>
      <point x="2489" y="534"/>
      <point x="2548" y="490"/>
      <point x="2581" y="411" type="curve"/>
      <point x="2595" y="552" type="line"/>
      <point x="2561" y="552" type="line"/>
      <point x="2531" y="643"/>
      <point x="2460" y="696"/>
      <point x="2344" y="696" type="curve" smooth="yes"/>
      <point x="2157" y="696"/>
      <point x="2068" y="582"/>
      <point x="2068" y="365" type="curve" smooth="yes"/>
      <point x="2068" y="316" type="line" smooth="yes"/>
      <point x="2068" y="91"/>
      <point x="2180" y="-27"/>
      <point x="2408" y="-27" type="curve" smooth="yes"/>
      <point x="2650" y="-27"/>
      <point x="2757" y="107"/>
      <point x="2757" y="395" type="curve" smooth="yes"/>
    </contour>
    <contour>
      <point x="1680" y="554" type="line"/>
      <point x="1680" y="298" type="line" smooth="yes"/>
      <point x="1680" y="-22"/>
      <point x="1548" y="-175"/>
      <point x="1271" y="-175" type="curve" smooth="yes"/>
      <point x="1044" y="-175"/>
      <point x="879" y="-89"/>
      <point x="780" y="54" type="curve"/>
      <point x="774" y="52" type="line"/>
      <point x="809" y="-160" type="line"/>
      <point x="898" y="-266"/>
      <point x="1054" y="-344"/>
      <point x="1290" y="-344" type="curve" smooth="yes"/>
      <point x="1679" y="-344"/>
      <point x="1870" y="-134"/>
      <point x="1870" y="288" type="curve" smooth="yes"/>
      <point x="1870" y="550" type="line"/>
    </contour>
  </outline>
</glyph>
<glyph name="PhaNuktamatraUu.kn" format="2">
  <advance width="2869"/>
  <outline>
    <component base="PhamatraUu.kn"/>
    <contour>
      <point x="486" y="-366" type="curve" smooth="yes"/>
      <point x="428" y="-366"/>
      <point x="393" y="-402"/>
      <point x="393" y="-472" type="curve" smooth="yes"/>
      <point x="393" y="-543"/>
      <point x="428" y="-577"/>
      <point x="486" y="-577" type="curve" smooth="yes"/>
      <point x="545" y="-577"/>
      <point x="578" y="-543"/>
      <point x="578" y="-472" type="curve" smooth="yes"/>
      <point x="578" y="-402"/>
      <point x="545" y="-366"/>
    </contour>
    <contour>
      <point x="1078" y="-366" type="curve" smooth="yes"/>
      <point x="1020" y="-366"/>
      <point x="986" y="-402"/>
      <point x="986" y="-472" type="curve" smooth="yes"/>
      <point x="986" y="-543"/>
      <point x="1020" y="-577"/>
      <point x="1078" y="-577" type="curve" smooth="yes"/>
      <point x="1137" y="-577"/>
      <point x="1171" y="-543"/>
      <point x="1171" y="-472" type="curve" smooth="yes"/>
      <point x="1171" y="-402"/>
      <point x="1137" y="-366"/>
    </contour>
  </outline>
</glyph>
<glyph name="PhaNuktasmall1.kn" format="2">
  <outline>
    <component base="Phasmall1.kn"/>
    <contour>
      <point x="-411" y="-768" type="curve" smooth="yes"/>
      <point x="-451" y="-768"/>
      <point x="-474" y="-789"/>
      <point x="-474" y="-830" type="curve" smooth="yes"/>
      <point x="-474" y="-871"/>
      <point x="-451" y="-893"/>
      <point x="-411" y="-893" type="curve" smooth="yes"/>
      <point x="-372" y="-893"/>
      <point x="-349" y="-871"/>
      <point x="-349" y="-830" type="curve" smooth="yes"/>
      <point x="-349" y="-789"/>
      <point x="-372" y="-768"/>
    </contour>
    <contour>
      <point x="3" y="-768" type="curve" smooth="yes"/>
      <point x="-37" y="-768"/>
      <point x="-60" y="-789"/>
      <point x="-60" y="-830" type="curve" smooth="yes"/>
      <point x="-60" y="-871"/>
      <point x="-37" y="-893"/>
      <point x="3" y="-893" type="curve" smooth="yes"/>
      <point x="43" y="-893"/>
      <point x="66" y="-871"/>
      <point x="66" y="-830" type="curve" smooth="yes"/>
      <point x="66" y="-789"/>
      <point x="43" y="-768"/>
    </contour>
  </outline>
</glyph>
<glyph name="Rasmall4.kn" format="2">
  <outline>
    <contour>
      <point x="229" y="-525" type="curve" smooth="yes"/>
      <point x="229" y="-476"/>
      <point x="220" y="-427"/>
      <point x="208" y="-394" type="curve"/>
      <point x="86" y="-394" type="line"/>
      <point x="93" y="-428"/>
      <point x="97" y="-468"/>
      <point x="97" y="-512" type="curve" smooth="yes"/>
      <point x="97" y="-668.704"/>
      <point x="-24.4426" y="-748"/>
      <point x="-280" y="-748" type="curve" smooth="yes"/>
      <point x="-421.493" y="-748"/>
      <point x="-571.239" y="-729.341"/>
      <point x="-675" y="-697" type="curve"/>
      <point x="-656" y="-813" type="line"/>
      <point x="-555.308" y="-843.316"/>
      <point x="-410.785" y="-861"/>
      <point x="-271" y="-861" type="curve" smooth="yes"/>
      <point x="75.875" y="-861"/>
      <point x="229" y="-748.68"/>
    </contour>
  </outline>
</glyph>
<glyph name="RraObsoleteHalant.kn" format="2">
  <advance width="2979"/>
  <outline>
    <component base="RraObsolete.kn"/>
    <component base="Halant.kn" xOffset="2313"/>
    <contour>
      <point x="2159" y="794" type="line" smooth="yes"/>
      <point x="2159" y="916.83"/>
      <point x="2113" y="986.17"/>
      <point x="2028" y="1004" type="curve"/>
      <point x="2028" y="1047" type="line"/>
      <point x="1782" y="1047" type="line"/>
      <point x="1775" y="1010" type="line"/>
      <point x="1912" y="1010"/>
      <point x="1972" y="954.626"/>
      <point x="1972" y="833" type="curve" smooth="yes"/>
      <point x="1972" y="823" type="line" smooth="yes"/>
      <point x="1972" y="712"/>
      <point x="1918" y="655"/>
      <point x="1810" y="655" type="curve" smooth="yes"/>
      <point x="1728" y="655"/>
      <point x="1662" y="682"/>
      <point x="1624" y="728" type="curve"/>
      <point x="1550" y="649" type="line"/>
      <point x="1607" y="545"/>
      <point x="1709" y="489"/>
      <point x="1859" y="489" type="curve" smooth="yes"/>
      <point x="2050" y="489"/>
      <point x="2159" y="590"/>
      <point x="2159" y="785" type="curve" smooth="yes"/>
    </contour>
    <contour>
      <point x="1973" y="1010" type="line"/>
      <point x="1973" y="1171" type="line"/>
      <point x="1729" y="1171" type="line"/>
      <point x="1729" y="1010" type="line"/>
    </contour>
  </outline>
  <guideline angle="90" x="1615" y="0"/>
</glyph>
<glyph name="Sasmall1.kn" format="2">
  <outline>
    <contour>
      <point x="-412" y="-306" type="curve" smooth="yes"/>
      <point x="-550" y="-306"/>
      <point x="-628" y="-382"/>
      <point x="-628" y="-532" type="curve" smooth="yes"/>
      <point x="-628" y="-539" type="line" smooth="yes"/>
      <point x="-628" y="-612"/>
      <point x="-612" y="-677"/>
      <point x="-586" y="-718" type="curve"/>
      <point x="-442" y="-718" type="line"/>
      <point x="-468" y="-668"/>
      <point x="-486" y="-601"/>
      <point x="-486" y="-539" type="curve" smooth="yes"/>
      <point x="-486" y="-532" type="line" smooth="yes"/>
      <point x="-486" y="-464"/>
      <point x="-459" y="-430"/>
      <point x="-409" y="-430" type="curve" smooth="yes"/>
      <point x="-365" y="-430"/>
      <point x="-338" y="-452"/>
      <point x="-319" y="-511" type="curve" smooth="yes"/>
      <point x="-302" y="-565" type="line" smooth="yes"/>
      <point x="-267" y="-673"/>
      <point x="-196" y="-723"/>
      <point x="-74" y="-723" type="curve" smooth="yes"/>
      <point x="82" y="-723"/>
      <point x="161" y="-636"/>
      <point x="162" y="-471" type="curve" smooth="yes"/>
      <point x="162" y="-369" type="line" smooth="yes"/>
      <point x="163" y="-185"/>
      <point x="89" y="-91"/>
      <point x="-86" y="-91" type="curve" smooth="yes"/>
      <point x="-104" y="-91"/>
      <point x="-120" y="-92"/>
      <point x="-134" y="-94" type="curve"/>
      <point x="-134" y="-218" type="line"/>
      <point x="-124" y="-217"/>
      <point x="-117" y="-217"/>
      <point x="-110" y="-217" type="curve" smooth="yes"/>
      <point x="-16" y="-217"/>
      <point x="17" y="-268"/>
      <point x="17" y="-372" type="curve" smooth="yes"/>
      <point x="17" y="-471" type="line" smooth="yes"/>
      <point x="17" y="-557"/>
      <point x="-15" y="-597"/>
      <point x="-76" y="-597" type="curve" smooth="yes"/>
      <point x="-131" y="-597"/>
      <point x="-159" y="-569"/>
      <point x="-180" y="-507" type="curve" smooth="yes"/>
      <point x="-199" y="-452" type="line" smooth="yes"/>
      <point x="-233" y="-353"/>
      <point x="-297" y="-306"/>
    </contour>
  </outline>
</glyph>
<glyph name="SsamatraO.kn" format="2">
  <advance width="2978"/>
  <outline>
    <component base="SsamatraE.kn"/>
    <contour>
      <point x="2326" y="1202" type="curve" smooth="yes"/>
      <point x="1969" y="1202"/>
      <point x="1788" y="1013"/>
      <point x="1788" y="641" type="curve" smooth="yes"/>
      <point x="1788" y="525" type="line"/>
      <point x="1978" y="525" type="line"/>
      <point x="1978" y="639" type="line" smooth="yes"/>
      <point x="1978" y="900"/>
      <point x="2090" y="1031"/>
      <point x="2326" y="1031" type="curve" smooth="yes"/>
      <point x="2562" y="1031"/>
      <point x="2675" y="898"/>
      <point x="2675" y="639" type="curve" smooth="yes"/>
      <point x="2675" y="499" type="line"/>
      <point x="2865" y="509" type="line"/>
      <point x="2865" y="637" type="line" smooth="yes"/>
      <point x="2865" y="1011"/>
      <point x="2682" y="1202"/>
    </contour>
    <contour>
      <point x="2865" y="514" type="line"/>
      <point x="2676" y="504" type="line"/>
      <point x="2676" y="376" type="line" smooth="yes"/>
      <point x="2676" y="210"/>
      <point x="2634" y="139"/>
      <point x="2518" y="139" type="curve" smooth="yes"/>
      <point x="2413" y="139"/>
      <point x="2364" y="199"/>
      <point x="2364" y="317" type="curve" smooth="yes"/>
      <point x="2364" y="362" type="line" smooth="yes"/>
      <point x="2364" y="480"/>
      <point x="2412" y="534"/>
      <point x="2511" y="534" type="curve" smooth="yes"/>
      <point x="2597" y="534"/>
      <point x="2656" y="490"/>
      <point x="2689" y="411" type="curve"/>
      <point x="2703" y="552" type="line"/>
      <point x="2669" y="552" type="line"/>
      <point x="2639" y="643"/>
      <point x="2568" y="696"/>
      <point x="2452" y="696" type="curve" smooth="yes"/>
      <point x="2265" y="696"/>
      <point x="2176" y="582"/>
      <point x="2176" y="365" type="curve" smooth="yes"/>
      <point x="2176" y="316" type="line" smooth="yes"/>
      <point x="2176" y="91"/>
      <point x="2288" y="-27"/>
      <point x="2516" y="-27" type="curve" smooth="yes"/>
      <point x="2758" y="-27"/>
      <point x="2865" y="107"/>
      <point x="2865" y="395" type="curve" smooth="yes"/>
    </contour>
    <contour>
      <point x="1649" y="145" type="curve" smooth="yes"/>
      <point x="1541" y="145"/>
      <point x="1486" y="218"/>
      <point x="1463" y="335" type="curve"/>
      <point x="1430" y="335" type="line"/>
      <point x="1445" y="273" type="line"/>
      <point x="1471" y="84"/>
      <point x="1540" y="-27"/>
      <point x="1717" y="-27" type="curve" smooth="yes"/>
      <point x="1889" y="-27"/>
      <point x="1978" y="90"/>
      <point x="1978" y="324" type="curve" smooth="yes"/>
      <point x="1978" y="567" type="line"/>
      <point x="1788" y="567" type="line"/>
      <point x="1788" y="338" type="line" smooth="yes"/>
      <point x="1788" y="205"/>
      <point x="1742" y="145"/>
    </contour>
  </outline>
</glyph>
<glyph name="Tasmall1.kn" format="2">
  <outline>
    <contour>
      <point x="-225" y="-677" type="line" smooth="yes"/>
      <point x="-37.9552" y="-677"/>
      <point x="62" y="-588"/>
      <point x="62" y="-411" type="curve" smooth="yes"/>
      <point x="62" y="-390" type="line" smooth="yes"/>
      <point x="62" y="-217"/>
      <point x="-35.9278" y="-126"/>
      <point x="-212" y="-126" type="curve" smooth="yes"/>
      <point x="-385.056" y="-126"/>
      <point x="-479" y="-211"/>
      <point x="-479" y="-368" type="curve" smooth="yes"/>
      <point x="-479" y="-382" type="line" smooth="yes"/>
      <point x="-479" y="-464"/>
      <point x="-447" y="-519"/>
      <point x="-386" y="-536" type="curve"/>
      <point x="-386" y="-541" type="line"/>
      <point x="-908" y="-541" type="line"/>
      <point x="-889" y="-677" type="line"/>
    </contour>
    <contour>
      <point x="-210" y="-261" type="curve" smooth="yes"/>
      <point x="-134.991" y="-261"/>
      <point x="-97" y="-304"/>
      <point x="-97" y="-391" type="curve" smooth="yes"/>
      <point x="-97" y="-411" type="line" smooth="yes"/>
      <point x="-97" y="-498"/>
      <point x="-134.991" y="-542"/>
      <point x="-210" y="-542" type="curve" smooth="yes"/>
      <point x="-285.009" y="-542"/>
      <point x="-323" y="-498"/>
      <point x="-323" y="-411" type="curve" smooth="yes"/>
      <point x="-323" y="-391" type="line" smooth="yes"/>
      <point x="-323" y="-304"/>
      <point x="-285.009" y="-261"/>
    </contour>
  </outline>
  <guideline angle="0" x="0" y="-407"/>
</glyph>
<glyph name="ThamatraAa.kn" format="2">
  <advance width="2414"/>
  <outline>
    <component base="matraAa.kn" xOffset="943"/>
    <contour>
      <point x="763" y="564" type="curve" smooth="yes"/>
      <point x="831" y="564"/>
      <point x="863" y="603"/>
      <point x="863" y="698" type="curve" smooth="yes"/>
      <point x="863" y="743" type="line" smooth="yes"/>
      <point x="863" y="837"/>
      <point x="831" y="877"/>
      <point x="763" y="877" type="curve" smooth="yes"/>
      <point x="697" y="877"/>
      <point x="666" y="837"/>
      <point x="666" y="743" type="curve" smooth="yes"/>
      <point x="666" y="698" type="line" smooth="yes"/>
      <point x="666" y="604"/>
      <point x="697" y="564"/>
    </contour>
    <contour>
      <point x="1121" y="1011" type="line"/>
      <point x="1113" y="1171" type="line"/>
      <point x="114" y="1171" type="line"/>
      <point x="114" y="1011" type="line"/>
    </contour>
    <contour>
      <point x="306" y="535" type="line" smooth="yes"/>
      <point x="306" y="857.323"/>
      <point x="447" y="1011"/>
      <point x="748" y="1011" type="curve"/>
      <point x="747" y="1034" type="line"/>
      <point x="389" y="1034" type="line"/>
      <point x="389" y="1005" type="line"/>
      <point x="214" y="963.086"/>
      <point x="114" y="812.397"/>
      <point x="114" y="520" type="curve" smooth="yes"/>
      <point x="114" y="384" type="line" smooth="yes"/>
      <point x="114" y="107"/>
      <point x="232" y="-27"/>
      <point x="463" y="-27" type="curve" smooth="yes"/>
      <point x="648" y="-27"/>
      <point x="747" y="57"/>
      <point x="762" y="207" type="curve"/>
      <point x="767" y="207" type="line"/>
      <point x="782" y="57"/>
      <point x="880" y="-27"/>
      <point x="1065" y="-27" type="curve" smooth="yes"/>
      <point x="1296" y="-27"/>
      <point x="1415" y="108"/>
      <point x="1415" y="385" type="curve" smooth="yes"/>
      <point x="1415" y="520" type="line" smooth="yes"/>
      <point x="1415" y="812.397"/>
      <point x="1314.73" y="962.086"/>
      <point x="1141" y="1004" type="curve"/>
      <point x="1141" y="1035" type="line"/>
      <point x="781" y="1035" type="line"/>
      <point x="781" y="1011" type="line"/>
      <point x="1082" y="1011"/>
      <point x="1223" y="857.323"/>
      <point x="1223" y="535" type="curve" smooth="yes"/>
      <point x="1223" y="399" type="line" smooth="yes"/>
      <point x="1223" y="226"/>
      <point x="1163" y="147"/>
      <point x="1038" y="147" type="curve" smooth="yes"/>
      <point x="921" y="147"/>
      <point x="870" y="216"/>
      <point x="863" y="361" type="curve" smooth="yes"/>
      <point x="859" y="450" type="line"/>
      <point x="670" y="450" type="line"/>
      <point x="666" y="361" type="line" smooth="yes"/>
      <point x="659" y="216"/>
      <point x="608" y="147"/>
      <point x="491" y="147" type="curve" smooth="yes"/>
      <point x="366" y="147"/>
      <point x="306" y="226"/>
      <point x="306" y="399" type="curve" smooth="yes"/>
    </contour>
    <contour>
      <point x="764" y="-408" type="curve" smooth="yes"/>
      <point x="832" y="-408"/>
      <point x="866" y="-366"/>
      <point x="866" y="-281" type="curve" smooth="yes"/>
      <point x="866" y="-272" type="line" smooth="yes"/>
      <point x="866" y="-141"/>
      <point x="831" y="-38"/>
      <point x="764" y="56" type="curve"/>
      <point x="698" y="-38"/>
      <point x="663" y="-141"/>
      <point x="663" y="-272" type="curve" smooth="yes"/>
      <point x="663" y="-281" type="line" smooth="yes"/>
      <point x="663" y="-366"/>
      <point x="696" y="-408"/>
    </contour>
    <contour>
      <point x="1262" y="1010" type="line"/>
      <point x="1262" y="1171" type="line"/>
      <point x="964" y="1171" type="line"/>
      <point x="964" y="1010" type="line"/>
    </contour>
  </outline>
  <guideline angle="90" x="730" y="0"/>
  <guideline angle="90" x="421" y="0"/>
  <guideline angle="0" x="0" y="-274"/>
  <guideline angle="90" x="730" y="0"/>
  <guideline angle="90" x="112" y="0"/>
</glyph>
<glyph name="TtamatraUu.kn" format="2">
  <advance width="2961"/>
  <outline>
    <component base="Tta.kn"/>
    <contour>
      <point x="1615" y="146" type="curve" smooth="yes"/>
      <point x="1504" y="146"/>
      <point x="1450" y="211"/>
      <point x="1450" y="339" type="curve"/>
      <point x="1450" y="339"/>
      <point x="1450" y="342"/>
      <point x="1450" y="342" type="curve"/>
      <point x="1366" y="342" type="line"/>
      <point x="1366" y="289" type="line" smooth="yes"/>
      <point x="1366" y="81"/>
      <point x="1461" y="-27"/>
      <point x="1648" y="-27" type="curve" smooth="yes"/>
      <point x="1856" y="-27"/>
      <point x="1961" y="99"/>
      <point x="1961" y="342" type="curve" smooth="yes"/>
      <point x="1961" y="539" type="line"/>
      <point x="1771" y="539" type="line"/>
      <point x="1771" y="353" type="line" smooth="yes"/>
      <point x="1771" y="213"/>
      <point x="1720" y="146"/>
    </contour>
    <contour>
      <point x="2309" y="1202" type="curve" smooth="yes"/>
      <point x="1952" y="1202"/>
      <point x="1771" y="1013"/>
      <point x="1771" y="641" type="curve" smooth="yes"/>
      <point x="1771" y="525" type="line"/>
      <point x="1961" y="525" type="line"/>
      <point x="1961" y="639" type="line" smooth="yes"/>
      <point x="1961" y="900"/>
      <point x="2073" y="1031"/>
      <point x="2309" y="1031" type="curve" smooth="yes"/>
      <point x="2545" y="1031"/>
      <point x="2658" y="898"/>
      <point x="2658" y="639" type="curve" smooth="yes"/>
      <point x="2658" y="499" type="line"/>
      <point x="2848" y="509" type="line"/>
      <point x="2848" y="637" type="line" smooth="yes"/>
      <point x="2848" y="1011"/>
      <point x="2665" y="1202"/>
    </contour>
    <contour>
      <point x="2848" y="514" type="line"/>
      <point x="2659" y="504" type="line"/>
      <point x="2659" y="376" type="line" smooth="yes"/>
      <point x="2659" y="210"/>
      <point x="2617" y="139"/>
      <point x="2501" y="139" type="curve" smooth="yes"/>
      <point x="2396" y="139"/>
      <point x="2347" y="199"/>
      <point x="2347" y="317" type="curve" smooth="yes"/>
      <point x="2347" y="362" type="line" smooth="yes"/>
      <point x="2347" y="480"/>
      <point x="2395" y="534"/>
      <point x="2494" y="534" type="curve" smooth="yes"/>
      <point x="2580" y="534"/>
      <point x="2639" y="490"/>
      <point x="2672" y="411" type="curve"/>
      <point x="2686" y="552" type="line"/>
      <point x="2652" y="552" type="line"/>
      <point x="2622" y="643"/>
      <point x="2551" y="696"/>
      <point x="2435" y="696" type="curve" smooth="yes"/>
      <point x="2248" y="696"/>
      <point x="2159" y="582"/>
      <point x="2159" y="365" type="curve" smooth="yes"/>
      <point x="2159" y="316" type="line" smooth="yes"/>
      <point x="2159" y="91"/>
      <point x="2271" y="-27"/>
      <point x="2499" y="-27" type="curve" smooth="yes"/>
      <point x="2741" y="-27"/>
      <point x="2848" y="107"/>
      <point x="2848" y="395" type="curve" smooth="yes"/>
    </contour>
  </outline>
</glyph>
<glyph name="TthamatraI.kn" format="2">
  <advance width="1300"/>
  <outline>
    <contour>
      <point x="994" y="633" type="curve" smooth="yes"/>
      <point x="994" y="520" type="line" smooth="yes"/>
      <point x="994" y="269"/>
      <point x="880" y="140"/>
      <point x="651" y="140" type="curve" smooth="yes"/>
      <point x="422" y="140"/>
      <point x="306" y="269"/>
      <point x="306" y="520" type="curve" smooth="yes"/>
      <point x="306" y="623" type="line" smooth="yes"/>
      <point x="306" y="871.677"/>
      <point x="422" y="999"/>
      <point x="651" y="999" type="curve" smooth="yes"/>
      <point x="880" y="999"/>
      <point x="994" y="874.679"/>
    </contour>
    <contour>
      <point x="571" y="1549" type="curve" smooth="yes"/>
      <point x="270" y="1549"/>
      <point x="116" y="1434"/>
      <point x="116" y="1222" type="curve" smooth="yes"/>
      <point x="116" y="1087"/>
      <point x="182" y="1007"/>
      <point x="314" y="972" type="curve"/>
      <point x="387" y="1091" type="line"/>
      <point x="339" y="1110"/>
      <point x="312" y="1153"/>
      <point x="312" y="1213" type="curve" smooth="yes"/>
      <point x="312" y="1321.69"/>
      <point x="400.336" y="1379"/>
      <point x="578" y="1379" type="curve" smooth="yes"/>
      <point x="896" y="1379"/>
      <point x="1033" y="1188.69"/>
      <point x="1033" y="830" type="curve" smooth="yes"/>
      <point x="1033" y="590" type="line"/>
      <point x="1186" y="617" type="line"/>
      <point x="1186" y="823" type="line" smooth="yes"/>
      <point x="1186" y="1312"/>
      <point x="1002" y="1549"/>
    </contour>
    <contour>
      <point x="644" y="1169" type="curve" smooth="yes"/>
      <point x="515" y="1169"/>
      <point x="408" y="1140"/>
      <point x="329" y="1081" type="curve" smooth="yes"/>
      <point x="306" y="1064"/>
      <point x="290" y="1049"/>
      <point x="267" y="1032" type="curve"/>
      <point x="163" y="942"/>
      <point x="114" y="811"/>
      <point x="114" y="627" type="curve" smooth="yes"/>
      <point x="114" y="510" type="line" smooth="yes"/>
      <point x="114" y="145"/>
      <point x="297" y="-33"/>
      <point x="651" y="-33" type="curve" smooth="yes"/>
      <point x="1006" y="-33"/>
      <point x="1186" y="150"/>
      <point x="1186" y="531" type="curve" smooth="yes"/>
      <point x="1186" y="640" type="line"/>
      <point x="1040" y="999" type="line"/>
      <point x="1036" y="998"/>
      <point x="1018" y="994"/>
      <point x="1015" y="993" type="curve"/>
      <point x="953" y="1108"/>
      <point x="834" y="1169"/>
    </contour>
    <contour>
      <point x="651" y="745" type="curve" smooth="yes"/>
      <point x="583" y="745"/>
      <point x="549" y="704"/>
      <point x="549" y="604" type="curve" smooth="yes"/>
      <point x="549" y="558" type="line" smooth="yes"/>
      <point x="549" y="458"/>
      <point x="583" y="416"/>
      <point x="651" y="416" type="curve" smooth="yes"/>
      <point x="719" y="416"/>
      <point x="751" y="458"/>
      <point x="751" y="558" type="curve" smooth="yes"/>
      <point x="751" y="604" type="line" smooth="yes"/>
      <point x="751" y="704"/>
      <point x="719" y="745"/>
    </contour>
  </outline>
</glyph>
<glyph name="TthamatraO.kn" format="2">
  <advance width="2688"/>
  <outline>
    <component base="TthamatraE.kn"/>
    <component base="matraUu.kn" xOffset="1303"/>
    <contour>
      <point x="1099" y="474" type="line"/>
      <point x="1099" y="359" type="line"/>
      <point x="1185" y="359" type="line"/>
      <point x="1185" y="474" type="line"/>
    </contour>
  </outline>
</glyph>
<glyph name="TthamatraU.kn" format="2">
  <advance width="1957"/>
  <outline>
    <component base="Ttha.kn"/>
    <component base="matraU.kn" xOffset="1309"/>
    <contour>
      <point x="1101" y="379" type="line"/>
      <point x="1184" y="379" type="line"/>
      <point x="1184" y="481" type="line"/>
      <point x="1101" y="481" type="line"/>
    </contour>
  </outline>
</glyph>
<glyph name="VamatraAa.kn" format="2">
  <advance width="2436"/>
  <outline>
    <component base="matraAa.kn" xOffset="965"/>
    <contour>
      <point x="1094" y="-27" type="curve" smooth="yes"/>
      <point x="1321" y="-27"/>
      <point x="1437" y="107"/>
      <point x="1437" y="369" type="curve" smooth="yes"/>
      <point x="1437" y="464" type="line" smooth="yes"/>
      <point x="1437" y="812.356"/>
      <point x="1320" y="960.083"/>
      <point x="1100" y="1005" type="curve"/>
      <point x="1100" y="1034" type="line"/>
      <point x="607" y="1033" type="line"/>
      <point x="607" y="1011" type="line"/>
      <point x="1056" y="1011"/>
      <point x="1245" y="858.286"/>
      <point x="1245" y="477" type="curve" smooth="yes"/>
      <point x="1245" y="380" type="line" smooth="yes"/>
      <point x="1245" y="223"/>
      <point x="1187" y="147"/>
      <point x="1065" y="147" type="curve" smooth="yes"/>
      <point x="943" y="147"/>
      <point x="886" y="218"/>
      <point x="879" y="367" type="curve" smooth="yes"/>
      <point x="874" y="469" type="line"/>
      <point x="687" y="469" type="line"/>
      <point x="682" y="367" type="line" smooth="yes"/>
      <point x="675" y="217"/>
      <point x="611" y="144"/>
      <point x="475" y="144" type="curve" smooth="yes"/>
      <point x="350" y="144"/>
      <point x="287" y="209"/>
      <point x="287" y="339" type="curve" smooth="yes"/>
      <point x="287" y="376" type="line" smooth="yes"/>
      <point x="287" y="494"/>
      <point x="333" y="552"/>
      <point x="435" y="552" type="curve" smooth="yes"/>
      <point x="483" y="552"/>
      <point x="524" y="538"/>
      <point x="556" y="519" type="curve"/>
      <point x="546" y="681" type="line"/>
      <point x="505" y="705"/>
      <point x="456" y="718"/>
      <point x="391" y="718" type="curve" smooth="yes"/>
      <point x="200" y="718"/>
      <point x="99" y="600"/>
      <point x="99" y="382" type="curve" smooth="yes"/>
      <point x="99" y="333" type="line" smooth="yes"/>
      <point x="99" y="96"/>
      <point x="221" y="-27"/>
      <point x="454" y="-27" type="curve" smooth="yes"/>
      <point x="656" y="-27"/>
      <point x="761" y="60"/>
      <point x="777" y="212" type="curve"/>
      <point x="783" y="212" type="line"/>
      <point x="799" y="60"/>
      <point x="902" y="-27"/>
    </contour>
    <contour>
      <point x="1092" y="1011" type="line"/>
      <point x="1085" y="1171" type="line"/>
      <point x="153" y="1171" type="line"/>
      <point x="153" y="1011" type="line"/>
    </contour>
    <contour>
      <point x="1311" y="1010" type="line"/>
      <point x="1311" y="1171" type="line"/>
      <point x="925" y="1171" type="line"/>
      <point x="925" y="1010" type="line"/>
    </contour>
  </outline>
  <guideline angle="90" x="93" y="0"/>
  <guideline angle="0" x="0" y="955"/>
  <guideline angle="90" x="749" y="0"/>
</glyph>
<glyph name="YamatraI.kn.1" format="2">
  <advance width="2538"/>
  <outline>
    <component base="matraU.kn" xOffset="1890"/>
    <contour>
      <point x="1104" y="694" type="line" smooth="yes"/>
      <point x="1104" y="1034"/>
      <point x="933" y="1208"/>
      <point x="608" y="1208" type="curve" smooth="yes"/>
      <point x="284" y="1208"/>
      <point x="114" y="1034"/>
      <point x="114" y="694" type="curve" smooth="yes"/>
      <point x="114" y="485" type="line" smooth="yes"/>
      <point x="114" y="146"/>
      <point x="285" y="-29"/>
      <point x="609" y="-29" type="curve" smooth="yes"/>
      <point x="934" y="-29"/>
      <point x="1104" y="147"/>
      <point x="1104" y="488" type="curve" smooth="yes"/>
    </contour>
    <contour>
      <point x="609" y="142" type="curve" smooth="yes"/>
      <point x="409" y="142"/>
      <point x="306" y="260"/>
      <point x="306" y="486" type="curve" smooth="yes"/>
      <point x="306" y="693" type="line" smooth="yes"/>
      <point x="306" y="919"/>
      <point x="408" y="1037"/>
      <point x="608" y="1037" type="curve" smooth="yes"/>
      <point x="808" y="1037"/>
      <point x="912" y="918"/>
      <point x="912" y="692" type="curve" smooth="yes"/>
      <point x="912" y="486" type="line" smooth="yes"/>
      <point x="912" y="260"/>
      <point x="809" y="142"/>
    </contour>
    <contour>
      <point x="1576" y="461" type="line" smooth="yes"/>
      <point x="1576" y="247"/>
      <point x="1503" y="146"/>
      <point x="1337" y="146" type="curve" smooth="yes"/>
      <point x="1181" y="146"/>
      <point x="1103" y="236"/>
      <point x="1103" y="403" type="curve" smooth="yes"/>
      <point x="1103" y="517" type="line"/>
      <point x="1010" y="516" type="line"/>
      <point x="1010" y="319" type="line" smooth="yes"/>
      <point x="1010" y="99"/>
      <point x="1129" y="-27"/>
      <point x="1370" y="-27" type="curve" smooth="yes"/>
      <point x="1639" y="-27"/>
      <point x="1768" y="133"/>
      <point x="1768" y="455" type="curve" smooth="yes"/>
      <point x="1768" y="837" type="line" smooth="yes"/>
      <point x="1768" y="1155"/>
      <point x="1761" y="1431"/>
      <point x="1410" y="1431" type="curve" smooth="yes"/>
      <point x="1199" y="1431"/>
      <point x="1086" y="1325"/>
      <point x="1086" y="1127" type="curve" smooth="yes"/>
      <point x="1086" y="1120" type="line" smooth="yes"/>
      <point x="1086" y="935"/>
      <point x="1190" y="839"/>
      <point x="1381" y="839" type="curve" smooth="yes"/>
      <point x="1518" y="839"/>
      <point x="1598" y="911"/>
      <point x="1630" y="1045" type="curve"/>
      <point x="1609" y="1157" type="line"/>
      <point x="1575" y="1062"/>
      <point x="1507" y="988"/>
      <point x="1405" y="988" type="curve" smooth="yes"/>
      <point x="1314" y="988"/>
      <point x="1264" y="1031"/>
      <point x="1264" y="1121" type="curve" smooth="yes"/>
      <point x="1264" y="1128" type="line" smooth="yes"/>
      <point x="1264" y="1226"/>
      <point x="1313" y="1277"/>
      <point x="1408" y="1277" type="curve" smooth="yes"/>
      <point x="1542" y="1277"/>
      <point x="1576" y="1180"/>
      <point x="1576" y="958" type="curve" smooth="yes"/>
    </contour>
  </outline>
  <guideline angle="90" x="361" y="0"/>
  <guideline angle="90" x="1001" y="0"/>
  <guideline angle="90" x="929" y="0"/>
  <guideline angle="90" x="1383" y="0"/>
</glyph>
<glyph name="Yasmall1.kn" format="2">
  <advance width="212"/>
  <outline>
    <contour>
      <point x="-249" y="-122" type="curve" smooth="yes"/>
      <point x="-389" y="-122"/>
      <point x="-465" y="-185"/>
      <point x="-465" y="-301" type="curve"/>
      <point x="-465" y="-301"/>
      <point x="-465" y="-302"/>
      <point x="-465" y="-302" type="curve"/>
      <point x="-465" y="-334"/>
      <point x="-458" y="-365"/>
      <point x="-446" y="-386" type="curve"/>
      <point x="-321" y="-386" type="line"/>
      <point x="-329" y="-366"/>
      <point x="-334" y="-344"/>
      <point x="-334" y="-318" type="curve"/>
      <point x="-334" y="-318"/>
      <point x="-334" y="-317"/>
      <point x="-334" y="-317" type="curve"/>
      <point x="-334" y="-262.688"/>
      <point x="-305.337" y="-238"/>
      <point x="-249" y="-238" type="curve" smooth="yes"/>
      <point x="-197.65" y="-238"/>
      <point x="-170" y="-258.696"/>
      <point x="-170" y="-306" type="curve"/>
      <point x="-170" y="-307" type="line"/>
      <point x="-170" y="-342.065"/>
      <point x="-191.937" y="-364.738"/>
      <point x="-250" y="-382" type="curve" smooth="yes"/>
      <point x="-287" y="-393" type="line" smooth="yes"/>
      <point x="-416.666" y="-431.549"/>
      <point x="-463" y="-483.989"/>
      <point x="-463" y="-577" type="curve" smooth="yes"/>
      <point x="-463" y="-706"/>
      <point x="-351" y="-771"/>
      <point x="-147" y="-771" type="curve" smooth="yes"/>
      <point x="104" y="-771"/>
      <point x="234" y="-669"/>
      <point x="234" y="-469" type="curve" smooth="yes"/>
      <point x="234" y="-467" type="line" smooth="yes"/>
      <point x="234" y="-271"/>
      <point x="96" y="-156"/>
      <point x="96" y="-21" type="curve" smooth="yes"/>
      <point x="96" y="-16" type="line" smooth="yes"/>
      <point x="96" y="39"/>
      <point x="123" y="66"/>
      <point x="178" y="66" type="curve" smooth="yes"/>
      <point x="202" y="66"/>
      <point x="225" y="61"/>
      <point x="242" y="53" type="curve"/>
      <point x="220" y="178" type="line"/>
      <point x="196" y="187"/>
      <point x="168" y="191"/>
      <point x="138" y="191" type="curve" smooth="yes"/>
      <point x="17" y="191"/>
      <point x="-49" y="123"/>
      <point x="-49" y="-2" type="curve" smooth="yes"/>
      <point x="-49" y="-7" type="line" smooth="yes"/>
      <point x="-49" y="-171"/>
      <point x="89" y="-286"/>
      <point x="89" y="-459" type="curve"/>
      <point x="89" y="-461" type="line"/>
      <point x="89" y="-586"/>
      <point x="12" y="-646"/>
      <point x="-147" y="-646" type="curve" smooth="yes"/>
      <point x="-264" y="-646"/>
      <point x="-321" y="-623"/>
      <point x="-321" y="-571" type="curve" smooth="yes"/>
      <point x="-321" y="-536.864"/>
      <point x="-297.847" y="-516.862"/>
      <point x="-221" y="-492" type="curve" smooth="yes"/>
      <point x="-187" y="-481" type="line" smooth="yes"/>
      <point x="-75.8499" y="-445.04"/>
      <point x="-34" y="-398.041"/>
      <point x="-34" y="-308" type="curve" smooth="yes"/>
      <point x="-34" y="-306" type="line" smooth="yes"/>
      <point x="-34" y="-185"/>
      <point x="-110" y="-122"/>
    </contour>
  </outline>
  <guideline angle="0" x="0" y="75"/>
  <guideline angle="90" x="-195" y="0"/>
</glyph>
<glyph name="acutecomb.narrow" format="2">
  <advance width="595"/>
  <anchor x="179" y="978" name="_top"/>
  <anchor x="157" y="1333" name="top"/>
  <outline>
    <contour>
      <point x="101" y="1095" type="line"/>
      <point x="101" y="1093" type="line"/>
      <point x="262" y="1093" type="line"/>
      <point x="407" y="1366" type="line"/>
      <point x="407" y="1368" type="line"/>
      <point x="207" y="1368" type="line"/>
    </contour>
  </outline>
</glyph>
